<svg width="224" height="130" fill="none" xmlns="http://www.w3.org/2000/svg"><g clip-path="url(#a)"><path d="M13.5 121.8c-.3 0-.6 0-.8.3-.6-1.7-1.6-2.8-2.7-2.8-1 0-2 1-2.7 2.8-.2-.2-.5-.3-.7-.3-1.3 0-2.3 2.1-2.3 4.7h11.4c0-2.6-1-4.7-2.2-4.7Z" fill="#00BAFC"/><path d="M58.8 126.2H.9v.6h57.9v-.6Z" fill="#3F3D56"/><path d="M219.1 110.7c-.2 0-.5.1-.7.3-.6-1.7-1.6-2.7-2.7-2.7s-2 1-2.7 2.7c-.2-.2-.5-.3-.8-.3-1.2 0-2.2 2.2-2.2 4.8h11.4c0-2.6-1-4.8-2.3-4.8Z" fill="#00BAFC"/><path d="M194.6 24.2h-55.1V23h-25v1.2H59.2a3.7 3.7 0 0 0-3.8 3.7v75.4a3.7 3.7 0 0 0 3.8 3.8h135.4a3.7 3.7 0 0 0 3.7-3.8V28a3.7 3.7 0 0 0-3.7-3.7Z" fill="#3F3D56"/><path opacity=".2" d="M193.3 30.7H60.4v75h133v-75Z" fill="#000"/><path d="M126.8 28.7a1.4 1.4 0 1 0 0-2.7 1.4 1.4 0 0 0 0 2.7Z" fill="#00BAFC"/><path d="M223 115H30.4v.5H223v-.6Z" fill="#3F3D56"/><path d="M145 58.8v-5.6a6.8 6.8 0 0 0-6.8-6.8h-5.5c0-.7-2.4-1.4-5.5-1.4v-6.7a3.8 3.8 0 1 0-1 0V45c-3 0-5.4.7-5.4 1.4h-6.5a6.8 6.8 0 0 0-6.8 6.8v5.6c-.8 0-1.4 2.6-1.4 5.9 0 3.3.6 6 1.4 6V77a6.8 6.8 0 0 0 6.8 6.8h24a6.8 6.8 0 0 0 6.7-6.8v-6.5c.8 0 1.5-2.6 1.5-6 0-3.2-.7-5.8-1.5-5.8Z" fill="#00BAFC"/><path d="M115.7 48.5h21.2a6 6 0 0 1 6 6v21.3a6 6 0 0 1-6 6h-21.2a6 6 0 0 1-6-6V54.6a6 6 0 0 1 6-6Z" fill="#3F3D56"/><path d="M118.7 64.3a4.3 4.3 0 0 1-4.3-4.2.2.2 0 0 1 .2-.3.2.2 0 0 1 .3.3 3.8 3.8 0 0 0 7.6 0v-.2a.2.2 0 0 1 .4.2 4.3 4.3 0 0 1-4.2 4.2ZM126.3 72.4a3.3 3.3 0 0 1-3.4-3.3l.1-.2a.2.2 0 0 1 .4.2 2.9 2.9 0 0 0 5.7 0v-.2a.2.2 0 0 1 .5.2 3.3 3.3 0 0 1-3.3 3.3ZM133.9 64.3a4.3 4.3 0 0 1-4.3-4.2v-.2a.2.2 0 0 1 .5.2 3.8 3.8 0 0 0 7.6 0v-.2a.2.2 0 0 1 .4.2 4.3 4.3 0 0 1-4.2 4.2Z" fill="#00BAFC"/><path d="M118.7 62.4a2.1 2.1 0 1 0 0-4.2 2.1 2.1 0 0 0 0 4.2ZM133.9 62.4a2.1 2.1 0 1 0 0-4.2 2.1 2.1 0 0 0 0 4.2ZM126.3 71.2c1 0 1.9-.4 1.9-1 0-.5-.9-.9-2-.9-1 0-1.8.4-1.8 1 0 .5.8 1 1.9 1Z" fill="#00BAFC"/><path d="M202 104.3h-13v-.9a.2.2 0 0 0-.1-.2h-4.5a.2.2 0 0 0-.1.2v1h-2.8v-1a.2.2 0 0 0-.2-.2h-4.5a.2.2 0 0 0-.1.2v1h-2.8v-1a.2.2 0 0 0-.2-.2h-4.5a.2.2 0 0 0-.1.2v1h-2.8v-1a.2.2 0 0 0-.2-.2h-4.4a.2.2 0 0 0-.2.1v1.1h-2.8v-1a.2.2 0 0 0-.2-.2H154a.2.2 0 0 0-.1.2v1H151v-1a.2.2 0 0 0-.2-.2h-4.4a.2.2 0 0 0-.2 0 .2.2 0 0 0 0 .2v1h-2.8v-1a.2.2 0 0 0-.2-.2h-34.8a.2.2 0 0 0-.2.1v1.1h-2.8v-1a.2.2 0 0 0-.2-.2H101a.2.2 0 0 0-.2.2v1H98v-1a.2.2 0 0 0 0-.1.2.2 0 0 0-.2 0h-4.4a.2.2 0 0 0-.1 0 .2.2 0 0 0 0 .1v1h-2.9v-1a.2.2 0 0 0 0-.1.2.2 0 0 0-.2 0h-4.4a.2.2 0 0 0-.1 0 .2.2 0 0 0 0 .1v1h-2.9v-1a.2.2 0 0 0 0-.1.2.2 0 0 0-.1 0H78a.2.2 0 0 0-.1 0 .2.2 0 0 0 0 .1v1H75v-1a.2.2 0 0 0 0-.1.2.2 0 0 0-.1 0h-4.5a.2.2 0 0 0-.1 0 .2.2 0 0 0 0 .1v1h-2.9v-1a.2.2 0 0 0 0-.1.2.2 0 0 0-.1 0h-4.5a.2.2 0 0 0-.1 0 .2.2 0 0 0 0 .1v1h-8.6a4.4 4.4 0 0 0-4.4 4.4v2a4.4 4.4 0 0 0 4.4 4.4H202a4.4 4.4 0 0 0 4.5-4.4v-2a4.5 4.5 0 0 0-4.5-4.5Z" fill="#3F3D56"/><path d="M169.4 83.6H80.8v.6h88.6v-.6Z" fill="#00BAFC"/><path d="M87 83.4H65.3c.7-8.3.7-16.5 0-24.8h21.9a82.8 82.8 0 0 0 0 24.8Z" fill="#D0CDE1"/><path d="M84.2 63.6H68.4v1h15.8v-1ZM84.2 67H68.4v1.1h15.8v-1ZM84.2 70.5H68.4v1h15.8v-1ZM84.2 73.9H68.4v1h15.8v-1ZM84.2 77.3H68.4v1h15.8v-1Z" fill="#3F3D56"/><path d="M29 .8s-3.4-1.2-5.6 3.7c-2.2 5-5.6 10.3-5.6 10.3l2 .5s.4-3.4 1.7-4l-.5 4.5s14.7 5.1 21.3-.5l-.2-1.7s1 .2 1 1.7l.7-.7s-.8-1.5-3-3.5c-1.4-1.3-2-3.7-2-5.2a6.4 6.4 0 0 0-1.6-3.5c-1.4-1.7-4-3.5-8.1-1.6Z" fill="#2F2E41"/><path d="m19.2 109 1 6 4.2-.8.8-5.3h-6Z" fill="#FFB9B9"/><path d="m25.2 112.3-5.8.6.3 4.7-.3 6S16 130.6 21 130c5-.6 4.5-3.2 4.5-3.2l1.3-1.6-.8-4-.8-8.9Z" fill="#2F2E41"/><path d="m42.8 109-1 6-4.2-.8-.8-5.3h6Z" fill="#FFB9B9"/><path d="m36.8 112.3 5.8.6-.3 4.7.3 6s3.4 6.9-1.6 6.4c-5-.6-4.5-3.2-4.5-3.2l-1.3-1.6.8-4 .8-8.9Z" fill="#2F2E41"/><path d="M30.7 17.1a6 6 0 1 0 0-12 6 6 0 0 0 0 12Z" fill="#FFB9B9"/><path d="m26.8 14.2.8 9.5 7.4-.3s-2.1-6-.8-8.4l-7.4-.8Z" fill="#FFB9B9"/><path d="m31 21.9 3-2 3.3 1.7 5.3 2.4-1.9 22.3s4.3 14 3.5 20.8c-.8 6.8 8.6 41 1 42.6-7.6 1.6-13.1 3.2-13.4.5-.3-2.6-.8-42.8-.8-42.8s-.8 42.6-4 43.1c-3 .5-16.8 2.6-15.7-.5 1-3.2 8.1-58.4 11.6-61.6l.5-2.6-4.5-21.3 8.4-4.2L31 22Z" fill="#2F2E41"/><path d="M15.2 54.5 15 65.3s-2.6 10.6 1.7 10.6C21 75.8 18 65.3 18 65.3l1.8-10.6-4.5-.2ZM55 43.2l7.4 7.8s9 6.3 5.7 9c-3.2 2.9-7.9-7-7.9-7l-8.4-6.7 3.2-3.1Z" fill="#FFB9B9"/><path d="m23 47.8 18-.6-.2-1.2-17.4-.3-.4 2Z" fill="#D0CDE1"/><path d="M26.7 48.3a1.6 1.6 0 1 0 0-3.2 1.6 1.6 0 0 0 0 3.2ZM21 24.8l-1.7-.4s-2.2.9-2.8 3.8C16 31 9.2 53.7 12.6 55c3.4 1.3 8.4 1.8 8.4 1.3l2.1-20.2-2-11.3ZM37.1 25.8l5.5-1.8s2.6 0 2.6 2.9c0 1.2 5 11 5 11s12.2 8.6 10.3 9c-3.1.4-5 6-5 6L43.7 42.3 37 25.8ZM23.4 11.5s2-2.7 3.6-3.2c1.8-.4 2-2.9 2-2.9s4.4 5 7.1 5.2c2.7.2.3-6 .3-6l-5-1.2-4.6.5-3.7 2.5.3 5.1Z" fill="#2F2E41"/><path d="M24.8 11.3c.5 0 .8-.5.8-1.1 0-.7-.3-1.2-.8-1.2-.4 0-.8.5-.8 1.2 0 .6.4 1.1.8 1.1Z" fill="#FFB9B9"/></g><defs><clipPath id="a"><path fill="#fff" transform="translate(1)" d="M0 0h222.1v130H0z"/></clipPath></defs></svg>