<svg width="170" height="130" fill="none" xmlns="http://www.w3.org/2000/svg"><g clip-path="url(#a)"><path opacity=".1" d="M166.3 29.6c-1.7-3.4-4-6.4-6.7-9l-93.1-.8 76.7-9.1C138.2 9 132.9 8 127.6 8c-7.4-5-16.9-8-27.2-8a49 49 0 0 0-24.9 6.5 50 50 0 0 0-19.9-4c-20.7 0-38 12-41.8 28.1l152.5-1.1ZM169.6 43c0-4.3-1-8.7-2.9-12.6L5.3 44.7c-1.6 2.5-2.9 5.2-3.8 8l50 6.4L.4 63.6c1.5 18.2 20 32.6 42.5 32.6 11.3 0 21.6-3.6 29.3-9.6 7.6 6 18 9.8 29.5 9.8a44 44 0 0 0 38.5-20 39 39 0 0 0 28-24.5L105 43.6h64.6V43ZM75.3 130c24 0 43.4-.9 43.4-2 0-1-19.5-1.9-43.4-1.9-24 0-43.5.9-43.5 2 0 1 19.5 1.9 43.5 1.9Z" fill="#00BAFC"/><path d="M101 124.7v1.1H66.4v-1a11.4 11.4 0 0 0 .8-21h33.6a11.4 11.4 0 0 0 .2 20.9Z" fill="#C8CAD7"/><path opacity=".1" d="M100.8 103.9a11.4 11.4 0 0 0-6.3 7.5h-21a11.4 11.4 0 0 0-6.3-7.5h33.6Z" fill="#000"/><path d="M26.7 97.9v6.6c0 3.6 2.7 6.5 6 6.5h101.9c3.3 0 6-3 6-6.5v-6.6H26.6Z" fill="#C8CAD7"/><path opacity=".1" d="M101 124.7v1.1H66.4v-1c1-.3 1.9-.8 2.7-1.3h29.8l2.1 1.2Z" fill="#000"/><path d="M111 123.8H56.5c-.8 0-1.4.7-1.4 1.4v.7c0 .7.6 1.4 1.4 1.4H111c.7 0 1.4-.7 1.4-1.4v-.7c0-.7-.7-1.4-1.4-1.4Z" fill="#C8CAD7"/><path d="M140.5 25.9a6 6 0 0 0-6-6H32.8a6 6 0 0 0-6 6v73.3h113.8V25.9Z" fill="#474157"/><path d="M137.4 28.5v63a2.9 2.9 0 0 1-1.8 2.7 3 3 0 0 1-1.1.2H32.8a3 3 0 0 1-3-3V28.6a3 3 0 0 1 3-3h101.7a3 3 0 0 1 3 3Z" fill="#4C4C78"/><path d="M83.6 24.1a1.4 1.4 0 1 0 0-2.7 1.4 1.4 0 0 0 0 2.7ZM83.6 108.1a3.4 3.4 0 1 0 0-6.7 3.4 3.4 0 0 0 0 6.7ZM52.6 27v67.4H32.8a3 3 0 0 1-3-3V28.6l.2-.4.2-1h22.4Z" fill="#fff"/><path d="M55.1 28.1v6H30v-6h25.2Z" fill="#4C4C78"/><path d="M137.4 28.5H30a3 3 0 0 1 2.9-3h101.7a3 3 0 0 1 3 3Z" fill="#C8CAD7"/><path d="M32.8 27.8a.7.7 0 1 0 0-1.5.7.7 0 0 0 0 1.5ZM35 27.8a.7.7 0 1 0 0-1.5.7.7 0 0 0 0 1.5ZM37.2 27.8a.7.7 0 1 0 0-1.5.7.7 0 0 0 0 1.5Z" fill="#EDEDF4"/><path d="M48.8 30.8H33.6v1.4h15.2v-1.4Z" fill="#00BAFC"/><path opacity=".5" d="M48.8 37.6H33.6V39h15.2v-1.4ZM48.8 42.4H33.6v1.4h15.2v-1.4ZM48.8 47.2H33.6v1.4h15.2v-1.4ZM48.8 52H33.6v1.4h15.2V52ZM48.8 56.9H33.6v1.4h15.2v-1.4ZM48.8 61.7H33.6V63h15.2v-1.4ZM48.8 66.5H33.6v1.4h15.2v-1.4Z" fill="#00BAFC"/><path opacity=".5" d="M132.2 36H65v.1h67.2V36ZM132.2 41.1H65v.2h67.2v-.2ZM132.2 46.3H65v.3h67.2v-.3ZM132.2 51.6H65v.2h67.2v-.2ZM132.2 56.8H65v.2h67.2v-.2Z" fill="#DCE0ED"/><path opacity=".5" d="M132.2 57H65V46.7l6.2 3 6.4 1L83 49l6.8-5.3 3.4-2 2.4-.4h2.4l4 2 5.3 3.4 4.1.6 3.3-1.2 7-5.7 3.6-1.3 3.8.6 3 1.7V57Z" fill="#00BAFC"/><path d="M76.7 50.7c-6.1 0-11.7-3.8-11.8-3.8l.2-.3c0 .1 8.7 5.8 16 3 2.7-1 4.6-2.7 6.4-4.3 2-1.6 3.8-3.2 6.3-3.8 2.8-.8 5.9-.1 8.2 1.8 2 1.7 6 4.3 10.3 3.5 2.2-.4 4-2 6-3.6 3.6-3.2 7.4-6.5 14-1.8l-.1.3c-6.5-4.6-10.2-1.4-13.8 1.7-2 1.7-3.8 3.3-6 3.7-4.4.9-8.5-1.8-10.5-3.5a9 9 0 0 0-8-1.8c-2.5.6-4.3 2.1-6.2 3.8-1.8 1.5-3.7 3.2-6.5 4.2-1.4.6-3 .9-4.5.9Z" fill="#00BAFC"/><path d="M97.4 42.9a1.7 1.7 0 1 0 0-3.3 1.7 1.7 0 0 0 0 3.3Z" fill="#00BAFC"/><path d="M55.6 77.5c-2.3-1.4-3.2-1.7-3.2-1.7l-.6-.7v-.2c0-.7.6-1.3 1-1.9a1956.2 1956.2 0 0 1 1.5-1.9V69.7c0-.3 0-.7-.4-.8h-.4v-1.4c-.1-.5-.8-.7-1.3-.8-.5 0-1.1-.2-1.5-.6a5 5 0 0 0-.3-.4l-.5-.2c-.7-.2-1.4-.2-2 .1l-.8.3-.9-.3c-.5 0-1 .3-1.1.7-.2.2-.3.5-.3.8l.3.9c.3.2.6.3.6.6l.1.3v.1a3.6 3.6 0 0 0 0 4.3c.4.6 1 1.1 1.8 1.3v.1a1.5 1.5 0 0 1-.5 1.2l-3.2 1.3s-2-.2-2.7 2.7l-.1 1.4c0 .4 0 1.2-.5 2.2-.8 1.5-.6 5.1 1 5.5 1.5.3 2.1.2 2.2.1v.1c0 .7-.3 6.5-1.2 7.2-.2.2-.2.3 0 .4v.1c0 .4-.1 2-.7 3-.7 1-.6 7.2-.6 7.2l-.5 3.6s.3 2.2 0 2.6c-.3.4-.6 8.7-.7 10.5a.9.9 0 0 0-.7.4c-.4.6-1.7 1.7-1.7 1.7-.3.5-1.4.8-2 1a1.2 1.2 0 0 0-.7.8v.3c.1.3 3.1.6 4 .2.5-.3 2.9-.6 3.9-.8a.8.8 0 0 0 .7-.7.5.5 0 0 0-.1-.3c-.2-.3-.3-1-.3-1.3l.2-.2c-.1-1.2 0-2.5.5-3.8.7-1.9 1-5.4.8-7.7 0 0 2.2-9.6 4-10.4 0 0 .8 1 1 4.4 0 3.4 1.3 5.7 1.3 5.7s-.6 5.8 0 8l-.8 3.4v-.1V124.7l.2 1.6-.2 1c0 .5 0 1 .2 1 .4.3 3.1.5 3.6 0a.8.8 0 0 0 .1-1l-.1-.2s-.7-1.1-.5-2a.6.6 0 0 0-.1-.4c0-1.3.3-2.6.6-3.8a17.5 17.5 0 0 0 .6-8.2c-.4-1.4-.5-2.8-.4-4.2a8.4 8.4 0 0 1 0-3.6l.8-4s.2-2.6 0-4.2v-.1l-.8-4.5-.1-1.5.5-.1c2-.7 2.6-6.8 2.6-6.8v-2s.7-3-1.6-4.2ZM41 124.6Z" fill="url(#b)"/><path d="M54.4 112.7c.9 2.5-.1 6.4-.6 8.2l-.6 3.9c-1 .2-2 .1-3.1 0l.7-3.7c-.5-2.2 0-8 0-8s-1.2-2.2-1.3-5.6c0-3.3-.9-4.4-1-4.5-1.6 1-3.8 10.4-3.8 10.4a22 22 0 0 1-.7 7.8 9.6 9.6 0 0 0-.6 3.8c-.2.2-.6.2-1 .1-1-.1-2.1-1-2.1-1s.3-10.3.6-10.7c.3-.4 0-2.6 0-2.6l.5-3.6s0-6.2.6-7.2.7-2.6.7-3l1-1.3s10-.8 10.7 0c.2.2.3.6.4 1.1.2 1.6 0 4.2 0 4.2l-.8 4a8.6 8.6 0 0 0 0 3.6c-.1 1.4 0 2.8.4 4.1Z" fill="#65617D"/><path d="M53.8 128.2c-.5.6-3 .4-3.5.2-.3-.1-.2-.6-.2-1.2l.2-.9-.2-2s.5.7.7 0a.7.7 0 0 1 .5-.4h1c.4.3 1.1.7 1 1.3-.2.8.5 2 .5 2l.1.2a.9.9 0 0 1-.1.8Z" fill="#A27772"/><path opacity=".1" d="M53.8 128.2c-.5.6-3 .4-3.5.2-.3-.1-.2-.6-.2-1.2.3.2.8.3 1.6.2h2.2a.9.9 0 0 1-.1.8ZM44.7 113.4a22 22 0 0 1-.7 7.8 9.6 9.6 0 0 0-.6 3.8c-.2.2-.6.2-1 .1.3-1.5 1.2-7.9 1.8-13 .6-5.8 3.7-9.7 3.7-9.7l.7.6c-1.7 1-3.9 10.4-3.9 10.4Z" fill="#000"/><path d="m52.7 76.2-.4 2.1-2.1 3.6-2.6-1.1S44 77 46.3 76.5c.2 0 .5-.1.7-.3.4-.3.6-.8.6-1.3s-.2-1-.4-1.5l4.6-1.4-.4 1.8c0 1.3.5 1.9.9 2.2l.4.2Z" fill="#FBBEBE"/><path opacity=".1" d="m51.8 72-.4 1.8a3.6 3.6 0 0 1-3.8 1.1c0-.5-.2-1-.4-1.5l4.6-1.4Z" fill="#000"/><path d="M52.3 71.4a3.6 3.6 0 1 1-7.2 0 3.6 3.6 0 0 1 7.2 0Z" fill="#FBBEBE"/><path opacity=".1" d="m52.7 76.2-.4 2.1-2.1 3.6-2.6-1.1S44 77 46.3 76.5c.2 0 .5-.1.7-.3-.4 1.1 1.3 3.4 1.3 3.4.1.3.6.1.6.1 1-.1 3-3.2 3.4-3.7l.4.2ZM54.8 96.8c-.7.2-4.1 1-5.5.7l-4.2-.3s-1.8 0-2.4-.2l1-1.3s10-.8 10.7 0c.2.2.3.6.4 1.1Z" fill="#000"/><path d="M48.3 79.7s-2-2.6-1.2-3.6l-3.2 1.3s-1.9-.2-2.6 2.6a5 5 0 0 0 0 1.5c0 .4-.1 1.1-.6 2.1-.8 1.6-.6 5.1 1 5.5 1.6.4 2.2.2 2.2.2s-.3 6.5-1.2 7.2c-.9.7 2.4.6 2.4.6l4.2.3c1.5.2 5.6-.7 5.6-.7s-.6-2.8-.8-4.5l-.8-5.4 3.7-5s.6-2.9-1.6-4.2C53 76.3 52.3 76 52.3 76s-2.3 3.6-3.4 3.8c0 0-.5.2-.6 0Z" fill="#FF748E"/><path opacity=".1" d="M44.1 80.7s0 1.2.2 1.7l1 3h-1.8s1-1 .9-1.5l-.3-3.2Z" fill="#000"/><path d="M49.3 89.6s-3.9-1-4.2-1.8l-1.4-2.6.4-.6 2 1.5s2.2 1.8 3.2 2c1.1.2 0 1.5 0 1.5Z" fill="#FBBEBE"/><path opacity=".1" d="M49.3 89.6s-3.9-1-4.2-1.8l-1.4-2.6.4-.6 2 1.5s2.2 1.8 3.2 2c1.1.2 0 1.5 0 1.5Z" fill="#000"/><path d="M52.7 85v2h-.3a10 10 0 0 0-4.8 1.3l-.7.4h-.1l-1.1-2.4 1-1c.3.1 1.4.2 1.8 0 .5-.1 1-.6 2.3-.2.6.1 1.2.8 1.8.6l.1-.7Z" fill="#FBBEBE"/><path opacity=".1" d="m56.1 81.1.8.8v2s-.6 6-2.6 6.7c-1.9.7-5.3-.4-5.3-.4s-.9-2.3-.5-2.5l3.7-1s0-3.5.7-4.6c0 0-.5-3.3 1-3.4 1.7 0 2.2 2.4 2.2 2.4Z" fill="#000"/><path d="m56.2 81.1.8.8v2s-.6 6-2.6 6.7c-1.9.7-5.3-.4-5.3-.4s-.9-2.3-.5-2.5l3.7-1s0-3.5.7-4.6c0 0-.5-3.3 1-3.4 1.7 0 2.2 2.4 2.2 2.4Z" fill="#FF748E"/><path opacity=".1" d="M51.3 73v-.8a.5.5 0 0 0-.6-.3c-.3 0-.5.5-.8.6-.2 0-.5-.1-.6-.4-.1-.2-.2-.5-.1-.7v-1c0-.2 0-.6-.2-.8-.3-.4-.9-.5-1.3-.5a1 1 0 0 0-.6.3.9.9 0 0 1-.8.3.6.6 0 0 1-.5-.5 3.6 3.6 0 1 1 5.4 4.8l.1-1Z" fill="#000"/><path d="M46.3 69.5a.6.6 0 0 1-.5-.4v-.3c-.1-.3-.4-.5-.6-.7-.4-.4-.4-1-.1-1.6.2-.4.7-.8 1.1-.7.3 0 .6.3.8.3.3 0 .6-.1.8-.3a3 3 0 0 1 2-.1l.5.2.3.4c.3.5 1 .5 1.5.6.5.1 1 .3 1.3.8l-.1 1.1v.2l.5.1c.3 0 .3.5.3.8a40.3 40.3 0 0 1 0 1.4c0 .2-.1.4-.3.5l-1.1 1.4c-.5.6-1.1 1.3-1 2.2-.2 0-.5-.1-.6-.4v-.8l.2-1.4v-.7a.5.5 0 0 0-.6-.3c-.3 0-.5.5-.8.6-.2 0-.5-.1-.6-.4l-.1-.7v-1c0-.3 0-.6-.2-.9-.3-.3-.9-.4-1.2-.4a1 1 0 0 0-.7.3.9.9 0 0 1-.8.2Z" fill="#7C5C5C"/><path opacity=".1" d="m47.1 80.7 1.1 4.5s1 0-1-4.5ZM51 79.9s-1.5 2.4-1 4.8h.3s-.5-1 .6-4.8ZM51.8 93.3s1.8-.5 2 .8c0 0-.4-1-2-.8ZM46.7 85.5s-.4 2.5.3 3.5c-1 .3-2 .5-3.1.4l-.3-4h3Z" fill="#000"/><path opacity=".1" d="M47 88.7h-.2l-1.1-2.4 1-1c0 .2-.3 2.3.2 3.4Z" fill="#000"/><path d="M46.7 85.4s-.4 2.5.3 3.5c-1 .3-2 .5-3.1.4l-1.3-4h4Z" fill="#FF748E"/><path d="M43.6 126.7a.8.8 0 0 1-.7.7c-1 .2-3.2.5-3.8.8-.8.4-3.7.1-3.8-.2a.6.6 0 0 1 0-.5 1.2 1.2 0 0 1 .7-.6c.6-.1 1.6-.5 1.9-1 0 0 1.3-1 1.7-1.7a.8.8 0 0 1 .6-.4c.3 0 .7.1.8.8 0 0 1.7 1 2.2.1 0 0 0 1.3.3 1.7a.5.5 0 0 1 .1.3Z" fill="#A27772"/><path opacity=".1" d="M43.6 126.7a.8.8 0 0 1-.7.7c-1 .2-3.2.5-3.8.8-.8.4-3.7.1-3.8-.2a.6.6 0 0 1 0-.5l.5-.5c.5.3 1.5.7 3.9.3 2.2-.4 3.3-.7 3.8-1a.5.5 0 0 1 .1.4Z" fill="#000"/><g opacity=".1" fill="#000"><path opacity=".1" d="m53.3 68.8.1-.8-.1.7v.1ZM51.2 72.2l.1.4V72a.5.5 0 0 0-.6-.3c-.3 0-.5.4-.8.5-.2.1-.5 0-.6-.3-.1-.2-.2-.5-.1-.8v-.9c0-.3 0-.6-.2-.9-.3-.3-.9-.4-1.3-.4a1 1 0 0 0-.6.3.9.9 0 0 1-.8.2.6.6 0 0 1-.5-.4v-.4l-.6-.6c-.2-.2-.3-.5-.3-.8a1.2 1.2 0 0 0 .3 1c.2.2.5.3.6.6v.3a.6.6 0 0 0 .5.5.9.9 0 0 0 .8-.3c.1-.2.4-.3.6-.3.4 0 1 .2 1.3.5.2.2.2.6.2 1V72c.2.2.5.4.7.3.3-.1.5-.5.8-.6a.5.5 0 0 1 .5.4ZM54.1 71.2c0 .2-.1.3-.3.5L52.7 73c-.5.6-1 1.2-1 2 0-.7.5-1.3 1-1.9l1.1-1.4c.2-.1.3-.3.3-.5V71v.2ZM51 74.9v-.2.3c.2.3.5.5.7.4v-.2c-.3.1-.5 0-.6-.3Z"/></g><path opacity=".1" d="M39.3 124.5s.4.7 1.7 0h-1.7ZM50.7 124.7s1.1 1.3 2.6.4l-2.6-.4ZM54 108.6s-.8.5-.8.8c0 .3.4-.2.4-.2l.4-.6ZM54.3 112.5c-.2.2-.6.4-1 .4-.6 0-.5.8-.1.6l1.1-1ZM54.5 113s-.4 2-.7 1.5l.7-1.5Z" fill="#000"/><g opacity=".5" fill="#DCE0ED"><path opacity=".5" d="M80.8 68.7H71v2h10v-2ZM103.5 68.7h-9.9v2h10v-2ZM126.2 68.7h-9.9v2h10v-2Z"/></g><path opacity=".1" d="M143 120.7c2.3 0 4.1-.3 4.1-.7 0-.4-1.8-.7-4-.7-2.3 0-4 .3-4 .7 0 .4 1.7.7 4 .7ZM17.6 129.3c2.3 0 4-.3 4-.7 0-.4-1.7-.7-4-.7-2.2 0-4 .3-4 .7 0 .4 1.8.7 4 .7Z" fill="#00BAFC"/><path d="M134.2 128.3c3.4 0 6-.4 6-1s-2.6-1-6-1c-3.3 0-6 .4-6 1s2.7 1 6 1Z" fill="#00BAFC"/><path d="M136.7 125.6c.3-.2.5-.5.6-.8 0-.4 0-.8-.4-1-.4 0-.8.2-1 .5-.4.2-.7.5-1 .5a1.6 1.6 0 0 0 .4-1.5l-.1-.3c-.2-.2-.6-.1-.9 0-.7.6-1 1.6-1 2.6v-1c0-.4 0-.8-.4-1l-.6-.1c-.3 0-.7 0-1 .2-.3.4-.2.9 0 1.2.3.4.7.6 1.1.9.3.1.5.4.7.6v.2h2.3c.5-.3 1-.6 1.3-1ZM17.8 118.5s.9 1-.4 2.7c-1.2 1.6-2.1 3-1.7 4 0 0 1.8-3 3.2-3 1.5-.1.6-1.9-1-3.7Z" fill="#00BAFC"/><path opacity=".1" d="m17.8 118.5.2.3c1.4 1.7 2.2 3.3.8 3.3-1.3 0-2.8 2.4-3.2 3v.1s1.9-3 3.4-3c1.4-.1.5-1.9-1.2-3.7Z" fill="#000"/><path d="m19.4 119.9-.1.6-.1-.6v-.2c.1 0 .2-.2.2.2ZM19.9 120.3l-.7.3.6-.5c.3-.1.2 0 .2 0 0 .1.2 0-.1.2Z" fill="#FFD037"/><path d="M13.5 118.5s-.8 1 .4 2.7c1.2 1.6 2.2 3 1.8 4 0 0-1.9-3-3.3-3-1.5-.1-.5-1.9 1-3.7Z" fill="#00BAFC"/><path opacity=".1" d="m13.5 118.5-.2.3c-1.4 1.7-2.2 3.3-.8 3.3 1.3 0 2.8 2.4 3.2 3v.1s-1.9-3-3.3-3c-1.5-.1-.5-1.9 1-3.7Z" fill="#000"/><path d="M12 119.9v.6l.1-.6v-.2c-.1 0-.1-.2-.1.2Z" fill="#FFD037"/><path d="m11.4 120.3.7.3s-.2-.3-.6-.5c-.3-.1-.2 0-.2 0 0 .1-.2 0 .1.2Z" fill="#FFD037"/><path d="M12.2 125s2.3 0 3-.5c.7-.5 3.6-1 3.7-.3.2.8 3.5 4 .9 4s-6-.4-6.7-.9c-.7-.4-.9-2.2-.9-2.2Z" fill="#A8A8A8"/><path opacity=".2" d="M19.8 127.9c-2.6 0-6-.4-6.7-.8-.5-.4-.7-1.5-.8-2 0 0 0 1.8.8 2.2.6.5 4 .9 6.7.9.7 0 1-.3 1-.7-.1.2-.4.4-1 .4Z" fill="#000"/><path d="M70.2 83.3c0-3 2.5-5.4 5.6-5.4v-1.4a6.8 6.8 0 0 0-4.6 12l1-1a5.5 5.5 0 0 1-2-4.2Z" fill="#00BAFC"/><path opacity=".5" d="M76 76.5V78a5.6 5.6 0 1 1-3.6 9.8l-1 1A7 7 0 1 0 76 76.5ZM121.5 77.8c3 0 5.4 2.5 5.4 5.6h1.4a6.8 6.8 0 0 0-12-4.6l1 1a5.5 5.5 0 0 1 4.2-2Z" fill="#00BAFC"/><path d="M128.3 83.6H127a5.5 5.5 0 1 1-9.8-3.6l-1-1a7 7 0 1 0 12.2 4.6Z" fill="#00BAFC"/><path opacity=".5" d="m101.3 77-.3 1.3c2 .8 3.4 2.8 3.4 5.2a5.6 5.6 0 1 1-7.8-5.1L96 77a7 7 0 1 0 9.8 6.4c0-3-1.8-5.6-4.5-6.6Z" fill="#00BAFC"/><path d="M99 77.8c.7 0 1.3.2 2 .4l.2-1.4c-.7-.2-1.4-.4-2.2-.4-1 0-2 .2-2.8.7l.6 1.2c.7-.3 1.5-.5 2.2-.5Z" fill="#00BAFC"/></g><defs><linearGradient id="b" x1="46.1" y1="128.6" x2="46.1" y2="65.4" gradientUnits="userSpaceOnUse"><stop stop-color="gray" stop-opacity=".3"/><stop offset=".5" stop-color="gray" stop-opacity=".1"/><stop offset="1" stop-color="gray" stop-opacity=".1"/></linearGradient><clipPath id="a"><path fill="#fff" transform="translate(.4)" d="M0 0h169.2v130H0z"/></clipPath></defs></svg>