<svg width="178" height="130" fill="none" xmlns="http://www.w3.org/2000/svg"><g clip-path="url(#a)"><path opacity=".1" d="M104.1 18a92 92 0 0 1-29.9-7.5C64.7 7 55.3 2.8 45.2.8 38.5-.4 31-.6 25.7 3c-5 3.4-6.7 9.2-7.6 14.6-.7 4.1-1 8.4.8 12.2 1.2 2.7 3.5 4.9 5 7.4 5.4 8.9 1.6 19.7-4.2 28.4-2.8 4-6 7.9-8 12.2-2.2 4.3-3.2 9.2-1.3 13.6 1.8 4.3 6.2 7.6 11 10 9.5 4.6 20.9 6 32 6.7a753.4 753.4 0 0 0 100.8-1.8c5-.7 10-2 13.7-5a11.5 11.5 0 0 0 2.6-15c-5.1-8-19.4-9.9-23-18.5-2-4.7.1-10 3-14.3 6.1-9.4 16.5-17.6 17-28.3.4-7.4-4.6-14.8-12.3-18.3-8-3.6-19.2-3.2-25.1 2.9-6.1 6.2-16.9 8.6-26.1 8.3Z" fill="#00BAFC"/><g opacity=".9"><path opacity=".9" d="M115.9 40.1h-.7c-.2 0-.4.2-.4.4v11c0 .2.2.4.4.4h.7c.2 0 .4-.2.4-.4v-11c0-.2-.2-.4-.4-.4ZM67.8 30.9h-.1c-.2 0-.4.2-.4.4v3.1c0 .2.2.4.4.4.3 0 .4-.2.4-.4v-3.1c0-.2-.1-.4-.3-.4ZM67.8 38h-.1c-.2 0-.4.2-.4.4v6c0 .2.2.3.4.3h.1c.2 0 .4-.1.4-.3v-6c0-.2-.2-.4-.4-.4ZM67.8 47.1h-.1c-.2 0-.4.2-.4.4v6c0 .3.2.4.4.4h.1c.2 0 .4-.1.4-.4v-6c0-.2-.2-.4-.4-.4Z" fill="#3A3768"/><path opacity=".9" d="M109.3 18H74.1a6.3 6.3 0 0 0-6.3 6.4V109c0 3.4 2.8 6.3 6.3 6.3h35.2c3.5 0 6.3-2.9 6.3-6.3V24.4c0-3.5-2.8-6.3-6.3-6.3Z" fill="#3A3768"/><path opacity=".9" d="M93.1 21h-5.4c-.3 0-.6.3-.6.6v.1c0 .4.3.6.6.6h5.4c.4 0 .7-.2.7-.6 0-.4-.3-.7-.7-.7ZM95.5 22.4a.8.8 0 1 0 0-1.5.8.8 0 0 0 0 1.5Z" fill="#E6E8EC"/></g><path opacity=".1" d="M39 120.8c17.8 0 32.2-1.5 32.2-3.3 0-1.8-14.4-3.3-32.2-3.3-17.8 0-32.3 1.5-32.3 3.3 0 1.8 14.5 3.3 32.3 3.3ZM110.7 130c8.3 0 15.1-.7 15.1-1.5 0-.9-6.8-1.6-15.1-1.6-8.4 0-15.1.7-15.1 1.6 0 .8 6.7 1.5 15 1.5ZM162.3 122.2c8.4 0 15.1-.7 15.1-1.5 0-.9-6.7-1.5-15-1.5-8.4 0-15.2.6-15.2 1.5 0 .8 6.8 1.5 15.1 1.5Z" fill="#00BAFC"/><path d="M108.8 20.6h-5.4v.7a3.1 3.1 0 0 1-3.2 3.1H82.8a3.1 3.1 0 0 1-3.1-3.1v-.7h-5.2a3.8 3.8 0 0 0-3.8 3.8V109a3.8 3.8 0 0 0 3.8 3.8h34.3a3.8 3.8 0 0 0 3.8-3.8V24.4a3.8 3.8 0 0 0-3.8-3.8ZM132.1 13.8s-13.5-.8-12 8.7c0 0-.3 1.7 1.3 2.5 0 0 0-.7 1.4-.5h1.4a3 3 0 0 0 1.8-.7s3.9-1.5 5.3-7.8c0 0 1.1-1.3 1.1-1.7l-2.3 1s.8 1.6.2 3c0 0-.1-3-.5-2.9l-1.2.6s1.3 2.9.3 5c0 0 .4-3.6-.8-4.8l-1.6 1s1.6 2.9.5 5.3c0 0 .3-3.7-.8-5.1l-1.5 1.1s1.5 3 .6 5c0 0-.1-4.4-.9-4.7 0 0-1.3 1.1-1.5 1.6 0 0 1 2.1.4 3.2 0 0-.4-2.9-.7-2.9 0 0-1.3 2-1.4 3.2 0 0 0-2 1.1-3.4 0 0-1.2.2-2 1 0 0 .3-1.3 2.3-1.4 0 0 1-1.5 1.3-1.6 0 0-2-.1-3.3.4 0 0 1.1-1.3 3.7-.7l1.5-1.2s-2.7-.3-3.9 0c0 0 1.3-1 4.3-.2l1.5-1s-2.3-.5-3.7-.3c0 0 1.5-.8 4.2 0l1.1-.4-2.2-.4c-.5 0-.5-.2-.5-.2 1-.2 2.2 0 3.2.4l2.3-1ZM118.2 9.6s-6.1-.4-5.4 4c0 0-.1.7.5 1 0 0 0-.3.7-.2h.6c.3 0 .6 0 .9-.3 0 0 1.7-.7 2.4-3.5 0 0 .5-.6.4-.8l-1 .5s.4.7 0 1.3c0 0 0-1.3-.2-1.3l-.5.3s.6 1.3.2 2.2c0 0 .1-1.6-.4-2.1l-.7.4s.7 1.3.2 2.4c0 0 .1-1.7-.4-2.3l-.6.5s.6 1.3.2 2.2c0 0 0-2-.4-2 0 0-.5.4-.6.7 0 0 .4 1 .1 1.4 0 0-.1-1.3-.3-1.3 0 0-.6.9-.6 1.5 0-.6.2-1.1.5-1.6-.4 0-.7.2-1 .5 0 0 .2-.6 1.1-.7l.6-.7s-1 0-1.5.2c0 0 .5-.6 1.7-.3l.6-.6h-1.7s.6-.5 2 0l.6-.5-1.6-.2s.6-.3 1.8 0l.5-.1-1-.2-.2-.1c.5 0 1 0 1.4.2l1.1-.5ZM7 110.5c3.6 0 6.5-.4 6.5-1 0-.7-2.9-1.1-6.4-1.1-3.6 0-6.5.4-6.5 1 0 .7 2.9 1.1 6.5 1.1Z" fill="#00BAFC"/><path d="M9.7 107.7c.3-.3.6-.6.7-1 0-.3-.1-.8-.5-1-.4 0-.8.2-1.1.5-.3.3-.7.6-1.1.5a1.7 1.7 0 0 0 .5-1.6s0-.2-.2-.3c-.2-.2-.6-.1-.8 0-.9.6-1.1 1.8-1.1 2.8v-1.1c0-.4-.1-.8-.5-1l-.6-.2c-.4 0-.8 0-1 .3-.4.4-.3 1 0 1.3l1 .9c.4.2.7.4.9.7v.2h2.4l1.4-1ZM134.5 94.1s1.4 1.8-.6 4.6-3.7 5-3 6.8c0 0 3-5.1 5.5-5.2 2.5 0 .9-3.1-1.9-6.2Z" fill="#00BAFC"/><path opacity=".1" d="m134.5 94.1.3.6c2.5 2.9 3.8 5.5 1.4 5.6-2.2 0-4.8 4-5.4 5v.2s3.1-5.1 5.6-5.2c2.5 0 .9-3.1-1.9-6.2Z" fill="#000"/><path d="m137.1 96.5-.1 1.1c-.1 0-.2-.5-.2-1.1 0-.7.1-.4.2-.4 0 0 .1-.3.1.4Z" fill="#FFD037"/><path d="m138 97.2-1 .4c-.1 0 .3-.4.9-.7.5-.3.3 0 .4 0 0 .1.3 0-.3.3Z" fill="#FFD037"/><path d="M127.2 94.1s-1.4 1.8.6 4.6 3.7 5 3 6.8c0 0-3-5.1-5.5-5.2-2.5 0-.9-3.1 1.9-6.2Z" fill="#00BAFC"/><path opacity=".1" d="m127.2 94.1-.3.6c-2.5 2.9-3.8 5.5-1.4 5.6 2.2 0 4.8 4 5.4 5v.2s-3.1-5.1-5.6-5.2c-2.5 0-.9-3.1 1.9-6.2Z" fill="#000"/><path d="m124.6 96.5.1 1.1c.1 0 .2-.5.2-1.1 0-.7 0-.4-.2-.4 0 0-.1-.3-.1.4Z" fill="#FFD037"/><path d="m123.7 97.2 1 .4c.1 0-.3-.4-.9-.7-.5-.3-.3 0-.4 0 0 .1-.3 0 .3.3Z" fill="#FFD037"/><path d="M125 105.3s4-.2 5.1-1c1.2-.8 6-1.8 6.3-.5.3 1.4 5.8 6.7 1.4 6.7s-10.2-.7-11.4-1.4c-1.1-.7-1.4-3.8-1.4-3.8Z" fill="#A8A8A8"/><path opacity=".2" d="M138 110c-4.5 0-10.3-.6-11.5-1.3-.9-.6-1.2-2.5-1.3-3.4h-.2s.3 3.1 1.4 3.8c1.2.7 7 1.5 11.4 1.4 1.3 0 1.8-.4 1.7-1.1-.1.4-.6.6-1.6.7Z" fill="#000"/><path opacity=".3" d="M107.4 78.7H95v12.6h12.5V78.7ZM88.9 62H76.3v12.7H89V62ZM90.1 95H77.5v12.6h12.6V95Z" fill="#3A3768"/><path d="M87.3 31.2H74.7v12.6h12.6V31.2ZM105 74.2l-9.4 8.4 8.4 9.3 9.4-8.4-8.5-9.3ZM107.2 46.3H94.6V59h12.6V46.3ZM91.3 60.4H78.7V73h12.6V60.4Z" fill="#fff"/><path d="M157.3 118.2a5 5 0 0 0 2.2-.1c.1 0 .3-.1.2-.2v-.1a6.9 6.9 0 0 1-.7-1.4l-1 .4h-1c0 .4.3.9.3 1.4ZM171.2 117c.5-.4 1-.7 1.3-1.3v-.2l-1-1a3 3 0 0 0-.7.5s-.4.3-.4.5l.2.3.2.4.4.7Z" fill="#00BAFC"/><path d="M160.2 119.6v.4h-.3c-1 .4-2.2 0-3.2.3l-.6.3-.8.1a14.7 14.7 0 0 1-1.9 0 1 1 0 0 1-.6-.5v-.4l.2-.2.4-.3.6-.3h.5l1.3-1 .5-.6.2-.2h.2c.5 0 1 .2 1.4.5l.3.2a1.2 1.2 0 0 0 1-.1l.1-.3c.1 0 .2-.2.4 0l.1 1.2v.2l.1.2.1.5Z" fill="#514E7F"/><path d="M160.2 119.6v.4h-.3c-1 .4-2.2 0-3.2.3l-.6.3-.8.1a14.7 14.7 0 0 1-1.9 0 1 1 0 0 1-.6-.5v-.4l.1.3a.7.7 0 0 0 .5.4l.5-.1c.9-.2 1.9-.2 2.8-.6l.9-.3 1-.1 1.5-.3.1.5Z" fill="#464353"/><path d="M173.5 116.9c0 .4-.3.7-.5 1l-.8.8c-.3.5-.4 1-.8 1.3a3 3 0 0 1-1 .6 4.4 4.4 0 0 1-2 0c-.2 0-.2-.1-.3-.2a1 1 0 0 1-.3-.3v-.2l.1-.3.4-.3.5-.5.2-.4.1-.9v-.5c.2-.3.4-.6.4-.9v-.1l.6-.2a.6.6 0 0 1 .5.2l.2.3h.2c.3 0 .6-.1.8-.3a1 1 0 0 0 .3-.7v-.2l.4.2.5 1v-.1a.4.4 0 0 1 .4.2c.1.1.2.3.1.5Z" fill="#514E7F"/><path d="M173.5 116.9c0 .4-.3.7-.5 1l-.8.8c-.3.5-.4 1-.8 1.3a3 3 0 0 1-1 .6 4.4 4.4 0 0 1-2 0c-.2 0-.2-.1-.3-.2a1 1 0 0 1-.3-.3h.3l.7.2c.3.1.6-.1 1-.2h.6l.5-.4.5-.5.3-.6a8.5 8.5 0 0 1 .7-1.3l.2-.1.4-.8v-.2h.3l.1.2c.1.1.2.3.1.5Z" fill="#464353"/><path d="M150.4 82.4c.2.2.5.5.6.8.2.3 1 2.6 1 3 .3-.3 1.5-.4 1.7-.7.2 0 .8-.7 1-.8 0-.2.8-.5.8-.6.3-.6-2.1-2.6-1.8-3.1v-.1l-.7-.6c-.3-.1-.5-.3-.5-.6a45 45 0 0 0-2 1.6c-.2.1-.5.3-.6.6 0 .2.3.4.5.5Z" fill="#A1616A"/><path d="M154.3 81.5a7 7 0 0 0-1 .9 2 2 0 0 0-.7 1v.6c-.2.7-.8 1.2-1 1.9l-.2.6-.2 1.3c0 .4.4.7.6 1.1l.2 1.2.7 2.2c.5 1.5 2.3 5.6 2.9 7.1 1.6-.4 6-1.4 7.5-2.2.5-.3-3.4-3.6-2.8-3.9h.1V93c-.5-2.4-2.2-4.2-3-6.5-.2-.8-.6-1.4-1-2.2-.3-.7-.5-1.4-.9-2 0-.2-.1-.3-.3-.4l-.3-.2-.6-.3Z" fill="#514E7F"/><path d="M150.4 82.2a2.6 2.6 0 1 0 0-5.3 2.6 2.6 0 0 0 0 5.3Z" fill="#A1616A"/><path d="M153.1 80.8a.9.9 0 0 1 1-.2.5.5 0 0 1 .3.5h1.9l.5.4H157.7c.7 0 1.3.3 1.9.7l.2.3v.5c0 1.2.5 2.3.8 3.5 0 .2.2.4.4.6.2.1.3.4.4.6.2.6 0 1.3.1 2l.5.6.4 1v1l.4 1c.1.6.4 1.2.9 1.5-1.3.3-2.6.5-3.8 0a2 2 0 0 1-.4-.2c-.5-.3-.7-.8-.9-1.3-.2-.6-.4-1.1-.4-1.7V91l-.8-.7-1-.7a1.4 1.4 0 0 1-.3-1l.1-.5a.4.4 0 0 0-.2-.5c-1-.3-1.4-1.3-1.6-2.2v-2.5a1.2 1.2 0 0 1-.5-.8v-.3l-.2-.3-.5-.7ZM150.3 83.8v.8l-.1.4c-.1.4 0 .8.1 1.2l.6 1 .2.5.1.4c0 .6.2 1.1.3 1.7.1.5.3 1 .6 1.4l.3.2h.2l.7-.3.1-.1.1-.3c0-.5 0-1-.3-1.5-.5-1.6-1.2-3-1.6-4.7 0-.4-.1-1-.5-1.4 0-.2 0-.1-.2 0h-.2a.8.8 0 0 0-.4.7Z" fill="#464353"/><path d="m152.3 86.7.6 2.8 2.6-.7c0-.3-.2-.5-.3-.8l-.4-1.8-.5-1.4-.2-.8-.3-.8a5 5 0 0 0-.6-1c-.3 0-.7.2-.9.5l-.1.6V85l.1 1.7Z" fill="#00BAFC"/><path d="M155.5 99.2c.2.5 0 1.1-.2 1.7a13 13 0 0 0-.6 2.5v.7a6 6 0 0 1-.4.5c-.3.4-.3 1-.2 1.5l.2 1c0 .5.2 1 0 1.3.2 0 .4.2.4.5v.6c.2 0 .2.4.2.7l.2 1.4 1.2 5.5c1 .3 2 .6 3 .2a.6.6 0 0 0 .3-.4v-.3l-.4-1.5c-.2-.4-.2-.7-.2-1.1 0-.3.2-.6 0-.9l-.1-.2c-.3-.3-.1-.8-.1-1.1v-.3l-.2-.3c-.3-.7-.5-1.4-.5-2.2v-.6l-.4-.3a.5.5 0 0 0 .1-.8h.1v-.1c.1 0 .1-.1 0-.2v-.1l-.1-.1v-.3l.3-.5.4-1 .7-1.6.7-2 .5.4c.2 0 .3.3.4.4l.2.6c.1 1.1.8 2 1.1 3.2l.2.7.2.2v.3a1.6 1.6 0 0 0 .7 1.1l.7.6v.2c.2.2.5.2.5.4v.3h.2l.7.4c.8.4 1.2 1.4 1.8 2l.5.8c.3.4.4 1 .8 1.3l.4.2v.7c0 .2.2.5.5.4-.1.3-.1.6 0 .8.9 0 1.8-.4 2.5-1 .2-.2.4-.4.4-.7v-.1l-.2-.2c-.6-.3-.8-1.2-1.2-1.9l-1-1.6c-.9-1.3-1.4-2.7-2.6-3.5-.3-.2-.6-.3-.8-.6a5 5 0 0 1-.1-.6l-.1-.2h-.3l.1-.9v-.3l-.2-.4c-.3-.5-.5-1.1-.5-1.7v-1l-.2-.4-.1-.9v-1l-.2-1c-.3-1-.5-4.4-1.2-4.8-.8-.3-2 2.3-3 2.4-.3 0-.7 0-1 .2-.6.2-1 .6-1.5 1l-1.6 1.3-1 .7ZM148 76.6a2 2 0 0 1 1.5-.7c.6 0 1.2.1 1.7.4l.5.2.8.1c.3.2.4.7.4 1v1.1l.3.3v.6a5 5 0 0 1-.4-.4s-.3-.2-.4 0c-.2 0-.2.2-.2.3 0 .2 0 .4-.2.4a.3.3 0 0 1-.3 0c-.2-.4-.1-.9-.4-1.2l-.5-.5-.2-.4c-.1-.2-.3-.3-.5-.2v.2a.7.7 0 0 1-.9.2l-.3-.1a.4.4 0 0 0-.4.2c-.1.1-.2.3-.1.4l-.1.7-.2.1c-.2.1-.5.2-.6 0a.5.5 0 0 1-.2-.3l.2-.5v-1l.5-.9Z" fill="#464353"/><path d="M149.4 84.4v.3l.1.1c.4.2.8.4 1.3.4h.1a.3.3 0 0 1 .1.4v.4c0 .2.2.3.5.3s.6 0 1-.2l.3-.5c.6-1.5.8-3.1 1.5-4.6v-.3a.3.3 0 0 0 0-.2c-.2-.1-.3 0-.4-.2v-.2l-.5-.2-.3-.2a.4.4 0 0 0-.3.2c-.4.3-.6.8-.8 1.3l-1.1 2-.3-.6c-.2 0-.5.3-.6.4-.3.4-.5 1-.6 1.4Z" fill="#00BAFC"/><path d="M163.3 86.5h-12.6v12.6h12.6V86.5Z" fill="#fff"/><path d="m163.2 93.4-.6.7c-.2.2-.3.5-.3.8l.1.2H162.7l.4-.4.2-.1.2.3v.2c0 .1 0 .2-.2.3l-.2.4v.1a1.2 1.2 0 0 0 1 .2l.7-.4h.3a.6.6 0 0 0 .3-.4v-.5a5.3 5.3 0 0 0-.5-1.9c-.3 0-.8-.2-1 0-.2 0-.3 0-.3.2l-.4.3Z" fill="#A1616A"/><path d="M163.1 93.2c0-.3-.3-1 .2-1 0-.3-.4-.5-.3-.8v-.2c.1-.3-.4-.5-.3-.8l.1-.3c.1-.2-.4-.3-.4-.6V89c-.2-.3-.1-.7-.4-.8.2 0 .2-.2.2-.4l-.2-.4v-.2c0-.2-.4-.2-.4-.4v-.1c0-.2-.1-.2-.3-.3a1 1 0 0 1-.3-.1c-.1 0-.2-.2-.3-.1-.1.2-.3.1-.5 0-.3-.2-.5-.7-.6-1 0-.5 0-1-.2-1.4v-.4a2 2 0 0 1-.3-.4c0-.3.5 0 .7 0h.6l.6.3c.8.4 1.8.4 2.4 1l.7.5.3.1c.3.2.4.6.6.9v.2l.1.3V92.2l.1.3v1c-.8 0-1.5-.4-2.1-.2" fill="#464353"/><path d="M150.2 91.2a.6.6 0 0 0 0 .7v.2a.4.4 0 0 0 0 .4h.2v.4l.3.2a.3.3 0 0 0 .3 0 .3.3 0 0 0 0-.3l-.2-.2a.3.3 0 0 0 .3-.3.5.5 0 0 0-.2-.4V91.6c.2-.1.3-.5 0-.6h-.3l-.2.1h-.2Z" fill="#A1616A"/><path opacity=".1" d="M153.4 80a.5.5 0 0 0-.4.2l-.2.6c0 .6-.3 1.2-.6 1.7M154 80.5a.6.6 0 0 0-.6.3l-.1.5c0 .5-.3.8-.5 1.2" fill="#000"/><path d="M50 90.7c0 1-.8 2-.5 3l.1.7c.1.6-.2 1.1-.6 1.6l-2.9 4.3c0 .2-.2.3-.4.5-.5.5-1.4.4-2 .6-.6 0-1 .3-1.5.6v.1a1.2 1.2 0 0 0 1 .5v.3l-.5.4v.3l.6.4c1 .3 2-.3 2.8-1 .8-.8 1.3-1.7 2-2.4l1.3-1.2a14.8 14.8 0 0 0 2.6-3.7l.1-1 .7-1.1c.6-.7.9-1.6.8-2.4 0-1-.6-1.8-1.4-2-.3-.2-.5-.2-.8-.1a2 2 0 0 0-.8.6l-.6.7-.3.4a.5.5 0 0 0 .1.6" fill="#FBBEBE"/><path opacity=".1" d="M50 90.7c0 1-.8 2-.5 3l.1.7c.1.6-.2 1.1-.6 1.6l-2.9 4.3c0 .2-.2.3-.4.5-.5.5-1.4.4-2 .6-.6 0-1 .3-1.5.6v.1a1.2 1.2 0 0 0 1 .5v.3l-.5.4v.3l.6.4c1 .3 2-.3 2.8-1 .8-.8 1.3-1.7 2-2.4l1.3-1.2a14.8 14.8 0 0 0 2.6-3.7l.1-1 .7-1.1c.6-.7.9-1.6.8-2.4 0-1-.6-1.8-1.4-2-.3-.2-.5-.2-.8-.1a2 2 0 0 0-.8.6l-.6.7-.3.4a.5.5 0 0 0 .1.6" fill="#000"/><path d="m27.9 95 .5 1.6a12.8 12.8 0 0 0 2.4 3.9c.5.6 1 1.2 1.3 1.9v1.3c.1.5.2 1 .6 1.2l.9.3c.2 0 .5 0 .6-.2v-.2l.1-.7c0-.1 0-.3.2-.3s.2.2.3.3a.4.4 0 0 0 .3 0h.1l.1-.2v-.6a2.7 2.7 0 0 0-1.3-1.7c-.3 0-.5-.2-.7-.3l-.5-.7a41.7 41.7 0 0 1-3.7-7.4v-1.3c.1-.8 0-1.6-.1-2.3l-.3-.6c-.3-.5-1.1-.6-1.7-.2a1.8 1.8 0 0 0-.6 1.2c0 .5.2 1 .3 1.3l1.2 3.8Z" fill="#A1616A"/><path opacity=".1" d="m27.9 95 .5 1.6a12.8 12.8 0 0 0 2.4 3.9c.5.6 1 1.2 1.3 1.9v1.3c.1.5.2 1 .6 1.2l.9.3c.2 0 .5 0 .6-.2v-.2l.1-.7c0-.1 0-.3.2-.3s.2.2.3.3a.4.4 0 0 0 .3 0h.1l.1-.2v-.6a2.7 2.7 0 0 0-1.3-1.7c-.3 0-.5-.2-.7-.3l-.5-.7a41.7 41.7 0 0 1-3.7-7.4v-1.3c.1-.8 0-1.6-.1-2.3l-.3-.6c-.3-.5-1.1-.6-1.7-.2a1.8 1.8 0 0 0-.6 1.2c0 .5.2 1 .3 1.3l1.2 3.8Z" fill="#000"/><path d="M52.3 114.2c-.6.4-1.4.4-2.1.3l-.3.1c-.2.1 0 .3.1.4.4.4 1 .6 1.5.7h1.4a24.4 24.4 0 0 0 4.2-.2l.2-.2a1 1 0 0 0-.4-1 3 3 0 0 0-.9-.4l-1.1-.5c-.3 0-.7-.4-1-.3-.6 0-1.1.9-1.6 1.1Z" fill="#3F3D56"/><path d="M55.2 117c-.5.4-1.2.7-1.9.6-.2 0-.4 0-.4.3v.1c.2.4.6.7 1 .8H57l.7-.2a9.3 9.3 0 0 1 1.9 0l.2-.1V117c-.2-.7-.7-1.1-1.3-1.4-.5-.2-1.4-.4-2 0-.5.3-.8.9-1.3 1.3Z" fill="#3F3D56"/><path d="M53 101.7c-.6.6-1 1.4-1 2.1l.5 1.2.5 1.7.5 2.5v3l-.1.6s-.2 0-.2.2v.2c.3.6.9 1 1.5 1.3.6.3 1.3.4 2 .4h.2l.2-.3c.5-.9.2-2 .2-3l.2-2.6c0-.7-.2-1.4-.3-2a55.5 55.5 0 0 1 1.4-7.5l.8-1c.7-1 1-2.2.9-3.3a8 8 0 0 0-1.8.5c-.6.2-1.2.6-1.7 1l-1 1.2a104 104 0 0 0-2.9 3.8Z" fill="#464353"/><path opacity=".1" d="M53 101.7c-.6.6-1 1.4-1 2.1l.5 1.2.5 1.7.5 2.5v3l-.1.6s-.2 0-.2.2v.2c.3.6.9 1 1.5 1.3.6.3 1.3.4 2 .4h.2l.2-.3c.5-.9.2-2 .2-3l.2-2.6c0-.7-.2-1.4-.3-2a55.5 55.5 0 0 1 1.4-7.5l.8-1c.7-1 1-2.2.9-3.3a8 8 0 0 0-1.8.5c-.6.2-1.2.6-1.7 1l-1 1.2a104 104 0 0 0-2.9 3.8Z" fill="#000"/><path d="M56.4 96.8c.1.5.6.9.6 1.4 0 .4-.3.7-.5 1l-.5 1.2-1.4 2.9c-.3.4-.6.9-.6 1.4l.3.7.8 1.6.4 1 .2 1c.1 1 .6 2 .3 3 0 0-.1.2-.2.1.3.5.5 1 .5 1.7v.9l.1.3v.2c0 .3.2.5.4.5l.7.2c.4.1.7.5 1 .7.5.3.9.4 1.4.5h.1a.3.3 0 0 0 .1-.3 1.3 1.3 0 0 0-.4-1.1l-.2-.2V111l-.2-.7c-.2-.4-.1-.8-.1-1.3 0-.7-.2-1.5-.4-2.2 0-.3-.2-.5-.3-.8-.2-.2-.5-.3-.4-.6l.1-.2a1 1 0 0 0 .2-.7.3.3 0 0 0 .4-.2 5.8 5.8 0 0 0 3-3.3v-.3l.6-.4a4 4 0 0 0 1.4-1.4l.5-1 .1-.8v-1.5l-.1-.2c-.4-.4-.9-.7-1.4-.8h-1l-2.2-.3c-1 .1-2 .9-2.5 1.8-.2.4-.4.7-.8.7Z" fill="#464353"/><path d="M20.2 116.5c.2.1.5.2.7.1 0-.2.3-.2.5-.2h.3l.2.2h.3l1 .1h1.5l.2-.2c.1-.2 0-.4-.2-.6-.1 0-.4-.1-.5-.3-.4-.3-.5-.8-.6-1.2l-.6-.7-.5-.6c-.4-.3-.9-.3-1.4-.3-.3 0-.7 0-1 .3-.2.3-.1 1.1-.1 1.6 0 .6 0 1.2.2 1.8Z" fill="#514E7F"/><path opacity=".1" d="M20.2 116.5c.2.1.5.2.7.1 0-.2.3-.2.5-.2h.3l.2.2h.3l1 .1h1.5l.2-.2c.1-.2 0-.4-.2-.6-.1 0-.4-.1-.5-.3-.4-.3-.5-.8-.6-1.2l-.6-.7-.5-.6c-.4-.3-.9-.3-1.4-.3-.3 0-.7 0-1 .3-.2.3-.1 1.1-.1 1.6 0 .6 0 1.2.2 1.8Z" fill="#000"/><path d="M20.6 95.8c-.3 0-.4.5-.4.8 0 .4.3.7.5 1l1 2.7 1 2c.3.6.5 1.3.3 2 0 .4-.2.7-.3 1l-.2 1.2a21.4 21.4 0 0 0 0 4.3c0 .1.2.3.1.4l-.1.2c0 .1 0 .3.2.4l-.2.1a.5.5 0 0 1 .2.6c-.1 0-.1.2 0 .2l.2.3a.3.3 0 0 1-.2.4h-.5l-.9-.1-.2-.1a.8.8 0 0 1-.3-.6V111c0-2.6 0-5.2-.2-7.8 0-1-.3-2-.7-3l-.8-1.5a6 6 0 0 1-1-3.5l.2-.3h.2l.8.5c.4.2.9.4 1.3.4Z" fill="#464353"/><path opacity=".1" d="M20.6 95.8c-.3 0-.4.5-.4.8 0 .4.3.7.5 1l1 2.7 1 2c.3.6.5 1.3.3 2 0 .4-.2.7-.3 1l-.2 1.2a21.4 21.4 0 0 0 0 4.3c0 .1.2.3.1.4l-.1.2c0 .1 0 .3.2.4l-.2.1a.5.5 0 0 1 .2.6c-.1 0-.1.2 0 .2l.2.3a.3.3 0 0 1-.2.4h-.5l-.9-.1-.2-.1a.8.8 0 0 1-.3-.6V111c0-2.6 0-5.2-.2-7.8 0-1-.3-2-.7-3l-.8-1.5a6 6 0 0 1-1-3.5l.2-.3h.2l.8.5c.4.2.9.4 1.3.4Z" fill="#000"/><path d="m16.2 92.6-.5-.2c-.3 0-.5.2-.7.3l-.6.6a3.3 3.3 0 0 0-.7 3.2c.2.6.5 1.1.9 1.6l.7 1a170 170 0 0 0 3.4 4.8h.1v.5c0 .2.2.1.2.2v.1l-.1.2.1.2v.1a.3.3 0 0 0 0 .4c0 .7-.4 1.4-.4 2.2-.2 1.2.4 2.3.4 3.5l.1.4c.1.2.4.3.4.5l-.1.3v.4c0 .1 0 .3-.2.2l.3 1 2.4.2v-.7l-.2-.7a.8.8 0 0 1 0-.7.3.3 0 0 1-.2-.2v-.4l-.2-2 .3-1.5c.2-1 0-2.2.5-3.2.3-.6.7-1.2.3-1.8l-.6-.8a3 3 0 0 1-.3-.8c-.4-1.2-1-2.2-1.6-3.4l-.3-.9v-.8l-.1-1.5-.2-.6-.4-.3c-.8-.6-1.8-1-2.7-1.4Z" fill="#464353"/><path d="M19.2 117.5h.7c0-.2.3-.2.5-.2h.3l.2.2h.3l1 .1h1.4l.3-.2c.1-.2 0-.4-.2-.5l-.5-.4c-.4-.2-.5-.8-.7-1.2 0-.3-.3-.5-.5-.7l-.5-.6c-.4-.3-.9-.3-1.4-.3-.3 0-.7 0-1 .3-.3.4-.1 1.1-.1 1.6 0 .6 0 1.2.2 1.9Z" fill="#514E7F"/><path d="M45.3 98.7H32.7v12.6h12.6V98.7Z" fill="#fff"/><path d="M30.2 88.3a2.5 2.5 0 1 0 0-5 2.5 2.5 0 0 0 0 5Z" fill="#A1616A"/><path d="M27.9 86.6c-.4.3-.9.3-1.3.4-1 0-2 .3-2.9.8a1 1 0 0 0-.3.2l-.2.4v.8c0 .3 0 .6.2.8.3.7.9 1.3 1.5 1.8l.4.1c.3.1.6 0 1-.2h.8c.3.1.6.3.8.2.2 0 .3-.2.4-.4a14.2 14.2 0 0 0 1-2c.2-.6.7-1 1-1.6a.3.3 0 0 0 0-.3l-.2-.1-1-.8c-.2-.1-.5-.6-.7-.6-.2 0-.3.3-.5.5Z" fill="#A1616A"/><path d="M28 91.6h-1c-.8-.2-1.6-.3-2.3-.7-.2 0-.4-.2-.6-.4l-.2-.6V88a.3.3 0 0 0-.1-.1h-.2c-.3 0-.6.3-.8.6l-.5.3c-.3.1-.6.2-.7.4v.3c-.2.4-1 .3-1 .7l-.2.3-.4.1c-.5.1-.8.7-1.2 1l-1.2.4-.7.3a3 3 0 0 1-.7 0 .2.2 0 0 0-.2.1.2.2 0 0 0 0 .2 4.5 4.5 0 0 0 2.8 3.5h.2c.3.2.3.6.6.7a.5.5 0 0 0 .5 0l.4-.5c.2-.3.5-.4.8-.5.4 0 .7 0 1-.2l.2-.3.7-.4c.6-.2 1.3-.4 2-.4.6 0 1.3 0 2-.2l.3-.2c.2-.2.3-.3.3-.5.2-.7.3-1.3.2-2Z" fill="#514E7F"/><path d="M24.8 88h.5l.7-.1a1.6 1.6 0 0 1 1.5 1.1v.2a.1.1 0 0 1-.1 0l-.3-.5-.8-.5h-1.5l-.6.2a4 4 0 0 0-.4.1l-.3.2c-.2 0 0-.1 0-.2l.4-.3.9-.2Z" fill="#514E7F"/><path d="M26.4 95.3 27 97a12.8 12.8 0 0 0 2.4 3.9c.5.5 1 1.1 1.2 1.9l.1 1.3c0 .4.2.9.6 1.2l.9.3c.2 0 .5 0 .6-.2v-.3l.1-.6c0-.1 0-.3.2-.3l.3.2a.4.4 0 0 0 .3 0 .4.4 0 0 0 .2-.1v-.6a2.7 2.7 0 0 0-1.4-1.7l-.6-.3-.6-.7a41.4 41.4 0 0 1-3.6-7.4v-1.3c.1-.8 0-1.6-.2-2.3 0-.2 0-.4-.2-.6-.3-.5-1.2-.6-1.7-.2a1.8 1.8 0 0 0-.7 1.2 7890.2 7890.2 0 0 0 1.5 5Z" fill="#A1616A"/><path d="M33.8 84.1c0-.2-.2-.4-.4-.5l-.6-.4-.5-.5-.7-.4c-.5-.2-1.1-.3-1.7-.3a3 3 0 0 0-1.6.4 1 1 0 0 0-.3.3l-.1.4a8 8 0 0 1-.5 1.3 3 3 0 0 1-.8 1.3c-.4.4-1.1.6-1.4 1a.3.3 0 0 0 0 .4s0 .2.2.2c.8.5 1.4 1 1.7 1.7a2 2 0 0 1-.1 2c-.2.3-.4.5-.3.8.3.3 1.2.1 1.4.5v.4c0 .3.4.7.8.9l1.5.2c.1-.3.2-.6 0-1v-.2l.2-.2c.5-.5.4-1.2 0-1.8-.3-.6-.8-1.2-1-1.8 0-.4 0-.7.2-1l.5-.3c.3-.2.5-.5.6-.8.2-.4.2-1 .6-1.2.4-.3 1-.2 1.5-.4.4-.1.8-.7.8-1Z" fill="#464353"/><path d="M47.6 87.7a2.7 2.7 0 1 0 0-5.4 2.7 2.7 0 0 0 0 5.4Z" fill="#FBBEBE"/><path d="M50 84.9a3.5 3.5 0 0 0 2.2 1.5l-.2.8c-.3 1.2-.7 2.6-1.7 3.4a1.6 1.6 0 0 0-.3-1.2c-.2-.4-.5-.7-.9-1l-1.5-1.3-.1-.1v-.3c.2-.7.7-1 1.2-1.4l.6-.8c.3-.4.5 0 .7.4Z" fill="#FBBEBE"/><path d="M50.3 88.3v.6a.4.4 0 0 1-.5.3c0-.1-.1-.3-.3-.3a.4.4 0 0 0-.3.3v.6l.1.7c0 .3-.2.5-.1.7l.2.2a.7.7 0 0 1 0 1h2c0 .3.1.7.3 1a6.4 6.4 0 0 0 4.8 3.1.4.4 0 0 0-.1.6c.1.2.4.2.6 0 .2 0 .4-.2.6-.4l1.2-.3.8.1c.7 0 1.4-.5 2.2-.7.5-.2 1.1-.2 1.6-.5.2-.1.3-.4.3-.6a1 1 0 0 0-.3-.4l-.6-1.1c-.3-.8-.9-1.5-1.5-2a13.3 13.3 0 0 0-1.9-1.4l-.5-.2-.6-.7c-.4-.5-1-.7-1.6-1-.3-.3-.6-.7-1-.8L55 87c-.5-.2-.8-.6-1.3-.7l-1-.2c-.5 0-.9-.2-1.2-.4l-.4-.2c-.5-.2-.6.9-.6 1.2l-.3 1.6Z" fill="#3F3D56"/><path d="M50.9 91.8c0 1-.7 2-.5 3l.2.7c.1.6-.2 1.1-.6 1.6l-2.9 4.3-.4.5c-.6.5-1.4.4-2.1.6-.5 0-1 .3-1.4.6v.1a1.2 1.2 0 0 0 1 .5l-.1.3c-.2.1-.4.2-.4.4v.3l.6.4c1 .3 2-.3 2.8-1l2-2.4 1.3-1.2a15.3 15.3 0 0 0 2.6-3.7l.1-1c.1-.4.4-.7.7-1 .5-.8.9-1.7.8-2.5 0-1-.6-1.8-1.4-2-.3-.2-.6-.2-.8-.1-.4 0-.6.4-.9.6l-.5.7-.3.4a.5.5 0 0 0 0 .6" fill="#FBBEBE"/><path d="M52.4 87.7c-.4 0-.9 0-1.1.3l-.3.4c-.2.5-.5 1-.5 1.7l.2 1.4-.1 1.2A8 8 0 0 0 52 92l.9-.5c.4-.1 1.2.1 1.6.3l-.2-1 .1-.5.2-.3a1.5 1.5 0 0 0-.1-1.8c-.4-.4-1-.6-1.6-.6h-1" fill="#3F3D56"/><path d="M44 82.3v-.5c.4 0 .8-.3 1-.6.4-.4.6-.8 1-1 .5-.2 1 .1 1.5.4a4.7 4.7 0 0 0 2 .6c.4 0 .5.5.6.8l.1 1 .5.7c.3.7 0 1.5.3 2.1l-.8-.7c-.1-.1-.2-.2-.3-.1l-.1.2a.4.4 0 0 1-.6.2c-.2 0-.4-.3-.6-.5-.3-.4-.8-.8-1.3-1a1.7 1.7 0 0 0-1.5 0c-.4.3-.7.8-1.2.9-.6 0-1-1.3-1.2-1.8a.6.6 0 0 0 .2-.7h.5Z" fill="#464353"/><path d="M104.7 50.4a3 3 0 0 1-.8.2c.3-.2.5-.5.6-.8a3 3 0 0 1-.9.3 1.5 1.5 0 0 0-2.5 1v.4a4.2 4.2 0 0 1-3-1.5 1.5 1.5 0 0 0 .4 2l-.6-.3a1.5 1.5 0 0 0 1.1 1.5 1.5 1.5 0 0 1-.6 0 1.5 1.5 0 0 0 1.4 1 3 3 0 0 1-2.2.6c.7.5 1.4.7 2.2.7 2.7 0 4.2-2.2 4.2-4.2v-.2l.7-.7ZM99.4 82l.5 1.2 3.1 3.3 1.1-1 .7.7.7-.6v-1.4l.9-.8V81l-2.8-3-4.2 4Zm6.4-.7v1.3l-1.1 1V85l-.7-.7-1 .8-2.7-3 3.3-3.1 2.2 2.3Z" fill="#00BAFC"/><path d="m103.2 80.7.5-.5 1.4 1.4-.6.5-1.3-1.4Zm-1.2 1.1.5-.5 1.3 1.5-.5.5-1.3-1.5ZM41 101.1h-5.2a.3.3 0 0 0-.4.4v5.1l.1.3h2.8v-2.3h-.7v-.8h.8v-.6c0-.8.5-1.2 1.1-1.2h.8v.8h-.5c-.4 0-.5.2-.5.5v.5h.9l-.1.8h-.8v2.3H41a.3.3 0 0 0 .4-.3v-5.1a.3.3 0 0 0-.4-.4ZM86.2 64.2a1.2 1.2 0 0 1 1.2 1.2v2.4a1.2 1.2 0 0 1-1.2 1.2h-2.4a1.2 1.2 0 0 1-1.3-1.2v-2.4a1.2 1.2 0 0 1 1.3-1.2h2.4Zm0-.5h-2.4a1.7 1.7 0 0 0-1.7 1.7v2.4a1.7 1.7 0 0 0 1.7 1.7h2.4a1.7 1.7 0 0 0 1.7-1.7v-2.4a1.7 1.7 0 0 0-1.7-1.7Z" fill="#00BAFC"/><path d="M86.5 65.4a.4.4 0 1 1 0-.7.4.4 0 0 1 0 .7Zm-1.5.2a1 1 0 1 1 0 2 1 1 0 0 1 0-2Zm0-.4a1.5 1.5 0 1 0 0 2.9 1.5 1.5 0 0 0 0-3ZM161 91.1c0-.7-.5-1.2-1-1.2h-5.5c-.6 0-1.1.5-1.1 1.2a22.4 22.4 0 0 0 0 3.2c0 .7.5 1.3 1.1 1.3a59.2 59.2 0 0 0 5.4 0c.6 0 1.1-.6 1.1-1.3a23.7 23.7 0 0 0 0-3.2Zm-4.5 3.1v-3l2.2 1.5-2.2 1.5ZM81 34a3.4 3.4 0 0 0-1.4 6.5v-.7a1300 1300 0 0 0 .4-2.4c0-.5.3-1 .6-1s.5.3.5.6l-.3 1.2a.5.5 0 0 0 .5.7c.7 0 1-.9 1-1.9 0-.7-.4-1.2-1.3-1.2a1.6 1.6 0 0 0-1.7 1.6c0 .2 0 .5.2.6a.2.2 0 0 1 0 .2v.3a.1.1 0 0 1-.2 0c-.4-.1-.7-.6-.7-1.2 0-1 .8-2.1 2.5-2.1 1.2 0 2.1 1 2.1 2 0 1.3-.7 2.2-1.8 2.2a1 1 0 0 1-.9-.4l-.2 1-.3.7a3.4 3.4 0 0 0 3.3-.9A3.4 3.4 0 0 0 81 34Z" fill="#00BAFC"/><path d="m116.5 128-.3-1c0-.4 0-.8-.2-1.1v-1.2c0-.3.2-.5.3-.6.2-.4 0-1.7 0-1.7s-.8-1.8-.6-3c.2-1-1.5-5-1.5-5 0-.4 0-.8.2-1.1a.8.8 0 0 0 0-.3c0-.8-.6-2.2-.6-2.2v-2.7s.4-1.6-.2-3.7c-.2-.7-.4-1.3-.4-1.8v-.1l2.2-.4s-.8-3.1-1.3-3.7c-.5-.5-.9-2.2-.9-2.2s-.2-2.2.2-2.8c.4-.7.5-1.8.5-1.8s1-.7 1-1l.4-1.4v-.9c0-.2-.4-.9-.2-1.2a1 1 0 0 0 0-.4v-.9l-1-.5V85h-.2v-.5l.2-.7c.3-1.2-1.4-1.4-1.4-1.4a.9.9 0 0 0-.4-.4c-.3-.1 0 1.8 0 2 .2 0 .6.7.7 1v.6l-.2.5s.3.3.2.7l.1.8-.4-.2-.8.3s-.5 0-.4.1l-.3.6-1.2-1.2a2 2 0 0 1-.1-.6h.3l.4-.3.2-.5c0-.3.2-.7.4-1 .2-.5.3-1.1.2-1.7 0-.2 0-.4-.2-.6l-.8-.5c-.2-.3-.4-.6-.7-.7-.3-.2-.6-.2-.9-.1-.6 0-1.1.3-1.7.6l-.5.2a.8.8 0 0 1-.4-.3c-.2.2-.2.5-.2.8V82.8l-.1.2-.1.1-.2.4.1.2.2.2a2.3 2.3 0 0 0 1.1 2.3v.1c.2.4.3.9.3 1.3v.1s-2 0-2.5-.3c-.5-.4-1.2 1-1.2 1s-.7.1-.8 0h-1c-.3-.3-.8-.5-1.2-.5l-.9-.5a1 1 0 0 0-.5 0s-1-.8-1.2-1.3l-1.6-2v-.3h-.2c0-.3-.2-.5-.3-.7l.1-.4v-1.1s-.9-2-1.7-.5c0 0-1.4 1-.2 2.1 0 0 .5.2.5.4l.4.7v.4c-.2.1-.4.3-.3.4l.1.5s1.7 2.1 2 3c0 0 4.5 2.7 6 3l-.2 1.3-.1 1.1-.2 1.6s-.2 2-.5 2.2c-.2.3-.1 1.5-.1 1.5l-.4 1.6c-.2.8 0 1.7 0 1.7s-.8 1.7 1 .5h2v.5a67.7 67.7 0 0 0 .7 8.9v2.3c-.1.7 0 1.3.4 1.9l.1 1.2s.4.8.4 1.3V119.5l.3 1.9s0 1.3.2 1.4c.2 0-.2.8-.4 1v.3a.5.5 0 0 0 .2.5c.4.2.6.4.2.5h-.4v.7l.6 1h.2a.7.7 0 0 1-.4.3l-.2.1a.8.8 0 0 0-.6.3c-.2.2-.3.6 0 .9l1.5.5s2.5.3 2.3-.2c0-.6-.2-1-.2-1 0-.4 0-.7-.2-1v-.2s.2-1.2.5-1.5l-.1-.2h-.3s0-.6.2-.9v-.4l-.6-1.5s0-.6.2-.8c.1-.3 0-3.2 0-3.2s0-1.4-.2-2c-.1-.7.3-1.5.3-1.5v-.3l-.2-1.3v-2.6l.4-1 .6 1.6.7 2.1c.2.3.3.6.3 1v.1c0 .3 0 .6.2.8 0 0 .2 1 .5 1.2.3.3.3.8.3.8s.3 1.4.5 1.7l.1 1v2.3c0 .5 0 1 .3 1.5.5.6.9.5.9.5s-.3.8-.6 1v-.1l-.1.1v.2c0 .4.1.8.4 1.1l.2.2h-.1l-.2.1a.8.8 0 0 0-.6.3c-.2.3-.3.6.1 1l1.4.4s2.5.4 2.4-.2Z" fill="url(#b)"/><path d="m107 129-1.4-.6c-.3-.3-.2-.7 0-1a.7.7 0 0 1 .5-.2h.3l.2-.3.2-.5s1.5-.5 2 0l.1.3.2 1 .2 1c.1.5-2.3.2-2.3.2ZM113.8 128.2l-1.4-.5c-.3-.3-.2-.6 0-.9a.7.7 0 0 1 .5-.3h.2c.5-.3.5-.8.5-.8s1.5-.4 2 0v.2c.2.3.3.7.3 1l.2 1c.1.6-2.3.3-2.3.3Z" fill="#2D293D"/><path opacity=".1" d="m108.7 126.4.2.3-2.3.2.2-.5s1.5-.5 2 0ZM115.7 125.9v.4c-.4.6-2.1.5-2.6.2.5-.3.5-.8.5-.8s1.5-.5 1.9 0l.2.2Z" fill="#000"/><path d="m116 124-.3.6v1.6c-.4.6-2.5.4-2.7 0-.3-.3-.6-1.2-.3-1.4.3-.1.6-.9.6-.9s-.3 0-.9-.5c-.5-.7-.3-2-.2-2.4v-1.4s0-.8-.2-1l-.5-1.7s0-.5-.2-.8c-.3-.2-.5-1.2-.5-1.2l-.2-.8c0-.5-.3-1-.3-1l-.7-2.1-.6-1.6-.3.9v2.6l.1 1.6s-.3.8-.2 1.4c.2.7.1 2.1.1 2.1s.2 3 0 3.2v.8s.7 1.7.5 2c-.3.1-.2.8-.2.8s.5 0 .3.2c-.2.3-.4 1.5-.4 1.5l-2.3.3a5 5 0 0 1-.6-1c-.3-.7 0-.7.4-.7.3-.1.1-.3-.3-.5-.3-.3-.1-.8-.1-.8l.4-1c-.2-.1-.3-1.4-.3-1.4l-.3-2c.1-.5-.3-1.5-.3-1.5l-.1-1.2c-.4-.7-.6-1.5-.4-2.3v-2s-.6-3.6-.6-5.4a75 75 0 0 1 0-4.8l8.3-.8.2 1.2c0 .5.2 1 .4 1.8.6 2.2.3 3.7.3 3.7l-.1 2.7s.7 1.8.6 2.5a5 5 0 0 0-.2 1s1.7 4 1.5 5.2c-.2 1.1.5 3 .5 3s.2 1.2 0 1.6Z" fill="#464353"/><path opacity=".1" d="m111.1 114 2.6-.4s-1.5 1.5-2.6.3ZM113.3 111.1s.1 1-.4 1.3c0 0 1-.2.4-1.3ZM113.2 108.2s-2.2 1.8-3 1.6c-.7 0 3-1.6 3-1.6ZM108 114.8s-1.6.3-1.7 1c0 .6 1.7-1 1.7-1ZM108.3 122.9s-2.3.4-1.6.7l1.7.5s.7 0 0-1.2Z" fill="#000"/><g opacity=".1" fill="#000"><path opacity=".1" d="m106.2 124-.1-.1v-.2h-.1s-.2.6.2.8h.3c.3 0 0-.2-.3-.5ZM109.2 123.9v-.4l-.1.5v-.1ZM108.8 114.2l-.1.7.1-.4v-.3ZM114 113.2v-.2a5.1 5.1 0 0 0 0 .2ZM108.8 121.1v-.4.5ZM109.2 124.8l-.2 1.2-2.4.3a4.9 4.9 0 0 1-.6-1.2c-.1 0-.2.2 0 .6.2.4.3.7.6 1l2.3-.2s.2-1.3.4-1.5c.1-.1 0-.2 0-.2ZM106.1 121.3s0 1.3.3 1.4c0-.2.1-.4 0-.4-.2-.1-.2-1.5-.2-1.5s-.4-1.6-.3-2c.1-.4-.3-1.4-.3-1.4l-.1-1.3c-.4-.6-.6-1.5-.4-2.3V112s-.6-3.6-.7-5.4v-4.3 1a73.8 73.8 0 0 0 .6 9.2v1.9c-.2.8 0 1.6.4 2.3l.1 1.2s.5 1 .4 1.5c-.1.4.2 2 .2 2ZM113 125.7l-.3-.9c-.3.2 0 1 .3 1.4.2.3 2.3.6 2.7 0v-.5c-.6.6-2.4.4-2.6 0ZM116 123.5a4 4 0 0 0-.3.6v.3l.2-.4.1-.5ZM113.2 123.8l.2-.4s-.4 0-.9-.6c-.4-.4-.4-1.3-.3-1.8-.1.3-.3 1.7.2 2.3.4.4.6.5.8.5ZM112.2 119.5a10.5 10.5 0 0 1 0 1v-1.4l-.1-1c-.2-.3-.5-1.7-.5-1.7s0-.5-.3-.8c-.2-.2-.4-1.2-.4-1.2-.2-.3-.2-.6-.2-.9 0-.4-.3-1-.3-1l-.7-2-.6-1.6-.4.9v.3l.3-.8.6 1.6.7 2.1s.4.5.3 1c0 .3 0 .6.2.8 0 0 .2 1 .5 1.3.2.2.2.7.2.7l.5 1.7c.2.3.2 1 .2 1Z"/></g><path d="m113.8 83.8-.2.7V85.1h-.8L112 84c-.1-.1-.4-2.1 0-2l.4.4s1.6.2 1.3 1.4Z" fill="#FFCDD3"/><path opacity=".1" d="m113.7 85-.8.2-.1-.2a.7.7 0 0 1 .9-.1v.2Z" fill="#000"/><path d="m113.9 85.5-1.1.2v-.6a.7.7 0 0 1 .7-.2h.2l.1.3v.3Z" fill="#DCE6F2"/><path d="m96.6 84-1.2.5v-.2l-.4-.7c0-.2-.5-.4-.5-.4-1.2-1.2.2-2.1.2-2.1.7-1.5 1.6.5 1.6.5V83a4.4 4.4 0 0 1 .3.8Z" fill="#FFCDD3"/><path opacity=".1" d="m96.6 84-1.2.5v-.2l.8-.6h.3v.2Z" fill="#000"/><path d="m96.7 84.3-1.3.6v-.5s.7-.6 1-.6h.3v.5Z" fill="#DCE6F2"/><path d="M110.7 88.5s-5.6.7-4.6.3c.8-.2 1-.7 1.1-1.2 0-.4 0-.9-.2-1.3l-.5-1s4.3-2.3 3.4-.2l-.2 1 .1 1c.2.6.5 1 .9 1.4Z" fill="#FFCDD3"/><path opacity=".1" d="M110 85.1c-.2.3-.3.7-.3 1-.4.4-.9.3-1.4.3H107l-.5-1s4.3-2.4 3.4-.3Z" fill="#000"/><path d="M108.2 86.6a2.3 2.3 0 1 0 0-4.6 2.3 2.3 0 0 0 0 4.6Z" fill="#FFCDD3"/><path opacity=".1" d="M110.7 88.5s-5.6.7-4.6.3c.8-.2 1-.7 1.1-1.2a3 3 0 0 1 1.2-.6 1.7 1.7 0 0 1 1.4.1c.2.6.5 1 .9 1.4ZM113.9 85.5l-1.1.2v-.1a1 1 0 0 1 1-.4v.3ZM96.7 84.3l-1.3.6v-.3l1.3-.6v.3ZM112.9 102.6a35.2 35.2 0 0 1-8.6.6v-1l8.4-.8.2 1.2Z" fill="#000"/><path d="M115 102.1s-7 1.2-7.8 1c-.8-.2-4.7 0-4.7 0-1.8 1.2-1-.6-1-.6s-.2-.9 0-1.6l.3-1.7s0-1.1.2-1.4c.2-.3.4-2.2.4-2.2l.2-1.6v-1.1l.3-1.4c-1.4-.2-5.9-2.9-5.9-2.9-.2-.9-1.8-3-1.8-3 0-.2 0-.4-.2-.6 0-.3 1.7-.9 1.7-.9l1.5 2 1.2 1.2.5.1.9.5c.4 0 .8.1 1.2.4h.9c.1.2.8 0 .8 0s.7-1.4 1.1-1c.5.5 2.4.4 2.4.4.2-.3.8-.5 1.2-.7h1l.4.2 1.2 1.2.3-.6.4-.1.7-.3.5.2c-.1-.3-.2-.6-.1-.8 0-.3-.1-.5-.3-.7.7-1.7 2.2-.3 2.2-.3s.2 1 0 1.3l.2 1.2v1c0 .4 0 .9-.3 1.3 0 .3-1 1-1 1s0 1.1-.5 1.8c-.4.6-.1 2.8-.1 2.8s.4 1.7.8 2.3c.5.5 1.3 3.6 1.3 3.6Z" fill="#3F3D56"/><path opacity=".1" d="M104.7 89.3s-.2-.6-.4-.7l-.6-.2.1-.3s.8.2.9.5v.7ZM100.8 88l-1.8.3.9-.9.9.5Z" fill="#000"/><path d="M95.8 85.4a.2.2 0 1 0 0-.3.2.2 0 0 0 0 .3Z" fill="#575988"/><path d="M96 85.7a.2.2 0 1 0 0-.3.2.2 0 0 0 0 .3Z" fill="#575988"/><path d="M96.2 86a.2.2 0 1 0 0-.3.2.2 0 0 0 0 .3Z" fill="#575988"/><path d="M96.4 86.3a.2.2 0 1 0 0-.3.2.2 0 0 0 0 .3ZM114.7 86.3a.1.1 0 1 0 0-.3l-.2.1c0 .1 0 .2.2.2Z" fill="#575988"/><path d="m114.7 86.6.1-.2a.1.1 0 1 0-.2 0v.2ZM114.7 86.8h.1l-.1-.2a.1.1 0 1 0 0 .2Z" fill="#575988"/><path opacity=".1" d="M104.7 94.6s4.3 5.5 7.7 2.3c0 0-5.3.7-7.7-2.3ZM102.2 97.5s2.6 0 2.9.8v.8a.5.5 0 0 1-.5 0c-.3-.2-1.9-1-2.4-.6v-1Z" fill="#000"/><path d="M102.2 97.5s2.5 0 2.8.8v.7a.5.5 0 0 1-.5 0c-.2-.1-1.8-.9-2.3-.5v-1Z" fill="#3F3D56"/><path opacity=".1" d="m103.6 91.8 1 1.7 1.6 1.6s-2.6-3-2.6-3.3ZM102.7 88.7s.5 2 1.6 2.6l-1.6-2.6ZM102 89c0-.1-.3 1.4 1.5 2.3 0 0-.8-.3-1.4-2.4ZM113.5 87.7l1.2.8s-.6-.9-1.2-.8Z" fill="#000"/><path d="M107.6 86.4s0 .2.2.3h.2c.7 0 1.4.1 2-.2.2 0 .3 0 .4-.2l.2-.5c0-.3.3-.6.4-1 .2-.5.3-1.1.2-1.7 0-.2 0-.4-.2-.6-.1-.2-.5-.3-.7-.5-.3-.3-.4-.6-.7-.7-.3-.2-.6-.2-.9-.1-.6 0-1.1.3-1.6.6l-.6.2a.7.7 0 0 1-.4-.3c-.1.3-.2.6-.1 1v.1l-.1.2c-.2.2-.3.5-.2.7l.3.2v.6l.1.3a.3.3 0 0 0 .3 0h.3l.3.2c.3.4.4.9.6 1.4Z" fill="#2D293D"/><path opacity=".1" d="m110.5 86.1-.4.2a4.6 4.6 0 0 1-2.3.2.5.5 0 0 1-.2-.3c0-.5-.2-1-.5-1.4l-.3-.2h-.3a.3.3 0 0 1-.3 0v-.2l-.1-.6-.3-.3a.5.5 0 0 1 0-.4c-.2.2-.2.4 0 .6l.2.2v.6l.1.2a.3.3 0 0 0 .3.1h.3c.1 0 .2 0 .3.2.3.4.4.8.6 1.3l.1.4h.3c.7 0 1.4 0 2-.2l.4-.2V86ZM107.2 87.8s2.9.3 3.1 0h-3.1ZM112.8 86.6s1.6 0 2 .6l-2-.6Z" fill="#000"/></g><defs><linearGradient id="b" x1="105" y1="129" x2="105" y2="80.5" gradientUnits="userSpaceOnUse"><stop stop-color="gray" stop-opacity=".3"/><stop offset=".5" stop-color="gray" stop-opacity=".1"/><stop offset="1" stop-color="gray" stop-opacity=".1"/></linearGradient><clipPath id="a"><path fill="#fff" transform="translate(.6)" d="M0 0h176.9v130H0z"/></clipPath></defs></svg>