<svg width="300" height="225" fill="none" xmlns="http://www.w3.org/2000/svg"><g clip-path="url(#a)"><path d="m287.7 199.5 1.2-4.4c2-.9 4-1.6 6-2.2l.2 2 .6-2.2c2.6-.8 4.3-1 4.3-1s-2.4 8.9-7.3 15.8l-5.8 1 4.5.6c-.6.8-1.3 1.5-2 2.1-7.2 6.7-15.2 9.8-18 6.9-2.6-2.9 1-10.7 8.2-17.4 2.3-2 5-3.7 7.9-5l.2 3.8Z" fill="#E6E6E6"/><path d="m277 194.7-1.3-4.4 4.1-5 1.2 1.7-.7-2.3c1.9-2 3.2-3.1 3.2-3.1s2.6 9 2 17.3l-4.5 3.9 4.2-1.8-.6 2.9c-2.8 9.4-8 16.2-11.9 15.1-3.8-1-4.7-9.6-2-19 .9-3 2.4-5.9 4.2-8.4l2.2 3Z" fill="#E6E6E6"/><path d="M299.3 218.7H125v.7h174.3v-.7Z" fill="#3F3D56"/><path d="M8.2 88.3c-2.4-3.5-3.4-9.7 1-12.8 2.2-1.5 4.8-1.3 7.1-.7 3.2 1 6 2.9 8.4 5a68 68 0 0 1 7.6 8.1A170 170 0 0 0 90 133.4c4 1.7 11 4 14.6-.6 1.9-2.4 2-5.7 1.6-8.5-.6-3.3-1.9-6.4-3.2-9.4l-18-42.4c-1.5-3.3-3-6.5-4-10-1.2-3.1-2-6.5-2.1-10 0-3 .6-6.4 3-8.7 1.8-2 4.5-2.6 7-2.6 6.3 0 12.2 3.2 17 6.6 6 4.1 11.4 9.2 17.4 13.4A33.8 33.8 0 0 0 140 68c2.4.2 4.9-.1 7-1.4 2.1-1.3 3.6-3.4 4.3-5.7.8-2.7.7-5.6.3-8.3-.6-3.1-1.6-6.2-3-9-2.9-6.3-6.9-12-10.3-17.9a48 48 0 0 1-4.4-9.1c-.9-2.8-1.6-6-.7-9 1.8-6.2 9.2-3.8 13-2a60 60 0 0 1 7.2 4.2c.5.3 1-.5.5-.9-2.4-1.7-5-3.1-7.7-4.4-2.3-1-4.8-2-7.4-2-2.2.1-4.4 1-5.7 3-1.5 2.3-1.4 5.3-1 7.8.5 3.3 1.8 6.4 3.3 9.3 1.6 3 3.4 6 5.2 8.9 3.6 5.8 7.6 11.7 9.4 18.5 1.2 4.7 2 12.2-3 15.5-2.4 1.5-5.2 1.8-7.7 1.5-3-.4-6-1.4-8.7-2.6-12.6-6-21-18.3-34.5-22.9-4.6-1.5-11-2.5-15 1.7-2.1 2.2-3 5.2-3.1 8-.3 3.4.4 6.8 1.4 10 1 3.2 2.3 6.5 3.7 9.6l4.6 10.7 9.2 21.4 4.5 10.7c1.4 3.3 3 6.5 3.6 10 .6 3 .8 7-1.8 9.3-2 1.8-5 1.7-7.3 1.3-3-.6-6-1.8-8.7-3.1-3.2-1.6-6.2-3.3-9.3-5a164 164 0 0 1-41.6-34.8c-2.4-2.9-4.8-5.9-7.3-8.7a36 36 0 0 0-7.8-6.6 15.7 15.7 0 0 0-8.5-2.6A7.6 7.6 0 0 0 7.2 76a9.4 9.4 0 0 0-2 6c0 2.4.7 4.7 2.1 6.7.4.5 1.2 0 .9-.5ZM46.8 6.8H6.3v36h40.5v-36Z" fill="#E6E6E6"/><path d="M46.8 71.5H6.3v36h40.5v-36ZM176.9 6.8h-40.5v36H177v-36Z" fill="#00BAFC"/><path d="M176.9 71.5h-40.5v36H177v-36Z" fill="#E6E6E6"/><path d="M112.3 6.8H71.8v36h40.5v-36ZM112.3 71.5H71.8v36h40.5v-36Z" fill="#00BAFC"/><path d="M72 13.5A6.8 6.8 0 1 0 72 0a6.8 6.8 0 0 0 0 13.5ZM137.2 13.5a6.8 6.8 0 1 0 0-13.5 6.8 6.8 0 0 0 0 13.5ZM6.8 78.4a6.8 6.8 0 1 0 0-13.5 6.8 6.8 0 0 0 0 13.5ZM72 78.4a6.8 6.8 0 1 0 0-13.5 6.8 6.8 0 0 0 0 13.5Z" fill="#3F3D56"/><path d="M229.5 215.2s-9.4.8-8.5 4.2c1 3.4 8.5 2.9 8.5 2.9s5.8-.5 9 .5c3.1 1 6.7 0 7-1.7.2-1.7-1.7-3-1.7-3l-1.2-2.4-13.1-.5Z" fill="#2F2E41"/><path d="m204.7 139.6-1 3.9s-4.4 9 1 9c5.3 0 3.4-8.3 3.4-8.3l.4-3.9-3.8-.7ZM251.4 136.4l1 4s4.3 8.9-1 8.9-3.4-8.3-3.4-8.3l-.5-3.8 4-.8ZM226.2 70.6a10.4 10.4 0 1 0 0-20.8 10.4 10.4 0 0 0 0 20.8Z" fill="#9F616A"/><path d="M223 68.2s1.3 5.5.6 8.2c-.8 2.6 15-.5 15-.5s-5.6-9.2-5.4-9.4l-10.1 1.7Z" fill="#9F616A"/><path d="M225.5 74.4s-4.4-1.2-5.8.3c-1.5 1.4-10 5.6-10 5.6l5.9 35.6 25.2-5.6 4.3-33.7s-6.9-4-8-3.2c-1.2.8-11.6 1-11.6 1Z" fill="#D0CDE1"/><path d="m211.7 80.5-1.2-.6s-4.4.8-4.1 4.2l1.2 22.3-3.9 34.2 7 1.2 7-28.6-6-32.7ZM244.4 77.4l1.1-.7s4.5.9 4.2 4.3l-1.2 22.3 3.9 34.1-7 1.2-7-28.6 6-32.6Z" fill="#D0CDE1"/><path d="m215.8 112.2-1 14.8-3.1 29.5 4.6 61.3 16 .5-4.9-58.4 4.9-20 15.8-.7s1.1-23.1-7.8-30.4l-24.5 3.4Z" fill="#2F2E41"/><path d="m233.2 136.4-2.5 53.4-.8 27 14.2 1.5 3.6-79.4-5.5-5.6-9 3.1ZM230.8 46.4s-9.4-1.2-12 3.4c0 0-.8 3.3-3.2 4.6-2.5 1.2.5 5.3 1.2 6.5.7 1.2 2.6 8.2.5 10-2.2 1.6 3.8 6.5 3.8 6.5s3 3.8.5 6.7c-2.4 3 3.2 4 3.2 4s-1.2 8.1 1 6c0 0 1 18.6 10.1 7 9.2-11.6 13-17.2 9.2-21.8-3.9-4.6-1-8.7-1-8.7s1.3-2.4-1.4-6c-2.7-3.7-2.7-18.2-11.9-18.2ZM217.1 216.7s-9.4.7-8.4 4.1c1 3.4 8.4 3 8.4 3s5.9-.6 9 .4c3.2 1 6.8 0 7-1.7.3-1.7-1.7-2.9-1.7-2.9l-1.2-2.4-13-.5Z" fill="#2F2E41"/></g><defs><clipPath id="a"><path fill="#fff" d="M0 0h300v224.6H0z"/></clipPath></defs></svg>