<svg width="300" height="278" fill="none" xmlns="http://www.w3.org/2000/svg"><g clip-path="url(#a)"><path d="M18.2 22.1A18.2 18.2 0 0 0 0 40.3v209.5A18.2 18.2 0 0 0 18.2 268h153.7a18.2 18.2 0 0 0 18.1-18.2V40.3a18.2 18.2 0 0 0-18.2-18.2H18.3Z" fill="#3F3D56"/><path d="M180.6 35H9.5v220h171V35Z" fill="#fff"/><path d="M158.2 74.5H31.8v8.3h126.4v-8.3ZM158.2 96.6H31.8v8.3h126.4v-8.3ZM158.2 118.8H31.8v8.3h126.4v-8.3ZM158.2 141H31.8v8.2h126.4V141ZM158.2 163H31.8v8.4h126.4V163ZM158.2 185.2H31.8v8.3h126.4v-8.3ZM158.2 207.3H31.8v8.3h126.4v-8.3Z" fill="#00BAFC"/><path d="m160 21.1-125.3 23 29.5 161 125.3-22.9L160 21.1Z" fill="#E6E6E6"/><path d="M148.9 53 56.3 70l1.1 6L150 59l-1.1-6ZM151.9 69.2l-92.6 17 1.1 6 92.6-17-1.1-6ZM154.8 85.4l-92.5 17 1 6 92.6-17-1-6ZM157.8 101.6l-92.6 17 1.1 6 92.6-16.9-1.1-6ZM160.8 117.8l-92.6 17 1.1 6L162 124l-1.1-6ZM163.7 134l-92.5 17 1 6 92.6-16.9-1-6ZM166.7 150.3 74 167.2l1.2 6 92.5-16.9-1.1-6Z" fill="#00BAFC"/><path d="m248.7 197.4-35.5 6.4 8.4 45.6L257 243l-8.3-45.6Z" fill="#E6E6E6"/><path d="m245.5 206.4-26.1 4.8.3 1.7 26.2-4.8-.4-1.7ZM246.4 211l-26.2 4.8.3 1.7 26.2-4.8-.3-1.7ZM247.2 215.6l-26.2 4.7.4 1.8 26.1-4.8-.3-1.7ZM248 220.1 222 225l.3 1.8 26.2-4.8-.3-1.8ZM249 224.7l-26.3 4.8.3 1.7 26.2-4.7-.3-1.8ZM249.7 229.3l-26.1 4.8.3 1.7L250 231l-.4-1.7ZM250.6 234l-26.2 4.7.3 1.7 26.2-4.8-.3-1.7Z" fill="#fff"/><path d="M126.7 11.5h-15v-3a8.4 8.4 0 0 0-8.5-8.5H86.9a8.4 8.4 0 0 0-8.5 8.4v3.1h-15a8.4 8.4 0 0 0-8.5 8.5v23.4H135V20a8.5 8.5 0 0 0-8.4-8.5ZM89.6 239c2.5-1.6 5-3.4 8-4.2 2.7-.7 5.8-.5 8 1.5 1.7 1.6 2.4 4 1.1 6.1a3.9 3.9 0 0 1-2.6 1.9 3.1 3.1 0 0 1-2.8-1c-.6-.8-1-2-.7-2.9.4-1 1.4-1.7 2.4-2 1.1-.4 2.3-.6 3.5-.7l4.9-.7 20-2.7 22.3-3.1a.7.7 0 0 0 .5-.8.7.7 0 0 0-.8-.5l-44.4 6-4.8.7c-1.3.2-2.5.7-3.5 1.5-2.1 1.7-2 4.6 0 6.4 2 1.8 4.8 1.5 6.6-.5a6 6 0 0 0 .4-7.3c-1.9-2.9-5.3-4-8.6-3.6-3.9.5-7 2.7-10.2 4.8-.7.5 0 1.7.7 1.2Z" fill="#3F3D56"/><path d="m245.3 187.8.5 4.6s-2.8 10.1 3.2 10.1 1.4-10.1 1.4-10.1l.4-3.7-5.5-1ZM287.2 172.4l-2.1 4.1s-7.8 7-2.8 10.3c5 3.3 6.7-7.8 6.7-7.8l2.4-2.8-4.2-3.8Z" fill="#A0616A"/><path d="m252.7 192 6.4 43.8 3.3 31.3s2.7 7 12 1l-1.4-18-1-16.2s-.9-15.7-1.8-18.4c-1-2.8.5-12 .5-12l3.7-15.3-21.7 3.7Z" fill="#2F2E41"/><path d="m263.3 266.2-3.7 4.2s-5.5-1.9-7 1.8c-1.3 3.7 10.7 4.6 10.7 4.6s12.4 1 12.4 0-.3-8-2-8.4l-10.4-2.2ZM270.2 189.6l6.5 46.2 3.2 31.3s2.8 7 12 1l-1.4-18-1-16.2s-.8-15.7-1.8-18.4c-.9-2.8.5-12 .5-12l-1-17-17 3.1Z" fill="#2F2E41"/><path d="m280.8 266.2-3.7 4.2s-5.5-1.9-6.9 1.8c-1.4 3.7 10.6 4.6 10.6 4.6s12.5 1 12.5 0-.4-8-2-8.4l-10.5-2.2Z" fill="#2F2E41"/><path d="M256.4 116.8a9.7 9.7 0 1 0 0-19.4 9.7 9.7 0 0 0 0 19.4Z" fill="#A0616A"/><path d="m263.5 111.5 4.2 6.9L257 123l-1.4-8.3 7.8-3.2Z" fill="#A0616A"/><path d="M268.8 117.7s-9.7-1-13.3 5l-9.1 7a5.2 5.2 0 0 0-2 4.8l7.8 59.7 11.6-.4 18.9-3.7 5.5-1.4-2.8-24.4s-3.2-9.7.5-16.2l-1.8-22.6-13-5-2.3-2.8Z" fill="#575A89"/><path d="m247.2 131.5-.7-1.1s-1 0-1 1.8L244 174l-.4 15.2 8.7.9 3.3-28.6-1.4-19-7-11ZM277.6 124.6l6.5 1c2.5 2.6 4.6 5.5 6.4 8.7 2.8 5 11 14.7 9.2 22.1-1.8 7.4-7.3 20.8-7.3 20.8l-8.8-3.7s7-16.2 6.4-17.5c-.4-1.4-6-9.7-6-9.7l-6.4-21.7Z" fill="#575A89"/><path d="M249.7 101.8s-7.9-.5-2.8-5.6c0 0 4.2-1.8 6-.9 0 0 2.8-1.8 2.8-1 0 0 9.7-2.7 11 7 1.4 9.7-.9 14.3-.9 14.3l-6.4-.5s1.4-7.8-3.7-6.9c0 0-4.2 1.4-4.6 0-.5-1.4-1.4-6.4-1.4-6.4Z" fill="#2F2E41"/><path opacity=".2" d="m253.4 189.4 4.1-27.7-2.7-17 .9 18.5-2.8 26.2h.5Z" fill="#000"/></g><defs><clipPath id="a"><path fill="#fff" d="M0 0h300v278H0z"/></clipPath></defs></svg>