<svg width="300" height="172" fill="none" xmlns="http://www.w3.org/2000/svg"><g clip-path="url(#a)"><path opacity=".1" d="M180.3 123.8c5.8-.3 13-4.2 18.6-6a876.8 876.8 0 0 1 97-24A47 47 0 0 0 280.4 75l.2-5c0-26-20.7-47-46.4-47-7.9 0-15.6 2-22.5 5.9a123.8 123.8 0 0 0-67.8-19.2c-36.8 0-69.1 14.6-87.4 36.6l86 14.5 52.9 9c-60.2 1.7-120.6 3.5-180.6-.7a47.6 47.6 0 0 0-6.9 60l.1 2.9 4.4 1.1c21.2 4.5 42.6 8.3 64.2 11.3-16 9.8-35.2 11.2-53.5 15.3a53.6 53.6 0 0 0 34.1 11.8h197.5c21.4 0 38.7-14.9 38.7-33.3a47.3 47.3 0 0 0 6.3-17.2c-39.5 3.8-79.6.5-119.4 2.7Z" fill="#00BAFC"/><path opacity=".1" d="M300 113.2a47.2 47.2 0 0 0-20-38.6 46.7 46.7 0 0 0-46.2-52c-7.8 0-15.5 2-22.4 5.9a123.8 123.8 0 0 0-67.8-19.2c-42.1 0-78.4 19.2-94.5 46.6h-2.7c-25.6 0-46.4 21-46.4 47 0 9.2 2.6 18.2 7.6 25.9C7.6 152.2 29.7 171 57 171h197.5c21.4 0 38.7-14.9 38.7-33.2 4.5-7.5 7-16 6.9-24.7Z" fill="#00BAFC"/><path d="M245 84.4a3 3 0 0 0-1.3-.6l-1.5-.2-6.4-1h-2a2.5 2.5 0 0 0-1.7.8l-.3.9c0 .3.1.6.3.8l.1.4.3.9v.2c0 .4.2.8.1 1.1 0 .3-.3.5-.5.7a1.1 1.1 0 0 0 0 1.2c.1.4.5.6.6 1 .1.4-.2.8-.6 1.2l-1.6 2-.3.7c0 .4.5.8.4 1.3 0 .3-.4.5-.7.7-1.2.8-2 2-2.1 3.3-.3-2.1-1.2-4.1-2.6-5.8-.3-.4-.8-.9-1-1.4v-.7c-.3-.7-1.2-1-1.5-1.7-.3-.4-.3-1-.6-1.4-.3-.4-.8-.5-1.1-.9l-.4-.8a1.8 1.8 0 0 0-.6-.6.4.4 0 0 0 .2-.4c0-.3-.4-.5-.6-.6l-1-.6.9-.8c.3-.4.4-1 .3-1.5a2 2 0 0 0-.5-1.2l-.5-.5c-.4-.5-.6-1.1-.8-1.7-.2-.8-.6-1.6-1.3-2l-1.1-.5c-.4-.2-.6-.6-.5-1 0-.3.3-.5.5-.7a1.3 1.3 0 0 0-.4-1.8c-.2-.2-.4-.3-.4-.5a.8.8 0 0 1-.7-.6v-1l.3-1.4a1 1 0 0 0 .7 0l.8 1c.8 1 1.4 2 1.8 3.2.2.4.3.9.7 1.1l.4.2.4.4 1 1.3v.1l.2.1c1 .3 2 .5 3 0 .7-.5 1-1.5 1.7-2 .4-.5 1-.9 1.2-1.5l-.5-.2c.2 0 .3-.2.5-.4l.7-.8.5-1.2 1.5-4.3.8-2 1-2.2A28 28 0 0 0 233 56c0-.4-.4-.8-.7-1.1l-1.1-1a1.8 1.8 0 0 0-1.4-.2c-.7.2-1.1 1-1.3 1.6l-.1 2.1c-.1 1-.5 2-.5 3l-.1 1.8c-.1.7-.4 1.5-.8 2.1-.9 1.6-2 3-3.4 4.2l-.5.4v-.3a2 2 0 0 0-.3.1v-.4c-.2-.6-1.2-.8-1.3-1.4v-.5c-.1-.5-.5-1-.6-1.6-.2-.5 0-1-.3-1.5l-.7-.8c-.3-.3-.5-.7-.7-1.2v-.4c0-.3 0-.6-.2-.9-.2-.6-.8-1-1-1.5-.2-.5-.1-1-.5-1.4-.1-.2-.3-.3-.6-.4-1.2-.5-2.4-.8-3.7-1-.7 0-1.5 0-2-.5-.7-.6-.7-1.7-1.4-2.1-.6-.4-1.5-.1-2 .4l-.2.3v-1.3a5.2 5.2 0 0 0 2.9-2.3v.1c0 .2.2.4.4.4l.3-.1a2.7 2.7 0 0 0 1-1.1l.2-1v-.8a5.8 5.8 0 0 1 .4-1v-.2a6 6 0 0 0 .3-1.7v-.3a2.8 2.8 0 0 0-.9-2c-.4-.3-1-.4-1.4-1-.2-.3-.2-.7-.3-1.1a2.6 2.6 0 0 0-2.1-1.9c-.6 0-1.2.1-1.6.5l-.7.7c-.4 0-.7-.2-1-.5l-.7-.8a1.9 1.9 0 0 0-1.8-.4 2.2 2.2 0 0 0-1.4 1.6c-.1.5-.1 1.1-.4 1.6l-.9.8-.3.7V43.5a1.8 1.8 0 0 0 1 1.2h.3l.3.1h.2a5.2 5.2 0 0 0-.2 4.7v.2l.1 3.1c0 .4 0 .9-.2 1.2l-.4.3.5-.5c-.4-.4-1-.4-1.5-.4-1 0-2 .4-2.9.9-.6.3-1.2.8-1.8.7-.4 0-.8-.3-1.2-.2l-.6.4-.5.1c-.4-.5-1-.8-1.6-1.2l-1.5-1.7-2.5-3c-.7-1-1.4-1.9-1.6-3v-.3l.2-1.6v-.4c0-.2-.4-.3-.6-.4v-.6c.2-2.3 0-4.5.5-6.8.2-.8.5-1.7 1-2.3 1-1 2.7-1.2 3.4-2.3.6-1 .4-2.3-.4-3.2a4 4 0 0 0-3.1-1.1c-.3 0-.6 0-.9.2a2 2 0 0 0-.5.9l-1.2 2.7-.8 2.2c-.3 1.1-.4 2.3-.6 3.5 0 .9-.6 2-1 2.8l-1 2.8-.5 1.6-.2.1-.3.6c-.3.3-.7.4-1 .8-.2.3-.2.8.1 1h.4c.4.2.5.6.5 1 0 .5-.3.8-.3 1.3 0 .7.3 1.4.7 2l1.4 1.8 1.2 1.2c1.4 1.5 2.5 3.2 3.8 4.8A10.5 10.5 0 0 0 189 61l2.1 1.4.9.4h.3v.2c.2.7.6 1.3.6 2v2.1c0 .7.2 1.3.3 2 0 1.2-.3 2.4-.6 3.7-.4 1.7-.7 3.5-1.5 5.1-.3.5-.6 1-.6 1.4v.2l-.3.2-.4.2c-.5.4-1 .7-1.2 1.3-.2.4-.1 1-.3 1.4-.2.5-.7.8-.8 1.2v1l-.1.6v.2c0 .2.2.4.3.5l.3.2.4.2.4.2.4.2.4.1.3.1h2.1l.4-.1.4-.1 1.2-.6.8-.5.6-.2a3.4 3.4 0 0 1 2.3-.1l.7 3.8 1-.6a2.4 2.4 0 0 0 0 1l-.1.8-.4.3v.4a.7.7 0 0 1-.6.6 1 1 0 0 1-.4 1.2l-.3.2-.2.4a7 7 0 0 1-2 3.4c-.4.3-.8.6-1 1l-.5.9-2.1 5.1c-.4 1-.8 2-1 3-.3 2.8-2.8 5.2-2.3 8 0 .7.4 1.4.8 2 .5.6 1.3 1 2.1 1.2 2 .8 4.2 1.2 6.3 1.7l3.3.6 2 .4 2.4.1c.5.2 1 .4 1.5.4.4 0 1 0 1.2.3.2.4 0 .8.3 1.1.4.5 1.3 0 1.7.5l.3.6.3.3v.5a2429.1 2429.1 0 0 0-1.6 6.7c0 .6.4 1.1 1 1.3.4.1.8 0 1.2-.1l1-.7c.7-.5 1.2-1 1.6-1.6 1.3-2 .9-4.6 1.8-6.8.6-1.4 1.8-2.6 2.2-4.1v-1c-.1-.4-.7-.7-1.2-1-.5 0-1-.2-1.4-.3h-.3a2 2 0 0 1-.6-.8v-.5a.5.5 0 0 0-.5-.2h-.9c-.6 0-1-.6-1.5-.8-.5-.3-1-.2-1.6-.2h-.6l-.6-.4a2.6 2.6 0 0 0-2.4-.5l-.7.2c-.6 0-1-.5-1.3-.9-1-1-2.5-1.2-3.8-1.8a.9.9 0 0 1-.4-.4c-.1-.3.2-.7.5-1l2.1-1.7c2.4-2 5.3-3.5 6.4-6.3.1-.4.3-.8.6-1.1l.3-.3c.4-.3 1-.4 1.6-.3.6.2 1.3.4 1.9.8a36 36 0 0 1 5.2 4c1.4 1.2 2.5 2.8 3.8 4.2 1.3 1.4 2.8 2.7 4.5 3.4 1.8.7 4 .7 5.5-.5 1.8-1.3 2.3-3.6 2.8-5.8 1-1 1.3-2.4 1.7-3.6l1-2.4 1-3c.4-1 .6-2 .7-3 .2-1.6-.3-3.3.2-4.9.6-.1 1.1-.4 1.7-.6 1-.3 1.9-.3 2.8-.3.4 0 .7 0 1-.2.3-.3.4-.7.4-1.1 0-1 0-2.2-.8-2.8Zm-38-44.7a2 2 0 0 1-.7 0h.7Z" fill="url(#b)"/><path d="m208 56.3-1 .5-2 .7a7 7 0 0 1-3 .6c-.6 0-3.2-.5-3.6-1-.6-.6 1.5-1.7 2.2-2.3l.4-.4c.3-.3.3-.8.2-1.2a18 18 0 0 1 0-3.8c.3-1.2 1.4-.7 2.3-.4 1 .3 2 .8 3 1.3.4.2.6.4.8.7.4.5.3 1.3.2 2 0 .6 0 1.2.3 1.6l.5.5a1 1 0 0 1-.3 1.2ZM182.4 37.4l.6-3.6.8-2.1L185 29c0-.4.3-.6.5-.9l1-.2a4 4 0 0 1 3 1.1c.8.9 1 2.2.4 3.2-.7 1.1-2.3 1.3-3.3 2.3-.6.6-.9 1.5-1 2.3-.6 2.2-.4 4.5-.5 6.8 0 .7-.2 1.5-.8 1.8-.4.2-.8.3-1.2.2h-1.7c-.3 0-1.4.3-1.5 0-.4-.3.4-2.2.5-2.7l1-2.7c.4-.8 1-2 1-2.8Z" fill="#BE6F72"/><path d="M217.9 119.7c-.4 1.6-1.6 2.7-2.2 4.2-1 2.1-.5 4.8-1.8 6.7-.4.6-1 1.2-1.5 1.6l-1 .7c-.5.2-1 .3-1.4.2-.5-.2-.8-.8-1-1.4v-.6l.4-1.1a1762.2 1762.2 0 0 0 1.3-5c0-.6-.4-1.5-.2-2.1 0-.3.4-.5.5-.8l.4-1c.3-.8.4-1.6.9-2.2a5 5 0 0 1 1-1l1-.5h1l1.3.4c.6.2 1.1.5 1.3 1v1ZM245.8 87.5c0 .4 0 .9-.4 1.1-.3.2-.6.3-1 .2-1 0-1.9 0-2.8.3-.6.2-1.3.6-2 .7-1 .1-1.8-.4-2.7-.9l-2.5-1.2c-.5-.2-1.7-.4-2-1l-.2-.8-.1-.4-.3-.9c0-.3 0-.6.3-.8a2.5 2.5 0 0 1 1.7-1c.7 0 1.3 0 2 .2l6.4 1c.5 0 1 0 1.5.2.5 0 1 .3 1.3.5.8.7.8 1.8.8 2.8Z" fill="#3F3D56"/><path d="M240.1 89.2c-.8 1.6-.2 3.6-.4 5.4 0 1-.3 2-.7 3l-1 3-1 2.3c-.4 1.3-.8 2.8-1.7 3.7-.5 2.2-1 4.5-2.8 5.8-1.5 1.1-3.7 1.2-5.5.5-1.8-.7-3.2-2-4.5-3.4-1.3-1.4-2.4-3-3.8-4.3l-2.5-2-2.7-1.9c-.6-.4-1.3-.6-2-.8-.5 0-1 0-1.6.3l-.2.3c-.3.3-.5.7-.6 1-1 3-4 4.4-6.4 6.4l-2.1 1.8c-.3.2-.7.6-.5 1l.4.3c1.3.6 2.8.9 3.8 1.8.4.4.7.8 1.2.8l.8-.1a2.6 2.6 0 0 1 2.3.4l.7.5h.6c.5 0 1.1-.1 1.6.1.5.3 1 .9 1.5 1l1-.1a.5.5 0 0 1 .3.2l.1.4c.1.4.5.6.7 1 .4.4.4 1 .4 1.6-.1 1.9-1 3.6-2.3 4.9-.4.4-.9.6-1.4.7a1.3 1.3 0 0 1-1.4-.6c0-.2-.2-.4-.3-.5-.4-.5-1.3 0-1.7-.5-.3-.3-.1-.8-.3-1.1-.3-.4-.8-.3-1.2-.3-.5 0-1-.3-1.5-.4-.8-.2-1.6-.1-2.4-.2-.7 0-1.3-.2-2-.3l-3.3-.7c-2.2-.4-4.3-.9-6.3-1.6a5 5 0 0 1-2.1-1.3 4 4 0 0 1-.8-2c-.5-2.7 2-5.1 2.3-8 .1-1 .6-2 1-2.9a2278.6 2278.6 0 0 0 2.5-6l1-1a7 7 0 0 0 2-3.4l.3-.4.3-.2a1 1 0 0 0 .4-1.1.7.7 0 0 0 .6-.7v-.4l.3-.3c.2-.2.1-.5.1-.7v-.5c0-.6.3-1 .7-1.5.6-.6 1.5-.4 2.4-.6.8-.2 1.7-.4 2.5-.8 2.3-.9 4.7-1.4 7.1-1.6 2.5-.2 5 .2 7.2 1.1l1 .5.4.6.4.8c.2.4.8.5 1 .9.4.4.4 1 .7 1.4.3.7 1.2 1 1.4 1.6l.2.7c.1.6.5 1 1 1.5 1.3 1.7 2.2 3.7 2.5 5.8 0-1.4 1-2.5 2-3.3.3-.2.7-.4.8-.7 0-.5-.4-.9-.4-1.3 0-.3.1-.5.3-.7l1.6-2c.4-.4.7-.8.6-1.3-.1-.3-.5-.5-.7-.8a1 1 0 0 1 0-1.2c.2-.3.5-.5.6-.8v-1c0-.3.2-.6.5-.8.3-.3.7-.5 1.2-.7.7-.3 1.4-.2 2.2 0 1.2 0 2.6.3 3.3 1.4.4.6.6 1.6.3 2.3Z" fill="#65617D"/><path opacity=".1" d="M245.8 87.5c0 .4 0 .9-.4 1.1-.3.2-.6.3-1 .2.1-.5.8-.8.9-1.4a1.3 1.3 0 0 0-.3-1 4.7 4.7 0 0 0-2.4-1.4c-2.5-.9-5.2-1-7.8-.6a8 8 0 0 0-2.1.6l-.6.5-.3-.9c0-.3 0-.6.3-.8a2.5 2.5 0 0 1 1.7-1c.6 0 1.3 0 2 .2l6.4 1c.5 0 1 0 1.5.2.5 0 1 .3 1.3.5.8.7.8 1.8.8 2.8ZM217.9 119.7c-.4 1.6-1.6 2.7-2.2 4.2-1 2.1-.5 4.8-1.8 6.7-.4.6-1 1.2-1.5 1.6l-1 .7c-.5.2-1 .3-1.4.2-.5-.2-.8-.8-1-1.4v-.6h.1c.2.6.6 1.2 1.2 1.3a1.6 1.6 0 0 0 1.2-.4c.9-.7 1.4-1.8 1.9-2.8l.8-2.2.3-1.4c.5-2.1 2.2-3.9 2.6-6v-.6l-.2-.5-.2-.7c.5.2 1 .5 1.2 1v1ZM214 116c-.3.6-.7 1.2-1.3 1.6-.7.6-1.6 1-2.5 1.1h-1.3c-.6-.2-1-.8-1.6-1H206c-.8-.1-1.4-.7-2-1.2-2-1.4-4.4-1.9-6.4-3.3l-.2-.2v-.3c0-.9.2-1.7.6-2.5l1-1.6c1.8-2 3.5-4.2 5.5-6 .9-.7 1.8-1.4 3-1.7.5-.2 1.7-.4 2.4 0 0 0-.2 0-.2.2-.3.3-.5.7-.6 1-1 3-4 4.4-6.4 6.4l-2.1 1.8c-.3.2-.7.6-.5 1l.4.3c1.3.6 2.8.9 3.8 1.8.4.4.7.8 1.2.8l.8-.1a2.6 2.6 0 0 1 2.3.4l.7.5h.6c.5 0 1.1-.1 1.6.1.5.3 1 .9 1.5 1 .3 0 .6-.2 1-.1Z" fill="#000"/><path d="M189.8 80.4c-.5.3-1 .7-1.2 1.2-.2.5-.1 1-.3 1.4-.2.5-.7.8-.8 1.3v1l-.1.6c0 .3.3.7.6.9a5.3 5.3 0 0 0 4.8.5l2-1a4 4 0 0 1 2.1-.5l1.3.2a1.3 1.3 0 0 0 1.2-.3c.2-.2.2-.4.3-.7.3-1.4.2-3-.2-4.4l-1.2-4.3c-.3-1-.5-2.1-1-3.1-.3-1-1-2-2.1-2.4h-.3l-.1.1a8 8 0 0 0-1.8 3c-.5 1.3-.6 2.6-1 4-.1.4-.3 1.1-.7 1.5-.4.4-1 .7-1.5 1Z" fill="#3F3D56"/><path opacity=".1" d="M199.7 85c0 .3-.1.5-.3.7a1.3 1.3 0 0 1-1.2.3l-1.3-.3a4 4 0 0 0-2.1.6l-2 1a5.3 5.3 0 0 1-4.8-.5c-.3-.2-.6-.5-.6-1l.1-.5v-1c.1-.5.6-.8.8-1.3.2-.4.1-1 .3-1.4.2-.5.7-.9 1.2-1.2.5-.3 1.1-.6 1.5-1l.1-.2.7-1.4c.3-1.3.4-2.6.9-3.9a8 8 0 0 1 2-3.1h.2c1 .4 1.8 1.3 2.2 2.4.4 1 .6 2 .9 3.1l1.2 4.3c.4 1.5.6 3 .2 4.4ZM207.5 53a5.2 5.2 0 0 1-6.4-2.8l.1-.8c.3-1.2 1.4-.7 2.3-.4 1 .3 2 .8 3 1.3.4.2.6.4.8.7.4.5.3 1.3.2 2Z" fill="#000"/><path d="M205.9 53a5.2 5.2 0 1 0 0-10.5 5.2 5.2 0 0 0 0 10.5Z" fill="#BE6F72"/><path opacity=".1" d="M220.1 87c0 .4-.6.6-1 .5-1.6 0-3.1-.5-4.7-.4-2 .2-3.7 1.3-5.7 1.4h-2.3c-1 .3-1.8.8-2.8 1-.9 0-1.7-.3-2.6-.3-.6 0-1.2.2-1.7.5 0-.6.3-1 .7-1.5.6-.6 1.5-.4 2.4-.6.8-.2 1.7-.4 2.5-.8 2.3-.9 4.7-1.4 7.1-1.6 2.5-.2 5 .2 7.2 1.1l1 .5v.2Z" fill="#000"/><path d="m203.5 57.4-2.1-.8-1-.4-1-.3c-1.1 0-2 .6-2.6 1.5a8 8 0 0 0-1 3 79.6 79.6 0 0 0-.9 8c.1 3.2.8 6.4 1.6 9.6l.8 4.2.1 1.8.3 2 .7 3.8a5 5 0 0 1 2.6-1.1c.9 0 1.7.3 2.6.2 1 0 1.8-.7 2.8-.9h2.3c2-.1 3.8-1.2 5.7-1.4 1.6-.1 3.1.3 4.7.4.4 0 1-.1 1-.5s-.3-.6-.5-.7a28.1 28.1 0 0 1-6.4-5.3c-1.7-2.7-1.1-6.3-2.6-9-1.2-2.4 0-5.3 0-8 0-1.2 0-2.5-.3-3.7a16 16 0 0 0-.7-2l-1-2.7-.1-.2h-.2c-.7 0-1.3.1-1.7.5l-1.3 1.4c-.5.4-1.2.8-1.8.6Z" fill="#E3E8F4"/><path d="M207 55.9c0-.7.3-1.5.7-2 .5-.6 1.4-1 2-.5.7.4.7 1.5 1.3 2 .6.6 1.4.6 2 .7 1.3.1 2.6.4 3.8.9.2 0 .5.2.6.4.4.3.3.9.5 1.4.2.6.8 1 1 1.5.3.7 0 1.4-.2 2.1l-1 3.7c-.4 1.2-1 2.5-1.9 3.4-.4.4-1 .8-1.5.5l-.2 1.5v1a.8.8 0 0 0 .6.6c0 .2.3.3.5.4a1.3 1.3 0 0 1 .3 1.8c-.1.3-.4.4-.4.7-.2.4.1.8.5 1l1 .5c.8.4 1.1 1.2 1.4 2 .2.6.3 1.3.8 1.7l.5.5c.3.3.5.7.5 1.2s0 1-.3 1.6c-.6.7-1.5 1-2.4 1.3-1.4.5-2.5 1.6-3.8 2.4a4 4 0 0 1-1.7.8c-.8.2-1.7-.2-2.5-.3l-1.5.2-1.6.4c0-1.2-.6-2.5-1-3.6-.7-2.2-.8-4.5-.7-6.8.2-2.3.7-4.6 1.1-6.8.4-1.6.3-3.3.8-4.8s1.2-2.9 1.4-4.4c.4-2.5-1.3-4.6-.7-7Z" fill="#3F3D56"/><path d="m218.8 60.7.3.9c.2.4.4.9.7 1.2l.7.8.3 1.5c0 .6.5 1 .5 1.6v.5c.2.6 1.2.8 1.4 1.4V70.3l-.3.4a6 6 0 0 0-1.8 3c-.2 1.2-.4 2.4-.4 3.6l-1-1.4-.4-.4-.4-.2c-.4-.2-.6-.7-.7-1-.4-1.2-1-2.3-1.8-3.3-.5-.5-1-1-1-1.6v-.9a15 15 0 0 1 1.4-5l1.3-2c.2-.5.6-1.8 1.2-.8ZM193 62.4c0 .2 0 .4-.2.6a.8.8 0 0 1-.8.3l-.9-.4a1561.6 1561.6 0 0 1-3.3-2.2l-1.6-1.6c-1.3-1.6-2.4-3.3-3.8-4.8l-1.2-1.1-1.4-2c-.4-.5-.8-1.2-.7-2l.3-1.1c0-.4-.1-1-.5-1h-.2l-.2-.1c-.4-.2-.3-.7 0-1l.9-.8.3-.6.6-.3c1.6-.4 3.2-.5 4.7-.1.3 0 .6.1.6.4v.3a8.3 8.3 0 0 0-.1 2c0 1 .8 2 1.5 2.9a277.6 277.6 0 0 0 4 4.7c.6.4 1.3.8 1.7 1.3.3.5.2 1.1.2 1.6.2 1.7.2 3.3 0 5Z" fill="#3F3D56"/><path d="m226.3 73.3.7-.8.5-1.2L229 67l.8-2 1-2.1a28 28 0 0 0 2.1-6.6c0-.4-.4-.8-.7-1.1l-1.1-1a1.8 1.8 0 0 0-1.4-.1c-.7.2-1.1.8-1.3 1.5l-.1 2.1c-.1 1-.5 2-.5 3l-.1 1.8c-.1.7-.4 1.5-.8 2.1-.9 1.6-2 3-3.4 4.2l-1 1c-.3.4-.4.8-.5 1.2-.2.7-.1 1.4.2 2 .4.7 1.3 1 2 1.2 1.1.2 1.3-.1 2-.9Z" fill="#BE6F72"/><path d="M206 40.2a2.5 2.5 0 0 1 2.3-1.3 2.6 2.6 0 0 1 2 1.9c.2.3.2.8.5 1.1.3.5.9.7 1.3 1a2.8 2.8 0 0 1 1 2c0 .7-.2 1.5-.4 2.2a7 7 0 0 0-.3 1v.8a3 3 0 0 1-1.3 2l-.3.1c-.2 0-.4-.2-.4-.4-.4-1.2-.3-2.7-1.1-3.7a4 4 0 0 0-1.3-1l-.6-.1c-.3 0-.6 0-1 .3-.5.4-1 .6-1.7.8a2.2 2.2 0 0 1-1.9-.4c-.4-.3-.6-.8-1-1l-1.2-.4a1.8 1.8 0 0 1-.8-2.7l1-.9c.2-.4.2-1 .3-1.6a2.2 2.2 0 0 1 1.4-1.5 1.9 1.9 0 0 1 1.8.4l.8.8a2.1 2.1 0 0 0 1.9.5" fill="#3F3D56"/><path opacity=".1" d="M210.2 78.8a1 1 0 0 0-.2 1.1l3-.4c.7-.1 2 0 2.5-.7.8-1.2-1.8-1-2.3-.9-1 0-2.3.2-3 .9Z" fill="#000"/><path d="m185.6 45-.2 1.5c-.8.2-1.6 0-2.3-.3l-2.2-.8a.6.6 0 0 0-.8.2l-1.3 1.4h-.3c-.3-.2-.3-.7 0-1l.9-.8.3-.6.7-.3c1.5-.4 3-.5 4.6-.1.3 0 .6.1.7.4v.4Z" fill="#3F3D56"/><path opacity=".1" d="m185.6 45-.2 1.5c-.8.2-1.6 0-2.3-.3l-2.2-.8a.6.6 0 0 0-.8.2l-1.3 1.4h-.3c-.3-.2-.3-.7 0-1l.9-.8.3-.6.7-.3c1.5-.4 3-.5 4.6-.1.3 0 .6.1.7.4v.4ZM205.5 94.7c.3.2.8.4.9.7l-3-.7-1.6-.4c-.3-.1-1.3-.2-1.5-.4a49.4 49.4 0 0 1 2.4.2c1 .1 1.8.4 2.8.6ZM206.6 97.4l-1.3-.2-1.4-.4-2.8-.9c-.2 0-.8 0-.8-.3 0-.2.6-.3.8-.3.8 0 1.9.4 2.7.6 1 .4 2 1 2.8 1.5ZM204.7 92.3c-1-.2-1.8-.8-2.8-1l-.7-.1a.9.9 0 0 1-.3-.5 6.4 6.4 0 0 1 3 1c.2.2.6.6.8.6Z" fill="#000"/><path d="M223 68.9a4.6 4.6 0 0 0 3.3 5c-.1.7-.8 1-1.2 1.4-.7.7-1 1.6-1.8 2-.8.6-1.9.4-2.9.2l-.2-.2a6.8 6.8 0 0 1-.2-3.6c.2-1 .9-1.9 1.4-2.7.5-1 .5-1.8 1.7-2.1ZM199.6 53.8c-1 .1-2 .4-2.9 1-.6.2-1.2.7-1.8.6-.4 0-.8-.2-1.2-.1l-.6.3a.7.7 0 0 1-.7.1l-.2 3.6c-.1 1.4-.2 2.8.1 4.2.2.7.6 1.3.6 2v2.1c0 .7.2 1.3.3 2 0 1.2-.3 2.4-.6 3.6-.4 1.8-.7 3.6-1.5 5.2-.3.4-.6.9-.6 1.4v.2l-.7.4c-.5.3-1 .7-1.2 1.2-.2.5-.1 1-.3 1.4-.2.5-.7.8-.8 1.3v1l-.1.6c0 .3.3.7.6.9l1.6.7 1.6-6.2a50 50 0 0 0 4.5-11l.8-1.6c.3-.6.3-1.3.4-2l.6-2.4c.3-.9.6-1.7.7-2.6 0-1.3-.4-2.6.1-3.8l.8-1.2 2-2.5c-.4-.4-1-.4-1.5-.4Z" fill="#3F3D56"/><g opacity=".1" fill="#000"><path opacity=".1" d="M207 39.3h-.3.3ZM213 44.8l-.3 1.5a7 7 0 0 0-.3 1v.8a3 3 0 0 1-1.3 2l-.3.1c-.2 0-.4-.2-.4-.4-.4-1.2-.3-2.7-1.1-3.7a4 4 0 0 0-1.3-.9l-.6-.2-1 .3c-.5.4-1 .6-1.7.8a2.2 2.2 0 0 1-1.9-.4l-1-1-1.2-.4a1.8 1.8 0 0 1-1-1.2 1.8 1.8 0 0 0 .3 1.6l.7.4 1.2.4 1 1a2.2 2.2 0 0 0 1.9.4c.6-.2 1.2-.4 1.8-.8.3-.2.6-.3 1-.3.1 0 .3 0 .5.2.5.2 1 .5 1.3 1 .7.9.6 2.4 1 3.6.1.2.3.4.5.4h.3a3 3 0 0 0 1.2-2l.1-1 .3-1a6 6 0 0 0 .3-2.1v-.1Z"/></g><path d="m196.4 65.8-.2 2.4a49.8 49.8 0 0 1-34.7 42l-1.4-4.3a43.2 43.2 0 0 0 26.8-22.4c2.2-4.2 3.7-8.6 4.5-13.2H175v-4.5h21.4Z" fill="#00BAFC"/><path opacity=".1" d="M163.2 108.9a49.7 49.7 0 0 0 31.3-40.7l.1-2.4h1.9l-.2 2.4a49.7 49.7 0 0 1-34.8 42l-.2-.6 1.9-.7Z" fill="#fff"/><path d="m134.3 105.9-1.4 4.2-3.5-1.2a49.7 49.7 0 0 1-31.3-40.7l-.1-2.4h21.4v4.5h-16.5c.9 4.6 2.4 9 4.5 13.2a43.2 43.2 0 0 0 26.9 22.4Z" fill="#00BAFC"/><path opacity=".1" d="M131.2 108.9a49.7 49.7 0 0 1-31.3-40.7l-.2-2.4H98l.2 2.4a49.7 49.7 0 0 0 34.7 42l.2-.6a70 70 0 0 1-1.8-.7Z" fill="#fff"/><path d="M172 147v24h-49.6v-24l1.6-2.2a30.7 30.7 0 0 0 20.1-28.8h6.1l.2 2.4c.7 5.9 3.9 20.7 20 26.4l1.5 2.1Z" fill="#00BAFC"/><path opacity=".1" d="M172 147h-49.6v3H172v-3Z" fill="#000"/><path opacity=".1" d="M126.6 144.8a30.7 30.7 0 0 0 20.1-28.8h-2.6c0 .8 0 1.6-.2 2.4-.6 5.9-3.9 20.7-19.9 26.4l-1.6 2.1v24h2.7v-24l1.5-2Z" fill="#fff"/><path opacity=".1" d="M115 65.8h4.4v4.5h-4l-.5-4.5ZM134.3 105.9l-1.4 4.2-3.5-1.2a47 47 0 0 1-4.9-7.3c3 1.8 6.4 3.2 9.8 4.3ZM160.1 105.9c3.4-1.1 6.7-2.5 9.8-4.3-1.4 2.6-3 5-5 7.3l-3.4 1.2-1.4-4.2ZM179.4 65.8c0 1.5-.2 3-.4 4.5h-4v-4.5h4.4ZM150.4 118.4a17 17 0 0 1-6.4 0l.1-2.4h6.1l.2 2.4Z" fill="#000"/><path d="M115.5 58.4c0 33 14.2 59.8 31.7 59.8 17.4 0 31.6-26.7 31.7-59.8h-63.4Z" fill="#00BAFC"/><path opacity=".1" d="M121 58.4h-5.5c0 33 14.2 59.8 31.7 59.8 1 0 1.9 0 2.8-.2-16.1-2.7-28.8-28.3-29-59.6Z" fill="#fff"/><path d="M164 156.1h-33.6v8.7H164V156Z" fill="#3F3D56"/><path opacity=".1" d="M132 157.3h32v-1.2h-33.6v8.7h1.5v-7.5Z" fill="#fff"/><path d="M97.5 90.3c-.6-.2-4.2-3-4.4-4.3-.3-1.2 1.8-13.1 1.8-13.1h-.5v-.3L95 57s1.8-10.5-1.6-9.9c-3.5.6-1.3 10-1.3 10s-.4 4.6-.7 6c-.3 1.4-1.5 7-.6 8.7v.1s.2 6-1.3 6.8c-1.4.7-2 4.6-2 5l-.1-.1-1.1-1v-.1a5.8 5.8 0 0 0-1.9-9L84 72c-.7-1.4-4.5-3.4-7.2-3.4-1.2 0-2.2.3-2.6 1.3-.2.5-.1 1-.2 1.5a4 4 0 0 1-1.7 2.6l-1.1-1.1c-.9-.7-2.6-3-2.6-3s-5.5-5.6-5.9-7.1c-.4-1.5-5.8-10.8-7-9.2-1.3 1.6 4.1 8.7 4.1 8.7s1 2.5 1.8 3.4c.8.8 6.8 9.6 6.8 9.6l.3.6c-1.2.7-2.4 1.5-2.8 2.9-.6 2 .7 3.9 1.6 5.7 1.8 3.6 2 8.2-.3 11.5-2 2.8-5.6 4.2-9 5.4 1.7 1.3 3.7 2 5.8 1.9-.8 2.2-3.6 3-5.9 3.4 1.2 1.2 3 1.6 4.7 1.8.8.2 1.6.3 2.5.2H66.5c1.2-.3 2.4-1 3-2 .5-1 .7-2.2 1.7-2.7l.8-.2h5c1 0 2.3-.1 2.8-1 .3-.5.4-1 .4-1.5v-3.8c.4 2.3.7 5.9-.1 7.2-.7 1-1.5 1.9-2.5 2.6l-.6.7-.2.2-.1.2-.7 1.5v.4c0 .2-.7 1-.4 1.3-2 2.2-2.3 5.5-2.3 5.5l-3.4 5.2c-1.7 4.6-4.3 5-4.3 5s-6.2-4-6.4-4.3c-.1-.2-2.5-1.2-2.5-1.2-.3-.5-.7-.9-1.2-1.1-.8-.3-.9-1.6-.9-1.6 0-3-1.8-3.1-1.8-3.1-1.4-.2-2.4 0-3.3.5h-.2l-4.2.4c-4.4.3-5.4 3.1-5.4 3.1s-.6.6.2 1.3c.7.6 5.2 0 5.4 0a74.3 74.3 0 0 1 1.5-.1h.2l-.1 1.3c0 .8 2.3 1.3 2.3 1.3l7 6.3s4.5 2 7.3 4.9c2.9 2.8 5.4.4 5.4.4 3-.8 11.6-11.2 11.6-11.2A189.5 189.5 0 0 0 81 137c.4.8-.2 3.2-.4 4.2l-.2 2.6s-3.2 12.3-3 13.4a24 24 0 0 1-1.7 6.1v4.2h.4l-.1.2s2 .5 3.5.4c1.5-.2 4 1 4 1s.8.5 3.4.6c2.6.2 2.6-1 2.6-1-.3-1.9-4.4-2.5-4.5-2.5a12 12 0 0 1-1-.6v-.2c.5-1.8-2-2.5-2-2.5v-.5c1.7-.8 2-6.3 2-6.3l2.7-8c.3-1.2 0-2.9 0-2.9l.2-1.5.5-1.2c0-.5.3-1 .6-1.4.3-.4-.4-1.5-.4-1.5l.6-1.7v-2L90 129s1.7-8 1.1-10.7c-.6-2.7.7-4 .7-4l-.4.1.4-1 3.6.3v.1h1.2s-.4-5-.4-7 1.4-9.2 1.4-9.2.6-7 0-7.3Zm-15.7-5.8v.6l-.1.1h-.1l-.2.2c-.4-.2-.6-1.2-.8-1h-.2v-.2c.4.2.9.2 1.4.2v.1Zm11.8 23.2v.4-.4Zm-13 59.5-.4-.1h.5v.1Zm5-.7c-.2 0-.4-.2-.5-.3l.5.3Z" fill="url(#c)"/><path d="m95.3 102.8-3.2 8.3h.8l-3 2.3 5.4.7v-11.3Z" fill="#F86D70"/><path opacity=".1" d="m95.3 102.8-3.2 8.3-.8-.3-1.4 2.6 5.4.7v-11.3Z" fill="#000"/><path d="M90.3 108h5l1.8-15h-6.8v15Z" fill="#F86D70"/><path opacity=".1" d="M90.3 108h5l1.8-15h-6.8v15Z" fill="#000"/><path d="m80.6 96.6 1-.2 2.5-.4s7.5-1.7 9-1.8c1-.1 1.8-.4 2.7-.8l.6-.3-2.6-4.9-4.2-3S87 84.6 86 83a2.5 2.5 0 0 1-.4-2.4c.7-2-4 2-4 2V86.4a8.4 8.4 0 0 1-.9 3.3c-1.1 1.8 0 7 0 7Z" fill="#FBBEBE"/><path opacity=".1" d="M81.5 85h.1c.2 0 .3-.3.5-.3 1.5-.2 2.9-.5 3.8-1.5a2.5 2.5 0 0 1-.4-2.3c.7-2.1-4 2-4 2V85Z" fill="#000"/><path d="M75.8 79.1a5.7 5.7 0 0 0 5.7 5.8h.6a5.7 5.7 0 1 0-6.3-5.8Z" fill="#FBBEBE"/><path d="M74 70.4c-.2.5-.1 1-.2 1.6-.3 1.8-2.2 3-4 3.7-1.6.8-3.6 1.7-4.1 3.5-.6 2 .7 4 1.6 5.8 1.8 3.5 2 8-.2 11.3-2 3-5.6 4.3-9 5.5 1.7 1.2 3.7 2 5.7 1.9-.8 2.2-3.5 3-5.8 3.3 1.2 1.2 3 1.6 4.6 1.9 1.2.2 2.5.3 3.7 0 1.2-.2 2.4-.9 3-2 .5-.8.7-2 1.6-2.5a3 3 0 0 1 1.4-.2h3.9c1.2 0 2.7 0 3.3-1.1.2-.5.4-1 .4-1.5.1-2.6-.4-5.3.7-7.6.3-.7-1.7-1.9-1.5-2.6.7-2.6 1-4.6.9-7.3 0-2.1 1.4-4 2.5-5.7 1.1-1.7 2-4 1.2-5.9-1-2-8.5-5.1-9.7-2Z" fill="#3F3D56"/><path d="m79.2 166.4 1 .7.2.1 1.2.8 2.8.5 2.4-.2s.7-1.5-.4-1.4c-.3 0-.7-.1-1-.3h-.1a7.1 7.1 0 0 1-1.4-1l-.6-.5-4 1.3Z" fill="#FBBEBE"/><path opacity=".1" d="m80.2 167.1.2.1 1.2.8 2.8.5 2.4-.2s.7-1.5-.4-1.4c-.3 0-.7-.1-1-.3l.4.4c0 .4-1.8 1-1.8 1l-2.6-.6-1-.3h-.1Z" fill="#000"/><path d="M75.8 167.7s2.1.5 3.6.4a10 10 0 0 1 3.9 1s.8.5 3.4.6c2.6.2 2.6-1 2.6-1-.3-1.9-4.4-2.5-4.5-2.5l.4.3.7.6c0 .4-1.8 1-1.8 1l-2.6-.6-1-.3h-.1l-2.8-.6c-1.1 0-1.7.9-1.8 1v.1Z" fill="#3F3D56"/><path d="m42.1 120.6 1.1.9h1a70.7 70.7 0 0 1 4.1 0c.6.2 1.6-3.3 1.6-3.3l-1.1-.2-.4-.1H48l-1-.3-2.7.3-2 1.3-.3 1.4Z" fill="#FBBEBE"/><path opacity=".1" d="m42.1 120.6 1.1.9h.9a1 1 0 0 1-.6-.5c-.7-2 3-3 3-3h2.2l-.3-.1H48l-1-.3-2.7.3-2 1.3-.3 1.4Z" fill="#000"/><path d="M39.9 121.5c.6.6 5.1 0 5.3 0h-1a1.1 1.1 0 0 1-.8-.6c-.7-2 3-3 3-3h2l4-.2.3-1.2-3.5.3-4.1.3c-4.4.3-5.4 3.2-5.4 3.2s-.5.6.2 1.2Z" fill="#3F3D56"/><path d="m90.3 72.3.1.2 1 1.4 2.6.3v-1l.5-15.6s1.8-10.4-1.6-9.8c-3.4.6-1.3 9.8-1.3 9.8l-.6 6.1c-.3 1.4-1.5 6.9-.7 8.6ZM84.5 110.9l.7 1.3L87 115s3 1.1 3.8.3c.4-.5.8-2 1.2-3.4l.4-2-7.8 1Z" fill="#FBBEBE"/><path opacity=".1" d="m84.5 110.9.7 1.3.1-.2c.9-1 4.6-.2 6.6-.1l.4-2-7.8 1ZM46.7 121.4h1.6c.6.3 1.6-3.2 1.6-3.2l-1.5-.3 4.1-.2.2-1.2-3.4.3c-.5.3-.9.6-1.2 1-1 1.2-1.3 2.5-1.4 3.6ZM79.2 166.4l1.2.8c1.7-.3 3.3-.8 3.5-1.6l-.6-.5-4 1.3Z" fill="#000"/><path opacity=".1" d="M75.8 167.7c1.5 0 3-.2 4.6-.5l-2.8-.6c-1.1 0-1.7.9-1.8 1.1Z" fill="#000"/><path d="M46.8 122.7c0 .8 2.4 1.4 2.4 1.4l7 6.2s4.4 2 7.2 4.8c2.8 2.9 5.3.4 5.3.4 3-.7 11.5-11 11.5-11s.2 11.8.6 12.6c.4.9-.1 3.3-.4 4.3-.1.8-.2 1.7-.1 2.5 0 0-3.2 12.3-3 13.4.3 1-1.7 6-1.7 6v4.2s7.8-.3 8.3-2c.4-1.8-2-2.6-2-2.6v-.4c1.6-.8 1.9-6.4 1.9-6.4l2.7-7.9c.3-1.1 0-2.8 0-2.8l.2-1.5.5-1.2c0-.5.3-1 .6-1.4.3-.5-.4-1.5-.4-1.5l.6-1.7v-2l1.6-6.9s1.6-8 1-10.6c-.5-2.7.7-4 .7-4-2.6 1.4-4-1.7-4.4-3l-.2-.7s-3.7-1.3-7.1-1c-.7 0-1.4.2-2 .4-3.9 1.4-4.5 7-4.5 7l-3.3 5.2c-1.8 4.6-4.4 5-4.4 5l-6.3-4.2-2.5-1.2c-.3-.5-.7-1-1.2-1.1-.8-.4-.9-1.6-.9-1.6 0-3-1.8-3.2-1.8-3.2-5.9-.5-5.9 5.7-5.9 6.5Z" fill="#3F3D56"/><path d="M80.9 106.4h3.6V95.2h-3.6v11.2Z" fill="#F86D70"/><path opacity=".1" d="M80.9 106.4h3.6V95.2h-3.6v11.2ZM90.3 72.3l.1.2 1 1.4 2.6.3v-1c-.8-.1-2.6-.3-3.7-1Z" fill="#000"/><path d="M90.4 72.5s.2 5.8-1.3 6.6c-1.5.8-2 5-2 5s4.4 3 5.4 4.3c1 1.2 3.3 4.3 2.8 5-.5.8 1.1 4.1 1.1 4.1s-2.9 6-2.2 8.3c.6 2.3.7 8.3.7 8.3h1.3s-.4-5-.4-7S97 98 97 98s.6-7 0-7.2c-.6-.2-4.1-3-4.4-4.3-.3-1.3 1.9-13.1 1.9-13.1s-2.8-.1-4.2-1Z" fill="#F86D70"/><path opacity=".1" d="M80.8 94.1c.1.8.4 1.6.9 2.3L84 96s7.5-1.7 9-1.8c1-.1 1.8-.4 2.7-.8-.6-2-1.8-4-3.3-5.4l-1-.9c-1.4-1.3-3-2.3-4.7-3 0 0 7.9 6.7 6.2 8-1.7 1.3-6.3-1.9-6.3-1.9l-5.2-4.4-.2-.2-.3.5.4.2c1.8 1 3.1 2.6 3.7 4.5 1 3.6-4.3 3.3-4.3 3.3Z" fill="#000"/><path d="M79.2 110.8s5 2.8 6.1 1.2c.3-.3.9-.5 1.5-.5l-.1-.6s-3.7-1.3-7.1-1l-.4 1Z" fill="#444053"/><path d="m81.5 85.6 5.4 4.6s4.6 3.2 6.3 2C94.9 90.7 87 84 87 84a16 16 0 0 1 4.7 3l1 .9c2.4 2.3 3 2.3 3 5.6.1.9-.2 2-.4 2.3a20 20 0 0 0-1.2 7.2c0 .6-1.5 6.4-1 8 .5 1.6-6.6-.8-7.8.7-1.2 1.6-6.1-1.2-6.1-1.2s2.7-7 3.4-7.5c.7-.4 1.5-4 0-5.7-1.5-1.7-1.6-3.3-1.6-3.3s5.4.4 4.3-3.3a7.6 7.6 0 0 0-4.1-4.7l.3-.5Z" fill="#E8E8F0"/><path opacity=".1" d="M88.7 97.4s-2 4-4.8 5h-.2c-2.8.9 5.2-3.8 5-5Z" fill="#000"/><path d="M59.7 62.8s1 2.6 1.8 3.4l6.7 9.6.5 1 .5 1 3.8-.5.2-1.5-.1-.2a18 18 0 0 0-2.1-2.2c-.9-.7-2.6-2.9-2.6-2.9S63 65 62.5 63.4c-.4-1.6-5.8-10.8-7-9.2-1.2 1.6 4.2 8.6 4.2 8.6Z" fill="#FBBEBE"/><g opacity=".1" fill="#000"><path opacity=".1" d="M70.7 104.2c-.4 0-.9 0-1.3.2-1 .4-1.1 1.7-1.7 2.6-.6 1-1.7 1.7-3 2H64h2.3c1.2-.3 2.4-1 3-2 .5-1 .7-2.2 1.7-2.6l.8-.2h-1ZM80 84c0-2 1.4-3.8 2.5-5.6 1.1-1.7 2-4 1.2-5.9-.8-1.6-5.3-3.7-8-3.3 2.6.3 5.8 2 6.4 3.3 1 2 0 4.2-1.1 6-1.2 1.7-2.5 3.5-2.5 5.6 0 2.6-.2 4.7-1 7.3-.2.7 1.9 1.9 1.6 2.6-1 2.3-.6 5-.8 7.6 0 .5 0 1-.3 1.5-.5.8-1.6 1-2.7 1.1h1c1.2 0 2.6 0 3.3-1.1l.3-1.5c.2-2.6-.3-5.3.8-7.6.3-.8-1.8-1.9-1.6-2.6.8-2.6 1-4.7 1-7.3Z"/></g><path opacity=".1" d="m68.7 76.8.5 1 3.8-.5.2-1.5-.1-.2c-.4.2-3.5 1.7-4.4 1.2Z" fill="#000"/><path opacity=".1" d="M82.8 86.9s-1-1.5-1.5-1c-.5.3-.7-1.3-1-1-.3.3-1.2 1-1.6 0-.3-.9-3.4-6.1-4.7-8.2l-.6-.9S69.8 77.6 69 77v1.3h.7l4 7.4s1.2 2 1 2.6c0 .7 1.7 3.7 2 4l3 3.5s1.5 7.2.3 9.2c-1.3 2-3.5 3.5-3.5 3.5s-.7 2-.6 2.1c.1.2-.7 1-.3 1.4.4.2.9 2.1.9 2.1s1.9-3 2.9-3.5c1-.4 2.3-6.6 2.3-6.6s.4-3.6.4-6c0-2.3-.1-11.1.7-11.1Z" fill="#000"/><path d="M82.6 86.9s-1-1.5-1.5-1c-.5.3-.7-1.3-1-1-.3.3-1.2 1-1.6 0-.3-.9-3.4-6.1-4.7-8.2l-.6-.9s-3.6 1.8-4.4 1.2v1.3h.7l4 7.4s1.2 2 1 2.6c0 .7 1.7 3.7 2 4l3 3.5s1.5 7.2.3 9.2c-.7 1-1.5 2-2.4 2.7-.8.6-1.4 1.5-1.6 2.5v.4c0 .2-.8 1.1-.4 1.4.4.2 1 2.1 1 2.1s1.8-3 2.8-3.5c1-.4 2.3-6.6 2.3-6.6s.4-3.6.4-6c0-2.3 0-11.1.7-11.1Z" fill="#F86D70"/><path opacity=".1" d="M73.4 117.3s2.9.5 4 1.4c1.1.8-4.3-1.3-4.3-1.3h.3ZM80.2 124.4s3 2.5 2.4 4.7l-1.9 7.7-.5-12.4ZM54.6 119.7s-4.1.5-3.9 1c.3.6 3.9-.5 3.9-.5v-.5ZM86.3 140s.2.4-1.3 0c-1.5-.3-.4-1.3-.4-1.3l1.7 1.3ZM85.8 144.7s-2.1.3-3.3 0c-1.1-.4 3.3 0 3.3 0ZM81.4 162.7s-.3-.4-2.2.3c-1.8.8-2.5.8-3 .6-.6-.3 5.2-.9 5.2-.9ZM83.5 119.2l-2.6 3.6s1.4-3.2 2.6-3.6ZM78.4 85.8s-.1 1.2-1.8 1.7-2 .9-2 .9M74 77.1s-2.2 1.6-4.5 1.2ZM75.7 110.8s.7.4 2.2-1.4ZM91.9 92c0-.4-.2-.7-.4-1l-.4-.5a2 2 0 0 0-.3-.3l-.9-.4" fill="#000"/><path opacity=".1" d="M232.7.5s-22.1-1.3-19.5 14.2c0 0-.5 2.7 2 4 0 0 0-1.2 2.2-.8.8.1 1.6.2 2.4.1a5 5 0 0 0 3-1.2s6.2-2.6 8.6-12.7c0 0 1.8-2.2 1.7-2.8l-3.7 1.6s1.2 2.7.2 5c0 0 0-5-.8-4.8l-2 1s2.2 4.6.6 8c0 0 .6-5.8-1.2-7.7l-2.6 1.5s2.5 4.8.8 8.8c0 0 .4-6-1.4-8.4L220.6 8s2.4 4.8 1 8c0 0-.2-7-1.5-7.5 0 0-2 1.8-2.4 2.6 0 0 1.7 3.4.6 5.3 0 0-.6-4.7-1.1-4.8 0 0-2 3.1-2.3 5.3 0 0 .1-3.2 1.8-5.6 0 0-2 .4-3.2 1.7 0 0 .3-2.2 3.7-2.4 0 0 1.7-2.4 2.2-2.5 0 0-3.4-.3-5.4.6 0 0 1.8-2 6-1.1l2.3-2s-4.4-.5-6.2.1c0 0 2.1-1.8 6.9-.5l2.5-1.5s-3.7-.8-6-.5c0 0 2.4-1.3 6.8 0l1.8-.7-3.5-.7c-.9 0-.9-.3-.9-.3 1.7-.3 3.5 0 5.2.6 0 0 3.8-1.4 3.8-1.7ZM205.4 4.5s-10-.6-8.7 6.3c0 0-.3 1.3.8 1.8 0 0 0-.5 1-.3h1.1c.5 0 1-.2 1.4-.5 0 0 2.8-1.1 3.9-5.7 0 0 .8-1 .7-1.3l-1.6.7s.5 1.2 0 2.3c0 0 0-2.2-.3-2.2l-.9.4s1 2.2.3 3.7c0 0 .3-2.6-.6-3.5l-1.2.7s1.2 2.2.4 4c0 0 .2-2.8-.6-3.8l-1 .8s1 2.2.3 3.6c0 0 0-3.1-.6-3.4 0 0-1 .8-1.1 1.2 0 0 .7 1.6.3 2.4 0 0-.3-2.1-.5-2.2 0 0-1 1.4-1 2.4 0-.9.2-1.8.7-2.5-.5.1-1 .4-1.4.7 0 0 .1-1 1.7-1 0 0 .7-1.1 1-1.2 0 0-1.6-.1-2.5.3 0 0 .8-1 2.7-.5l1-.9s-2-.2-2.8 0c0 0 1-.8 3.2-.2l1.1-.7s-1.7-.3-2.7-.2c0 0 1-.6 3 0l.9-.3-1.6-.3-.4-.1c.8-.2 1.6 0 2.3.2l1.8-.7Z" fill="#00BAFC"/><path d="M240.3 171.2c5.8 0 10.5-.8 10.5-1.8s-4.7-1.8-10.5-1.8c-5.9 0-10.6.8-10.6 1.8s4.7 1.8 10.6 1.8Z" fill="#00BAFC"/><path d="M244.6 166.4c.5-.3.9-.9 1-1.5.2-.6-.1-1.3-.7-1.5-.6-.3-1.3.2-1.8.6-.6.5-1.2 1-1.8 1a2.7 2.7 0 0 0 .8-2.7 1 1 0 0 0-.2-.5c-.4-.4-1-.2-1.5 0-1.3 1-1.7 3-1.7 4.6v-1.9c0-.6-.2-1.3-.7-1.6a2 2 0 0 0-1-.2c-.7 0-1.4 0-1.8.4-.5.6-.4 1.5 0 2.1.5.7 1.2 1 1.8 1.5.6.3 1 .7 1.3 1.2l.1.2h3.9c.8-.4 1.6-1 2.3-1.7Z" fill="#00BAFC"/></g><defs><linearGradient id="b" x1="212" y1="132.9" x2="212" y2="27.4" gradientUnits="userSpaceOnUse"><stop stop-color="gray" stop-opacity=".3"/><stop offset=".5" stop-color="gray" stop-opacity=".1"/><stop offset="1" stop-color="gray" stop-opacity=".1"/></linearGradient><linearGradient id="c" x1="10450.5" y1="65713.3" x2="23402.9" y2="65713.3" gradientUnits="userSpaceOnUse"><stop stop-color="gray" stop-opacity=".3"/><stop offset=".5" stop-color="gray" stop-opacity=".1"/><stop offset="1" stop-color="gray" stop-opacity=".1"/></linearGradient><clipPath id="a"><path fill="#fff" transform="translate(0 .5)" d="M0 0h300v171.1H0z"/></clipPath></defs></svg>