<svg width="300" height="233" fill="none" xmlns="http://www.w3.org/2000/svg"><g clip-path="url(#a)"><path opacity=".8" d="M273.7 221H15.5V54.2a5.3 5.3 0 0 1 5.3-5.3h247.6a5.3 5.3 0 0 1 5.3 5.3v167Z" fill="url(#b)"/><path d="M24.3 51.9H265A5.3 5.3 0 0 1 270 57v164h-251V57a5.3 5.3 0 0 1 5.2-5.2Z" fill="#fff"/><path d="M262 61.7H27.3v154H262v-154Z" fill="#F5F5F5"/><path opacity=".8" d="M262 69.2H28v138.6h234V69.2Z" fill="#E0E0E0"/><path d="M262 61.8H28v7.4h234v-7.4Z" fill="#F5F5F5"/><path d="M33 67.2a1.8 1.8 0 1 0 0-3.6 1.8 1.8 0 0 0 0 3.6Z" fill="#FF5252"/><path d="M38 67.2a1.8 1.8 0 1 0 0-3.6 1.8 1.8 0 0 0 0 3.6Z" fill="#FF0"/><path d="M42.9 67.2a1.8 1.8 0 1 0 0-3.6 1.8 1.8 0 0 0 0 3.6Z" fill="#69F0AE"/><path opacity=".8" d="M281 232.1c-14.5 1.1-261.3.7-269.9 0-11.3-5.4-11-26.5-11-26.5l113.1-.8.4 6.4H162l2-5.6h125.3s2.5 19.4-8.4 26.5Z" fill="url(#c)"/><path d="M287.5 207.3h-123a3.8 3.8 0 0 1-2.8 6.2h-47a3.8 3.8 0 0 1-2.9-6.2H1.7s-.2 18.3 11 23c8.5.6 252.3 1 266.5 0 10.8-6.2 8.3-23 8.3-23Z" fill="#F5F5F5"/><path d="M27.3 212.7a1.5 1.5 0 1 0 0-3 1.5 1.5 0 0 0 0 3ZM31.8 212.7a1.5 1.5 0 1 0 0-3 1.5 1.5 0 0 0 0 3ZM36.3 212.7a1.5 1.5 0 1 0 0-3 1.5 1.5 0 0 0 0 3Z" fill="#E0E0E0"/><path d="M140 125.9h10.7a46.5 46.5 0 0 1 46.5 46.5v33.8H93.4v-33.8a46.5 46.5 0 0 1 46.5-46.5Z" fill="#00BAFC"/><path d="M145.4 107.8a47.4 47.4 0 1 0 0-94.8 47.4 47.4 0 0 0 0 94.8Z" fill="#333"/><path opacity=".1" d="M138.4 112h13.7a9.7 9.7 0 0 1 9.7 9.7v9.5a14.8 14.8 0 0 1-14.8 14.7h-3.5a14.8 14.8 0 0 1-14.7-14.7v-9.4a9.7 9.7 0 0 1 9.6-9.7Z" fill="#000"/><path d="M128.8 111.1h33v19.1A14.8 14.8 0 0 1 147 145h-3.5a14.8 14.8 0 0 1-14.7-14.8v-19Z" fill="#FDB797"/><path opacity=".1" d="M128.8 115.9c10.7 4 22.4 4 33 0v-4h-33v4Z" fill="#000"/><path d="M145.4 118a47.4 47.4 0 1 0 0-94.7 47.4 47.4 0 0 0 0 94.8Z" fill="#FDB797"/><path opacity=".1" d="M100 54h90.5s-7.7-36.6-42-34.3C114.6 22 100.2 54 100.2 54Z" fill="#000"/><path d="M100 52.7h90.5s-7.7-36.5-42-34.2c-34 2.3-48.4 34.2-48.4 34.2Z" fill="#333"/><path d="M99 77c2.4 0 4.4-3.8 4.4-8.3 0-4.6-2-8.3-4.4-8.3-2.4 0-4.4 3.7-4.4 8.3 0 4.5 2 8.2 4.4 8.2ZM191.6 77c2.4 0 4.4-3.8 4.4-8.3 0-4.6-2-8.3-4.4-8.3-2.4 0-4.4 3.7-4.4 8.3 0 4.5 2 8.2 4.4 8.2Z" fill="#FDB797"/><path d="M107.1 28.5c1-3.5 3-7 6.1-9 2.3-1.6 5-2.4 7.7-3.3a59 59 0 0 0 11.2-5.4c4-2.5 7.8-5.5 12.3-7.1a40.6 40.6 0 0 1 24 .7c1.9.5 3.8 1 5.5 2.1 2 1.2 3.5 3 5 4.8l12.5 15c1.1 1.4 2.3 2.8 3 4.4a15 15 0 0 1 1.5 5 13 13 0 0 1-1.3 8c-2.1 3.7-6.5 5.5-10.7 5.6-4.1.2-8.2-1-12.2-2.2-13-3.8-26-7.3-39.4-8.9-6.7-.8-13.4-1-20-.6-2.2.1-5 1-6.2-1-1.1-2 .4-6.2 1-8.1Z" fill="#333"/><path opacity=".1" d="M113.8 169.4v36.8M177.7 169.4v36.8" stroke="#000" stroke-width="4" stroke-miterlimit="10"/><path opacity=".8" d="M300 66.8h-59.5l-20 16.7V66.8H207V.6H300v66.2Z" fill="url(#d)"/><path d="M298.7 1.4h-90.4v63.3h90.4V1.4Z" fill="#fff"/><path d="M290.1 10.7h-71.6v1.9h71.6v-1.9ZM267.8 19.2h-49.3V21h49.3v-1.8ZM277.6 27.6h-59v1.9h59v-1.9Z" fill="#E0E0E0"/><path d="M266 36h-47.5v2H266v-2ZM290.1 44.6h-71.6v1.8h71.6v-1.8Z" fill="#00BAFC"/><path d="M290.1 53h-71.6V55h71.6V53Z" fill="#E0E0E0"/><path d="M223.8 63.4v16.8l18.4-18.4-18.4 1.6Z" fill="#fff"/></g><defs><linearGradient id="b" x1="144.6" y1="221.1" x2="144.6" y2="48.8" gradientUnits="userSpaceOnUse"><stop stop-color="gray" stop-opacity=".3"/><stop offset=".5" stop-color="gray" stop-opacity=".1"/><stop offset="1" stop-color="gray" stop-opacity=".1"/></linearGradient><linearGradient id="c" x1="169221" y1="22572.9" x2="169221" y2="20217.9" gradientUnits="userSpaceOnUse"><stop stop-color="gray" stop-opacity=".3"/><stop offset=".5" stop-color="gray" stop-opacity=".1"/><stop offset="1" stop-color="gray" stop-opacity=".1"/></linearGradient><linearGradient id="d" x1="70901.9" y1="20613.9" x2="70901.9" y2=".6" gradientUnits="userSpaceOnUse"><stop stop-color="gray" stop-opacity=".3"/><stop offset=".5" stop-color="gray" stop-opacity=".1"/><stop offset="1" stop-color="gray" stop-opacity=".1"/></linearGradient><clipPath id="a"><path fill="#fff" transform="translate(0 .6)" d="M0 0h300v232.2H0z"/></clipPath></defs></svg>