<svg width="300" height="260" fill="none" xmlns="http://www.w3.org/2000/svg"><g clip-path="url(#a)"><path d="M163.8 72.7a27.6 27.6 0 1 0 0-55.3 27.6 27.6 0 0 0 0 55.3Z" fill="#A0616A"/><path d="M143.1 58.9s5.2 39.2-2.8 43.6c-8 4.4 47.7 4.8 47.7 4.8s-12.4-34-6.8-44.4l-38-4Z" fill="#A0616A"/><path d="m228.6 107.5-4.6 21.1-9.8 44.6-.3 2.4-3.4 28.3-2.2 18.8-1.5 12.6-15.8 8-1.5-6.6c-6.4 2-18.3 5.1-28.4 5.8 3.7 4 5.3 8 3 10.7-6.9 8.6-35.4-9.3-45.3-16a27 27 0 0 0-.3 4.8l-7.6-5.8.7-13.5 1.3-22.9 1.6-28.6a30 30 0 0 1-1.3-3.8c-2.3-8.3-5.1-24.9-7.3-38.8-1.8-11.2-3-20.7-3.3-22.7l-.1-.4L144.7 87c3 7 17 9 17 9 11.7-.8 20.8-7 20.8-7l46.1 18.6Z" fill="#D0CDE1"/><path d="m194.2 235.2-4.7 1.5a140 140 0 0 1-28.4 5.8c-8.7.5-16-.8-17.4-6.5-.5-2.4.3-4.4 2-6 5.4-5 19.2-6.7 30.2-7.3l8.4-.3h6.7v.3l3.2 12.5Z" fill="#A0616A"/><path d="m140.8 19-5.2-2.1s10.8-12 25.8-10.9l-4.2-4.6S167.5-2.8 177 8c5 5.7 10.7 12.4 14.2 20h5.6l-2.3 5 8 5.1-8.3-.9c.5 2.8.6 5.6.3 8.4a11 11 0 0 1-4 7.2S184 39.6 184 37.6v5.1s-5.2-4.6-5.2-7.7l-2.8 3.6-1.4-5.7-17.4 5.7 2.8-4.7-10.8 1.6 4.2-5.7s-12.2 6.7-12.6 12.4c-.5 5.7-4 11-4 11s-9.6-26.5 4-34.3Z" fill="#2F2E41"/><path d="M258.6 204.4c-2.8 3-9.8 7.6-18.2 12.6l-10 5.7c-8 4.5-16.6 9-23.6 12.6l-15.8 8-1.5-6.6a54 54 0 0 0-5-14l-.2-.3c-.6-.7-1.2-1.2-1.7-1.2l28-17.3 12-7.5-8.7-20.8-11-26 6.7-21 6.6-21h12.4a815.2 815.2 0 0 0 11.8 27.2c10.8 26.3 24.3 63 18.2 69.6Z" fill="#D0CDE1"/><path d="M164.2 253.2c-7 8.6-35.5-9.3-45.4-16l-3.5-2.4 9.1-12.1 3-3.9a200.2 200.2 0 0 0 18.3 11.2 87.5 87.5 0 0 1 15.4 12.5c3.7 4 5.3 8 3 10.7Z" fill="#A0616A"/><path d="m133.7 222.4-3 .3c-8.7 1.5-11.2 9.3-12 14.5a27 27 0 0 0-.2 4.8l-7.6-5.8-2.8-2.2a50.7 50.7 0 0 1-17.8-11.3c-4.5-4.3-8.5-9.1-12-14.3-3.5-5-6.6-10.4-9.3-15.9a11.7 11.7 0 0 1-.2-10l9.5-21L92 130.7l.3-2.1c2.8-15.7 10.1-22.7 10.1-22.7h5.6l3.8 22.7 4.6 28.2-3.3 10.6-7.5 24.6 7.2 7.8 20.8 22.6Z" fill="#D0CDE1"/><path d="m140 156.8 4.9 5.6 5.5-1.2-1.4-4.4 3.4 4c20.3-5 45.4-14.8 45.4-14.8s-27.1 2-47.4-2.4c-9-2-18.2 2.5-21.9 10.9-2 4.9-1.8 9.1 5.8 9.1 2.6 0 5.1-.3 7.7-.7l-2-6.1Z" fill="#00BAFC"/><path d="M249.3 248.7v2.2a5 5 0 0 1-5 5H76.5a5 5 0 0 1-5-5v-2.2a5 5 0 0 1 5-5h9.7v-1.1a.2.2 0 0 1 .2-.3h5a.2.2 0 0 1 .2.1v1.2h3.2v-1a.2.2 0 0 1 0-.2.2.2 0 0 1 .2 0h5a.2.2 0 0 1 .2 0v1.2h3.2v-1.1l.1-.1h5.1a.2.2 0 0 1 .2 0v1.2h3.2v-1.1a.2.2 0 0 1 .2-.2h5.2v.1l.1.2v1h3.2V242.4h5.2a.2.2 0 0 1 .2 0v1.2h3.2v-1.1l.1-.1H134.7a.2.2 0 0 1 .1 0v1.2h3.2v-1.1a.2.2 0 0 1 .2-.2h39.5a.2.2 0 0 1 .2.1.2.2 0 0 1 0 .2v1h3.2v-1.1a.2.2 0 0 1 .2-.2h5a.2.2 0 0 1 .2.3v1h3.2v-1.1l.1-.1h5.1a.2.2 0 0 1 .2 0v1.2h3.2v-1a.2.2 0 0 1 0-.2h5.4v1.2h3.2v-1.1a.2.2 0 0 1 .2-.2h5l.2.1.1.2v1h3.2v-1.1a.2.2 0 0 1 .2-.2h5a.2.2 0 0 1 .2.1.2.2 0 0 1 0 .2v1h3.2v-1.1l.1-.1h5.1a.2.2 0 0 1 .2 0v1.2h14.8a5 5 0 0 1 5 5Z" fill="#3F3D56"/><path d="M298 252.8H22.8v.7h275.4v-.7ZM235.8 152.6h-62.5v-1.3h-28.4v1.3H82.1A4.2 4.2 0 0 0 78 157v85.6a4.2 4.2 0 0 0 4.2 4.2h153.7a4.2 4.2 0 0 0 4.2-4.2v-85.6a4.2 4.2 0 0 0-4.2-4.3Z" fill="#3F3D56"/><path d="M159 192a9.4 9.4 0 1 0 0-18.9 9.4 9.4 0 0 0 0 18.8Z" stroke="#D0CDE1" stroke-width="2" stroke-miterlimit="10"/><path d="M156 195.3a9.4 9.4 0 1 0 0-18.8 9.4 9.4 0 0 0 0 18.8ZM40.7 249H30.2v10.5h10.5V249Z" fill="#D0CDE1"/><path d="M34.4 240.7v12.8H47v-12.8H34.4ZM46.6 253H34.9v-11.6h11.7v11.6Z" fill="#3F3D56"/><path d="M284.2 249h-10.6v10.5h10.6V249Z" fill="#D0CDE1"/><path d="M277.8 240.7v12.8h12.7v-12.8h-12.7ZM290 253h-11.7v-11.6H290v11.6Z" fill="#3F3D56"/><path d="M35.5 87a29.8 29.8 0 1 0 0-59.6 29.8 29.8 0 0 0 0 59.6Z" fill="#00BAFC"/><path d="M46 21.8A32.2 32.2 0 0 0 21.4 29a31.7 31.7 0 0 0 22.4 55.7 31.3 31.3 0 0 0 23-12.2 31.6 31.6 0 0 0-21-50.7Zm5.7 60.4A30.4 30.4 0 0 1 20.1 75a30.7 30.7 0 1 1 31.6 7.3Z" fill="#3F3D56"/><path d="M42.3 24.3h-.9v6.3h.9v-6.3ZM21.7 32.4l-.6.6 4.5 4.5.6-.6-4.5-4.5ZM13 52.7v1h6.3v-1h-6.4ZM21.1 73.3l.6.6 4.5-4.4-.6-.7-4.5 4.5ZM57.5 36.9l.6.6 4.5-4.5-.6-.6-4.5 4.5ZM64.4 52.7v1h6.4v-1h-6.4ZM58.1 68.8l-.6.7 4.5 4.4.6-.6-4.5-4.5ZM42.3 75.7h-.9v6.4h.9v-6.4ZM43.2 51.4a2.3 2.3 0 1 0-2.7 3.6 2.3 2.3 0 0 0 2.7-3.6ZM42 54.5a1.4 1.4 0 0 1-1.2-2.1 1.4 1.4 0 1 1 1.2 2.1ZM46 13.9h-8.2V22h8.1V14Z" fill="#3F3D56"/><path d="M41.9 15.2c6 0 10.8-1.7 10.8-3.8 0-2.1-4.9-3.8-10.8-3.8-6 0-10.9 1.7-10.9 3.8 0 2.1 4.9 3.8 10.9 3.8ZM43.2 36h-2.7v15.4h2.7V36ZM84.9 83.4H0v.9h84.9v-.9Z" fill="#3F3D56"/><path d="M56.6 225.9c.3 12-6.7 16.4-15.5 16.6a31.3 31.3 0 0 1-1.8 0c-8-.3-14.3-4.5-14.6-15.7-.3-11.5 14-26.5 15-27.7h.1s16.4 14.8 16.8 26.8Z" fill="#D0CDE1"/><path d="m40.5 240.7 5.6-8.3-5.6 9.2v1h-1.2l.3-12v-1.3l-6.1-9 6 8.1.1.3.2-9.1-5.3-9.2 5.3 7.6V199L40 214l4.8-6-4.8 7.3.1 8 4.5-7.8-4.4 9v4.6l6.5-11-6.5 12.6.2 10Z" fill="#3F3D56"/><path d="M300 225.9c.3 12-6.7 16.4-15.5 16.6a31.4 31.4 0 0 1-1.8 0c-8-.3-14.3-4.5-14.6-15.7-.3-11.5 14-26.5 15-27.7h.2s16.3 14.8 16.7 26.8Z" fill="#D0CDE1"/><path d="m283.9 240.7 5.6-8.3-5.6 9.2v1h-1.2l.3-12v-1.3l-6.1-9 6.1 8.1v.3l.2-9.1-5.3-9.2 5.3 7.6V199l.3 14.9 4.9-6-4.8 7.3v8l4.5-7.8-4.4 9v4.6l6.5-11-6.4 12.6v10Z" fill="#3F3D56"/></g><defs><clipPath id="a"><path fill="#fff" transform="translate(0 .6)" d="M0 0h300v258.9H0z"/></clipPath></defs></svg>