<svg width="204" height="130" fill="none" xmlns="http://www.w3.org/2000/svg"><g clip-path="url(#a)"><path opacity=".5" d="M191.1 111.3c-.3-1.5-1.5-2.7-2.4-4a10.6 10.6 0 0 1-.7-10.8c.9-1.6 2.2-3.3 1.7-5-.3-1.2-1.4-2-2.4-2.7a24 24 0 0 0-13.4-3.4c-5.7.2-11.4 2.5-17 1.4-5.5-1.1-10.2-3.9-16-4.2-4.2-.3-8.4 0-12.7-.4a190 190 0 0 0-32-.8 190 190 0 0 0-32 .8c-4.2.4-8.4.1-12.7.4-5.8.3-10.4 3-15.9 4.2-5.6 1.1-11.3-1.2-17-1.4a24 24 0 0 0-13.4 3.4c-1 .7-2.1 1.5-2.5 2.7-.5 1.7.9 3.4 1.7 5a10.7 10.7 0 0 1-.6 10.8c-.9 1.3-2.1 2.5-2.5 4-.7 3 2.2 5.7 5.1 6.9 8 3.3 17.5 1.7 24.8 6.3 3.2 2 6 5.4 9.9 5.5 2.6 0 5-1.4 7.2-2.6 3.4-2 7-3.5 10.6-4.8 3.2-1.2 6.5-2 10-1.7 5 .6 27.3 11.3 37.4 5 6.8-4.4 12.2-4.4 17.4-5 3.3-.4 6.7.5 10 1.7 3.6 1.3 7.1 2.9 10.5 4.8 2.3 1.2 4.6 2.7 7.2 2.6 3.9-.1 6.7-3.4 10-5.5 7.1-4.6 16.7-3 24.6-6.3 3-1.2 5.9-3.9 5.1-7Z" fill="url(#b)"/><path d="M190 111.2c-.3-1.5-1.5-2.6-2.3-3.9a10.5 10.5 0 0 1-.7-10.7c.9-1.6 2.2-3.2 1.7-5-.3-1.2-1.4-2-2.4-2.6-4-2.4-8.6-3.6-13.2-3.4-5.7.2-11.3 2.5-16.9 1.4-5.4-1.1-10-3.8-15.7-4.2-4.2-.2-8.4 0-12.7-.4a188 188 0 0 0-31.6-.7 188 188 0 0 0-31.6.7c-4.2.5-8.4.2-12.6.4-5.7.4-10.3 3-15.7 4.2-5.6 1.1-11.2-1.2-17-1.4-4.6-.2-9.1 1-13.1 3.4-1 .6-2.1 1.4-2.4 2.6-.5 1.8.8 3.4 1.7 5a10.5 10.5 0 0 1-.7 10.7c-.9 1.3-2 2.4-2.4 4-.8 3 2.2 5.6 5 6.8 7.8 3.2 17.3 1.6 24.5 6.2 3.2 2 6 5.3 9.8 5.4 2.5.1 4.9-1.3 7-2.6 3.4-1.9 7-3.4 10.6-4.7 3.1-1.2 6.5-2 9.8-1.7 5.1.6 27.1 11.2 37 5 6.9-4.4 12.2-4.4 17.3-5 3.3-.4 6.6.5 9.8 1.7 3.6 1.3 7.1 2.8 10.5 4.7 2.2 1.3 4.6 2.7 7.1 2.6 3.8-.1 6.6-3.4 9.8-5.4 7.2-4.6 16.6-3 24.5-6.3 2.8-1.1 5.7-3.8 5-6.8Z" fill="#00BAFC"/><path opacity=".6" d="M8 46.7c.7-.2 1.3-.4 2-.3 1 .2 1.8 1.2 2 2.2.4 1 .4 2.2.6 3.2.2 1.1.7 2.2 1.6 2.7 1 .5 2.1.3 3.2.2 1.4-.2 2.8-.2 4.1 0 1.2 0 2.6.5 3 1.6.2.9-.4 1.8-.7 2.7a6.4 6.4 0 0 0 0 5.2c.8 1.6 2.4 2.8 3.1 4.5.2.5.3 1 .2 1.4l-.5.9c-.5.6-1.2 1.2-1.6 2-1 1.4-1.3 3.3-1.4 5-.2 1.9-.1 3.6 0 5.4-1.3-.4-2.8 0-4.1-.3-2.9-.6-4.7-4-7.6-4.2-1.4-.1-2.9.5-4.1-.1-.6-.4-1-.9-1.3-1.5a5.3 5.3 0 0 1-.4-3.6c.3-.8.7-1.6.6-2.4 0-.8-.5-1.4-1-2C4.3 68 2.2 67 1.2 65.2a4.8 4.8 0 0 1 .6-5.4l1-1.1c.5-.7.6-1.6.7-2.4.1-2-.2-4.2.5-6.2.6-1.8 2.4-2.7 4-3.3Z" fill="#00BAFC"/><path opacity=".6" d="M8 46.8S14 79 21.6 82.9" stroke="#535461" stroke-miterlimit="10"/><path opacity=".6" d="M24.3 55.7s-6.3.9-12.5 7.3M12.9 66.7S8.1 62 .6 62.8M27 68.8s-8.7.7-12 4M16.3 76S11.4 75 7 78" stroke="#535461" stroke-miterlimit="10"/><path opacity=".6" d="M188.2 21.3c-1-.3-2-.6-3-.5-1.8.3-3 2-3.5 3.6-.5 1.7-.5 3.4-.8 5.1-.3 1.8-1 3.5-2.6 4.3-1.5.9-3.3.5-5 .3-2.3-.2-4.5-.2-6.7 0-2 .1-4.1.8-4.7 2.6-.4 1.4.5 3 1 4.4 1.2 2.6 1.3 5.7 0 8.3-1.3 2.6-3.8 4.5-5 7.2-.2.7-.4 1.5-.2 2.2.2.5.4 1 .8 1.4.8 1 1.8 2 2.6 3.2 1.6 2.4 2 5.4 2.2 8.2a60 60 0 0 1 0 8.5c2.1-.7 4.4 0 6.6-.5 4.6-1 7.4-6.4 12.1-6.7 2.3-.2 4.6.9 6.6-.2a5 5 0 0 0 2.1-2.4c.8-1.7 1-3.8.5-5.7-.3-1.3-1-2.6-.9-4 .1-1 .8-2.1 1.6-3 2.3-2.4 5.6-3.8 7.3-6.7a7.7 7.7 0 0 0-1-8.7l-1.6-1.8c-.8-1.1-1-2.5-1.1-3.9-.3-3.3.3-6.7-.8-9.8-1-3-3.8-4.4-6.5-5.4Z" fill="#00BAFC"/><path opacity=".6" d="M188.1 21.4s-9.3 51.8-21.4 58" stroke="#535461" stroke-miterlimit="10"/><path opacity=".6" d="M162.2 35.7s10 1.4 20 11.7M180.4 53.4S188 45.9 200 47M157.8 56.7s14 1.1 19.2 6.5M175 68.3s7.8-1.4 15 3.2" stroke="#535461" stroke-miterlimit="10"/><path d="M16.6 0v105.5h154.8V0H16.6Z" fill="url(#c)"/><path d="M169.8 4.8h-151v98.8h151V4.8Z" fill="#fff"/><path d="M169.8 0h-151v7.4h151V0Z" fill="#EEE"/><path d="M24.6 5.4a1.8 1.8 0 1 0 0-3.6 1.8 1.8 0 0 0 0 3.6Z" fill="#FF5252"/><path d="M29.5 5.4a1.8 1.8 0 1 0 0-3.6 1.8 1.8 0 0 0 0 3.6Z" fill="#FF0"/><path d="M34.3 5.4a1.8 1.8 0 1 0 0-3.6 1.8 1.8 0 0 0 0 3.6Z" fill="#69F0AE"/><path opacity=".5" d="M80.9 19H24.6v2.3H81V19ZM80.9 23.7H24.6V26H81v-2.3ZM80.9 28.4H24.6v2.3H81v-2.3ZM80.9 33H44v2.4H81v-2.3ZM54.3 37.7H24.6v2.4h29.7v-2.4ZM63.4 42.4H40.6v2.4h22.8v-2.4ZM154.6 35.4H88.3v38.1h66.3v-38Z" fill="#00BAFC"/><path d="M162.5 39H96.2v38.2h66.3V39Z" fill="#EEE"/><path opacity=".5" d="M202.3 74.2c.2-.2.2-.4.2-.6v-.2c0-1-5.1-6.5-6.4-13.3a12 12 0 0 0-.6-2.1v-1c-.3-1-.7-1.8-.5-2.7l.1-.3a12.8 12.8 0 0 0 1-1.6c.7-2-1.7-4.2-1.2-6.3.2-1 .9-1.8.9-2.7 0-1.1-1-2-2.1-2.3l-3.2-1c-2.2-1-3.4-3.4-5.4-4.7-2.6-1.6-6-1.4-9-1a.6.6 0 0 0-.5.4l-.1.2c-.5.8-1.2 1.3-1.9 1.8-.8.6-1.8 1.2-2.3 2.1l-.2.4c-1.2 2 .2 3 2 3.4l-.2 1a5.5 5.5 0 0 0 6.3 5.3l.2.1c.6.4 1.1 1 1.3 1.6L179 52l.2.5-7 3.2c-2.7.2-7-8.2-7-8.2s-.6-4.8-2.9-5.7c-.7-.2-1 .3-1 1.2-1 1 .7 7 .7 7l5.5 9.7c.5 1 .6 1.6 3 2a37 37 0 0 0 10.3-2.7v.8a5 5 0 0 0-.3 2c0 1.6.7 3.9 4.2 5.7 0 0 3.5 4.6 3.1 8.9l.5.4c0 1.2-.3 2.7-.9 3.3a.3.3 0 0 0 0 .3.3.3 0 0 0 0 .3l-4.4 7.8a47.3 47.3 0 0 1-4.9 5.3c-.2.4-.8 1.8-.6 2.9.3 1.4.5 2.8.4 4.2l-.6 10.1c-.2 1.1-.4 2.3-.8 3.3 0 0-2.2 2.6-5.6 3.2-3.4.7-3.3 2.4-2.3 2.6 1 .3 13.3-.2 13.3-.2s.5-1 .3-1.8c4-.3 9.4-1 9.4-1s.7-1.8-.4-2.5c-.4-.3-.7-.8-.8-1.3l-.2-.9v-.2a9 9 0 0 1-.3-2.5c.3-1.5 1.1-9.6-1-12-.8-1-.7-2.3-.3-3.3 2.4-1.6 5.8-5 7.8-7l.3.2s6.8-3.2 6.8-9a9 9 0 0 0-1-4.4ZM181 115.5v-.7h-.2c.1-1 .4-2 1.1-2.7 1.2-2 2-4.4 2.4-6.7l1.3 4.6.1 2s-1.7 2.4-4.7 3.5Z" fill="url(#d)"/><path d="M186.4 55.2s-3 1.1-4.6 3c0 0-8.2 3.2-10.5 2.8-2.3-.4-2.4-1-2.9-2l-5.2-9.3s-2.1-7.8 0-7c2.2.9 2.8 5.6 2.8 5.6s4.1 8.2 6.6 8l6.9-3.2s1.5-2.3 2.3-2.2c.7.1 4.6 4.3 4.6 4.3Z" fill="#FDB797"/><path opacity=".1" d="M186.4 55.2s-3 1.1-4.6 3c0 0-8.2 3.2-10.5 2.8-2.3-.4-2.4-1-2.9-2l-5.2-9.3s-2.1-7.8 0-7c2.2.9 2.8 5.6 2.8 5.6s4.1 8.2 6.6 8l6.9-3.2s1.5-2.3 2.3-2.2c.7.1 4.6 4.3 4.6 4.3Z" fill="#000"/><path d="m181.5 50.8-2.4 1.9s1.2 3.1 1 4.2c-.4 1.1 4.7-1.7 4.7-1.7l-2-4.7-1.3.3Z" fill="#F9CE43"/><path opacity=".1" d="m181.5 50.8-2.4 1.9s1.2 3.1 1 4.2c-.4 1.1 4.7-1.7 4.7-1.7l-2-4.7-1.3.3Z" fill="#000"/><path d="M177.4 48.7s5.3 1.7 2.9 4.8l7.7-3.7s-3.3.2-5.3-4.7l-5.3 3.6ZM187.5 80l-6.6 12 4.4 17.3s.5 3.9-.2 4.2h5s-1-3.4-.7-4.5c.3-1.4 1-9.4-.9-11.7-1.9-2.3 1-5.3 1-5.3l5.8-9.1-7.8-2.8Z" fill="#FDB797"/><path opacity=".1" d="m187.5 80-6.6 12 4.4 17.3s.5 3.9-.2 4.2h5s-.9-3.4-.7-4.5c.2-1.2 1-9.4-.9-11.7-1.9-2.3 1-5.3 1-5.3l5.8-9.1-7.8-2.8Z" fill="#000"/><path d="M185.4 111.3s-1.8 2.7-5 3.5c-3.2.9-3 2.5-2 2.7 1 .2 12.6-1.2 12.6-1.2s.7-1.8-.3-2.5c-1-.8-1-2.4-1-2.4l-4.3-.1Z" fill="#0D134D"/><path opacity=".1" d="M187.8 75.3s.3 3.9-.7 5a.3.3 0 0 0-.1.2.3.3 0 0 0 .1.2l3.1 1.7L193 77l-5.2-1.8Z" fill="#000"/><path d="M187.8 75.2s.3 3.9-.7 4.9a.3.3 0 0 0-.1.3.3.3 0 0 0 .1.2l3.1 1.7L193 77l-5.2-1.8Z" fill="#E23553"/><path opacity=".1" d="M187.8 75.4s.3 3.9-.7 5a.3.3 0 0 0-.1.2.3.3 0 0 0 .1.2l3.1 1.7 2.8-5.3-5.2-1.8Z" fill="#000"/><path d="M188 82.9s-1.8 1.2-5.6 6c-.8 1-1.6 2-2.6 3a12 12 0 0 0-1.6 1.5c-.2.5-.8 1.8-.5 3 .3 1.3.4 2.6.3 4l-.5 9.9s-.7 4.4-1.7 5l5 .8s-.4-3.2 1-4.7c0 0 3.4-5.8 2.6-12.3 0 0-.4-2.9 2.8-4.4 3.3-1.6 10-9.2 10-9.2L188 83Z" fill="#FDB797"/><path d="M176.6 113.5s-2 2.6-5.2 3.2c-3.3.6-3.2 2.2-2.2 2.5 1 .2 12.6-.3 12.6-.3s.9-1.6-.1-2.5c-1-.8-.7-2.4-.7-2.4l-4.4-.5Z" fill="#0D134D"/><path opacity=".1" d="M191 76.5s-1.5 5-3.4 6.4a.2.2 0 0 0 0 .4c1.6.5 6.6 2.4 8.3 4.1 0 0 10.3-5.1 4.8-14l-9.7 3Z" fill="#000"/><path d="M191 76.4s-1.5 4.9-3.4 6.3v.1a.2.2 0 0 0 0 .3c1.6.6 6.6 2.5 8.3 4.2 0 0 10.3-5.2 4.8-14l-9.7 3Z" fill="#E23553"/><path opacity=".1" d="M182.5 52 180 53l.9 7.4s-2 4.3 3.6 7.3c0 0 3.3 4.5 3 8.7 0 0 1.7 2 3 1.4 1.1-.5 0 .3.3.1.2 0 .7 1 4.5 0 3.7-.9 6.3-3.4 6.2-4.3-.1-.8-4.9-6.2-6-12.8-1.3-6.7-8.4-11.4-8.4-11.4l-.6.3a28 28 0 0 0-4 2.1Z" fill="#000"/><g opacity=".1" fill="#000"><path opacity=".1" d="M187.5 82.9a.2.2 0 0 0 .2.2 38 38 0 0 1-.2-.2ZM200.7 73.2l-.2.1c4.7 8.3-4.2 13.3-5 13.7.2 0 .3.2.4.3 0 0 10.3-5.2 4.8-14Z"/></g><path d="M195.3 77.8c-3.7 1-4.2-.1-4.5 0-.2.1.9-.6-.3-.1s-3-1.5-3-1.5v-.6c0-4-3-8-3-8-5.6-3-3.7-7.4-3.7-7.4l-.2-2-.6-5.3c.9-.3 1.7-.7 2.5-1.2 1.2-.8 2.6-1.5 4-2l.6-.4s7.1 4.7 8.3 11.3c1.2 6.6 6 12 6.1 12.9.2.8-2.5 3.3-6.2 4.3Z" fill="#F9CE43"/><path opacity=".1" d="m182.8 45.2-5.3 3.6a9 9 0 0 1 2 1c1.9-.2 3-1.5 3.7-3-.3-.5-.2-1-.4-1.6Z" fill="#000"/><path d="M178.7 49.8a5.3 5.3 0 1 0 0-10.6 5.3 5.3 0 0 0 0 10.6Z" fill="#FDB797"/><path opacity=".1" d="M196.1 77.2c-3.7 1-4.2-.1-4.4 0-.3.1.8-.6-.4-.1-1.2.5-3-1.5-3-1.5V75c0-4-3-8-3-8-5.5-3-3.6-7.4-3.6-7.4l-.2-2-.6-5-.9.3.6 5.4.3 2s-2 4.3 3.6 7.3c0 0 3 4 3 8v.6s1.8 2 3 1.5 0 .2.3.1.8 1 4.5 0a13 13 0 0 0 4.6-2.3c-1.1.8-2.4 1.4-3.8 1.7Z" fill="#000"/><path d="M186.1 56.3s-3 1-4.6 2.9c0 0-8.2 3.2-10.5 2.9-2.3-.4-2.4-1-2.9-2l-5.2-9.3s-2.1-7.9 0-7c2.2.8 2.8 5.5 2.8 5.5s4.1 8.2 6.6 8l6.9-3.2s1.5-2.3 2.3-2.2c.7.2 4.6 4.4 4.6 4.4Z" fill="#FDB797"/><path opacity=".1" d="M182 51.9s-2.4-.3-3.1 2.9c-.8 3.1 5.5 5 5.5 5l3.4-4.7L182 52Z" fill="#000"/><path d="M182.2 51.9s-2.5-.3-3.2 2.9c-.7 3.1 5.5 5 5.5 5l3.4-4.7-5.7-3.2Z" fill="#F9CE43"/><g opacity=".1" fill="#000"><path opacity=".1" d="m181.2 52.4-1.2.5v.2l1.2-.7ZM201.5 73.5c0-.9-4.9-6.3-6-12.9-1.3-6.6-8.4-11.3-8.4-11.3l-.6.3a28.8 28.8 0 0 0-1.1.6l.6-.3s7.1 4.7 8.3 11.3c1.2 6.6 6 12 6.2 12.9 0 .5-1 1.7-2.7 2.8 2.3-1.2 3.8-2.8 3.7-3.4Z"/></g><path opacity=".1" d="M183.6 52s3.1 1.5 3.7 4.4" stroke="#000" stroke-miterlimit="10"/><path opacity=".1" d="M176 44.2c.5.1 1 .3 1.3.7.2.3.2.7.3 1 .5.9 1.8.6 2.6 1.1 1.5 1 .5 3.7 2 4.6l.9.4c1.3.7 1 2.5.9 4-.3 1.3 0 3.3 1.4 3.5.8 0 1.7-.4 2.3 0 .4.2.5.6.8 1a1.4 1.4 0 0 0 1.5.2l1.4-.8c.8-.2 1.7.5 2.5.2.7-.3 1-1.5.7-2.3-.2-.9-.6-1.7-.4-2.6.2-.7.8-1.2 1-1.9.8-2-1.5-4-1.1-6.1.2-1 .9-1.7.8-2.7 0-1-1-1.8-1.9-2.2-1-.4-2-.5-3-1-2.1-1-3.3-3.2-5.2-4.5-.9-.6-1.8-1-2.9-1.1a9.3 9.3 0 0 0-7.4 2l-.6.4c-.8.6-1.7 1.2-2.2 2.1-1.8 3.2 2.4 3.6 4.3 4Z" fill="#000"/><path d="M176.2 43.9c.5.1 1 .3 1.3.7.2.3.1.7.3 1 .4.9 1.7.6 2.6 1.1 1.4 1 .5 3.7 2 4.6.2.2.6.3.9.4 1.2.7 1 2.5.8 4-.2 1.3 0 3.3 1.5 3.5.7 0 1.6-.4 2.3 0 .3.2.5.6.8 1a1.4 1.4 0 0 0 1.5.2l1.3-.8c.8-.2 1.7.5 2.5.2s1-1.5.8-2.3c-.2-.9-.6-1.7-.4-2.6.1-.7.7-1.2 1-1.9.7-2-1.6-4-1.2-6.1.2-1 1-1.7.9-2.7 0-1-1-1.8-2-2.2-1-.4-2-.5-3-1-2-1-3.2-3.2-5.2-4.5-.7-.5-1.6-.9-2.5-1a9.4 9.4 0 0 0-7.8 2 9 9 0 0 1-.5.3c-.9.6-1.7 1.2-2.2 2-1.9 3.3 2.3 3.7 4.3 4ZM133.3 77.2h-37v-7c9-4.3 23-6.6 37 7Z" fill="#00BAFC"/><path opacity=".1" d="M162 76.2v1h-46.2V77s22.8-22.2 46.3-.8Z" fill="#000"/><path d="M162.5 76.2v1h-46.2V77s22.7-22.2 46.2-.8ZM103.9 49.3a3.4 3.4 0 1 0 0-6.9 3.4 3.4 0 0 0 0 6.9Z" fill="#00BAFC"/><path d="M133 43.3h-1.6l-2 .8h14.3l2.7-.1 1.4-.2 6.7-.1c2.3 0 5 0 5.8-.3h-6.5l-1.3-.1-3-.1H133ZM138.4 47.4h-.2l-.5.2h4l1.4-.1h1.3-1.4l-.3-.1h-4.3ZM124.2 53.4h-.3l-.5.1h5.4l1.3-.1h-5.9Z" fill="#F4F4F4"/><path d="M116.2 75.3h-1.6s-.5-17.5 1.6-23h.4s-1.4 19.9-.4 23Z" fill="#00BAFC"/><path d="M115 51.4s-1.3 3.6-.6 5.3c0 0 .9-3.4 1.9-3.9 1-.5 2.2 3.9 2.2 3.9s.6-2.8-.5-5c0 0 2.2 1.3 3.3 3.6 0 0 .2-1.5-2.4-4.7 0 0 2.3.7 3.8 2 0 0 .5-1-2.6-2.9 0 0 .4-1.3 2.8-.7 0 0 0-1.7-3.8-1.4 0 0 0-1 2.5-.9 0 0 0-1.4-3-.9 0 0 .7-.9 1-1a2 2 0 0 0-1.3.3s0-1.8-1.4-2.5l-.2 2.5-1.4-1.6c.2.1.5 1.3.4 2 0 0-1.8-1.5-3.9 0 0 0 2.6.2 3 1.1 0 0-2.2-.4-2.7 0 0 0 1.8.5 1.6 1 0 0-3 0-3.4 1 0 0 3.1.4 3.3.7 0 0-3.6 2.7-3.8 3.4 0 0 3.7-2.3 4.3-2.3.6 0-2.7 3.2-2.5 4 0 0 2.8-3.2 3.5-3ZM136 74.6h1.1s.4-13.4-1.2-17.5h-.3s1 15.1.3 17.5Z" fill="#00BAFC"/><path d="M136.8 56.4s1 2.8.5 4c0 0-.7-2.5-1.5-3-.8-.3-1.6 3-1.6 3s-.5-2 .3-3.8c-1 .7-2 1.6-2.5 2.7 0 0-.1-1.1 1.8-3.5 0 0-1.7.5-2.9 1.5 0 0-.3-.8 2-2.2 0 0-.3-1-2.1-.5 0 0 0-1.3 2.9-1 0 0 0-1-2-.8 0 0 0-1 2.3-.7 0 0-.5-.7-.8-.8.4 0 .8 0 1.1.3 0 0 0-1.4 1-2l.2 2 1-1.2c-.2.4-.2 1-.2 1.4 0 0 1.3-1 2.9.1 0 0-2 .2-2.3.9 0 0 1.7-.4 2-.1 0 0-1.2.4-1.2.7 0 0 2.3 0 2.6.9 0 0-2.3.3-2.5.5 0 0 2.8 2 3 2.5 0 0-3-1.6-3.4-1.6-.4 0 2 2.4 2 3 0 0-2.1-2.4-2.6-2.3ZM150.6 72h.7s.3-8.3-.7-10.8h-.2s.6 9.3.2 10.8Z" fill="#00BAFC"/><path d="M151 60.7s.7 1.7.4 2.5c0 0-.4-1.6-1-1.8-.4-.2-1 1.8-1 1.8s-.2-1.3.3-2.3c-.7.4-1.2 1-1.6 1.6 0 0 0-.7 1.2-2.2-.7.2-1.3.6-1.8 1 0 0-.3-.5 1.2-1.4 0 0-.2-.6-1.3-.3 0 0 0-.8 1.8-.7 0 0 0-.5-1.2-.4 0 0 0-.7 1.4-.4a2 2 0 0 0-.5-.5l.7.1s0-.8.6-1.1l.1 1.1.6-.7a2 2 0 0 0-.1.9 1.5 1.5 0 0 1 1.8 0s-1.2.1-1.4.5h1.2s-.8.3-.7.5c0 0 1.4 0 1.6.5l-1.6.3s1.7 1.3 1.8 1.6c0 0-1.7-1-2-1-.3 0 1.3 1.5 1.2 1.8 0 0-1.3-1.5-1.6-1.4Z" fill="#00BAFC"/><path d="m122.9 62.6-.2-.8a.5.5 0 0 0-.1-.4l-.8-.3-.1-.2v-.2l.3-.1.1-.2a.3.3 0 0 1-.3.2.8.8 0 0 0 .4-.6v-.1l.1-.1-.1.1v-.2h.1l.1-.3a.3.3 0 0 1-.2.3l.1-.2.1-.2v.1-.2a.3.3 0 0 0-.4 0l-.2.1a.3.3 0 0 1 .2-.2.3.3 0 0 0-.2.2.8.8 0 0 0-1 .3l-.1.1v.1c-.2.2-.2.4-.2.6a.6.6 0 0 1-.2.5.3.3 0 0 0 .2 0l.2-.1.1-.1h.1v.3l-.5.2a.6.6 0 0 0-.5.3l-.2 1h.1v.5l-.1.8V65l-.3 2-.3 2.2v.3s-.7.9-.5 1c.2.1.5.2.8-.3l.2-.3v-.4h.1s.4-1.1.3-2c0 0 .7-2.2 1.1-2.5l.2 2.1-.1 2.4v.2s-.7.9-.5 1c.2.1.5.2.8-.3l.2-.3V69.6c.2-.4.5-1.5.4-2.2l.2-1.5c.2-.2.1-.8.1-.8.2-.4.3-1.7.3-1.7v-.7h.1Zm-.6 1.4-.1-.1V63.5v.4Zm-.1-.6V63v.5Zm-2 0v.4l-.1.3v-.6l.1-.2v.2Z" fill="url(#e)"/><path d="M120.6 60v.5a.6.6 0 0 1-.3.5.2.2 0 0 0 .2 0h.2l.1-.2V60.2c.1-.1.2-.4 0-.4l-.2.2Z" fill="#72351C"/><path d="M119.2 69v.5s-.7.8-.5 1c.2 0 .5 0 .8-.4l.1-.2.1-.1V69h-.5ZM121.2 69.2v.4s-.7.9-.5 1c.2 0 .5.2.8-.3 0-.1 0-.2.2-.3a.3.3 0 0 0 0-.2v-.7l-.5.1Z" fill="#333"/><path d="M120.2 64.1s-.3.2-.5 1l-.3 2s-.3 1.8-.2 2.1l.5.2s.4-1 .3-1.8c0 0 .7-2.4 1.2-2.6v4.5l.5.1s.4-1.5.3-2.3l.2-1.7s.3-.9 0-1.7l-2 .2Z" fill="#4D8AF0"/><g opacity=".1" fill="#000"><path opacity=".1" d="M121.1 65c-.4.2-1.1 2.6-1.1 2.6l-.3 1.8s.4-1 .4-1.8c0 0 .6-2.2 1-2.5ZM122.1 64c.2.4.2 1 0 1.6l-.2 1.7c.2.8-.2 2.2-.3 2.3 0 0 .6-1.5.4-2.3l.3-1.7s.2-.9-.2-1.7Z"/></g><path d="m119.7 62.5.1.1.4.2c.3.2-.2-.3-.2-.3h-.2Z" fill="#F55F44"/><path opacity=".1" d="m119.7 62.5.1.1.4.2c.3.2-.2-.3-.2-.3h-.2Z" fill="#000"/><path d="m122 63 .7-.2s-.5-.3-.6.2Z" fill="#F55F44"/><path opacity=".1" d="M122.8 62.7s-.6-.2-.7.3c0 0 .4-.3.6-.2" fill="#000"/><path d="M121.4 60.9a.7.7 0 1 0 0-1.5.7.7 0 0 0 0 1.5Z" fill="#72351C"/><path d="M120.9 60.7v.5c-.1 0-.3.2-.1.3.1.2.7.4.8.3.2-.1.4-.1.4-.3 0-.2-.5-.2-.5-1.2l-.6.4Z" fill="#FDB797"/><path opacity=".1" d="M119.9 62.4v.7l-.2.7.1 1.2s0 .9.4.8c.4-.1-.1-1-.1-1v-1.2l.2-.6c0-.3-.4-.6-.4-.6Z" fill="#000"/><path d="M119.9 62.4v.7l-.2.7.1 1.2s0 .9.4.8c.4-.1-.1-1-.1-1v-1.2l.2-.6c0-.3-.4-.6-.4-.6Z" fill="#FDB797"/><path opacity=".1" d="M122.6 62.5v1s0 1.3-.2 1.6c0 0 0 1-.4 1-.4-.1 0-1.1 0-1.1s.3-1 .2-1.4l-.1-1.1h.5Z" fill="#000"/><path d="M122.6 62.5v1s0 1.3-.2 1.6c0 0 0 1-.4 1-.4-.1 0-1.1 0-1.1s.3-1 .2-1.4l-.1-1.1h.5Z" fill="#FDB797"/><path opacity=".1" d="M121.2 61.6s.4.1.6-.4l.7.4a.4.4 0 0 1 .1.3l.2.8s-.5-.1-.7.4v1a.2.2 0 0 1-.2.1H120.1V63.6c.2 0 .1-.7 0-.8 0 0-.2-.3-.4-.2l.2-1a.6.6 0 0 1 .5-.3l.5-.1s-.2.3.3.4Z" fill="#000"/><path opacity=".1" d="M121.3 61.6s.3 0 .5-.4l.7.4a.5.5 0 0 1 .1.3l.2.8s-.5-.2-.7.3v.5a.3.3 0 0 1 0 .3V64.2a.2.2 0 0 1-.2 0l-.6.1h-1.2v-.7c.2 0 .1-.6 0-.8l-.4-.2.2-1a.6.6 0 0 1 .5-.2c.2 0 .3 0 .5-.2 0 0-.2.4.3.4Z" fill="#000"/><path d="M121.3 61.6s.3 0 .5-.4l.7.4a.5.5 0 0 1 .1.3l.2.8s-.5-.1-.7.3v.9a.2.2 0 0 1 0 .3h-2V63.6c.2-.1.1-.7 0-.8 0 0-.2-.3-.4-.3l.2-1a.6.6 0 0 1 .5-.2l.5-.1s-.2.3.3.3Z" fill="#F55F44"/><path opacity=".1" d="m121.5 60.3-.6.4v.2h.3l.4-.1v-.5Z" fill="#000"/><path d="M121.2 60.9a.6.6 0 1 0 0-1.2.6.6 0 0 0 0 1.2Z" fill="#FDB797"/><path d="M122 59.8a.3.3 0 1 0 0-.5.3.3 0 0 0 0 .5Z" fill="#72351C"/><path d="M122.1 59.8a.3.3 0 0 1-.3-.2l.1.2a.3.3 0 0 0 .4 0v-.2a.3.3 0 0 1-.2.2Z" fill="#72351C"/><path d="M122 60.1a.3.3 0 0 1-.3-.3.3.3 0 0 0 .3.3.3.3 0 0 0 .3-.2.3.3 0 0 1-.3.2ZM121.7 60.7a.3.3 0 0 1-.2-.3v.3a.3.3 0 0 0 .6-.1.3.3 0 0 1-.4.1ZM122.1 59.7a.3.3 0 0 1-.3-.2l.1.2a.3.3 0 0 0 .4 0v-.2a.3.3 0 0 1-.2.2Z" fill="#72351C"/><path d="m121.7 59.6.1-.2.2-.1h-.2a.3.3 0 0 0 .2.5h-.2v-.2Z" fill="#72351C"/><path opacity=".1" d="M122 62v.9M120.2 62.1v.8M120.2 63.6h.4M120.3 63h1.6" fill="#000"/><path d="M120 66.2h-.1a.1.1 0 1 0 0 .3h.2a.1.1 0 1 0 0-.3Z" fill="#FDB797"/><path d="M119.7 66.3h.5-.5ZM121.4 65h.3l.2.1h-.5ZM121.4 65.1h.5-.5ZM121.4 65.2h.5-.5ZM121.4 65.2h.5-.5ZM119.7 66.5h.5-.5ZM119.7 66.4h.5-.5ZM119.7 66.4h.5-.5ZM119.7 66.4h.5-.5ZM119.7 66.2h.5-.5ZM119.7 66.2h.5-.5Z" fill="#F0E4E4"/><path opacity=".1" d="M121.3 60v.6a.8.8 0 0 1 0 .6.2.2 0 0 0 .2 0l.1-.2.1-.2v-.2l-.1-.5-.1-.5-.2.3Z" fill="#000"/><path d="M121.3 59.9v.7a.8.8 0 0 1 0 .6.2.2 0 0 0 .2 0l.2-.2v-.9c-.1-.1 0-.4-.2-.5l-.2.3Z" fill="#72351C"/><path opacity=".1" d="m121 60 .1.3a.4.4 0 0 0 .3 0h.1v.2h.1a.2.2 0 0 0 .2 0l.1-.2V60l-.1-.4h-.2l-.4-.1h-.2l-.2.2s-.2.2 0 .3h.2Z" fill="#000"/><path d="m121 60 .1.2a.4.4 0 0 0 .3.2h.1l.1.1a.2.2 0 0 0 .1 0 .2.2 0 0 0 .2 0V59.6h-.3l-.4-.1h-.2c0 .1 0 .2-.2.2 0 0-.2.2 0 .2 0 0 .2 0 .2.2Z" fill="#72351C"/><path d="M121.4 65h.3l.2.1h-.5ZM121.4 65.1h.5-.5ZM121.4 65.2h.5-.5ZM121.4 65.2h.5-.5ZM121.3 68h.5-.5ZM121.3 68.1h.5-.5ZM121.3 68.2h.5-.5ZM121.3 68.2h.5-.5Z" fill="#F0E4E4"/></g><defs><linearGradient id="b" x1="96.2" y1="130" x2="96.2" y2="81.1" gradientUnits="userSpaceOnUse"><stop stop-color="gray" stop-opacity=".3"/><stop offset=".5" stop-color="gray" stop-opacity=".1"/><stop offset="1" stop-color="gray" stop-opacity=".1"/></linearGradient><linearGradient id="c" x1="67909.7" y1="52246.1" x2="67909.7" y2="0" gradientUnits="userSpaceOnUse"><stop stop-color="gray" stop-opacity=".3"/><stop offset=".5" stop-color="gray" stop-opacity=".1"/><stop offset="1" stop-color="gray" stop-opacity=".1"/></linearGradient><linearGradient id="d" x1="41634.5" y1="61047.3" x2="41634.5" y2="26293.6" gradientUnits="userSpaceOnUse"><stop stop-color="gray" stop-opacity=".3"/><stop offset=".5" stop-color="gray" stop-opacity=".1"/><stop offset="1" stop-color="gray" stop-opacity=".1"/></linearGradient><linearGradient id="e" x1="3089.7" y1="5676.2" x2="3089.7" y2="5025.4" gradientUnits="userSpaceOnUse"><stop stop-color="gray" stop-opacity=".3"/><stop offset=".5" stop-color="gray" stop-opacity=".1"/><stop offset="1" stop-color="gray" stop-opacity=".1"/></linearGradient><clipPath id="a"><path fill="#fff" transform="translate(.6)" d="M0 0h202.8v130H0z"/></clipPath></defs></svg>